<?xml version="1.0" encoding="UTF-8" standalone="no"?>
<!DOCTYPE svg PUBLIC "-//W3C//DTD SVG 1.1//EN"
 "http://www.w3.org/Graphics/SVG/1.1/DTD/svg11.dtd">
<!-- Generated by graphviz version 5.0.0 (20220707.1540)
 -->
<!-- Title: UmlClassDiagram Pages: 1 -->
<svg width="1847pt" height="1792pt"
 viewBox="0.00 0.00 1846.91 1791.60" xmlns="http://www.w3.org/2000/svg" xmlns:xlink="http://www.w3.org/1999/xlink">
<g id="graph0" class="graph" transform="scale(1 1) rotate(0) translate(4 1787.6)">
<title>UmlClassDiagram</title>
<polygon fill="white" stroke="transparent" points="-4,4 -4,-1787.6 1842.91,-1787.6 1842.91,4 -4,4"/>
<!-- 1 -->
<g id="node1" class="node">
<title>1</title>
<polygon fill="#f2f2f2" stroke="black" points="1612.5,-1128.3 1612.5,-1278.7 1829.51,-1278.7 1829.51,-1128.3 1612.5,-1128.3"/>
<text text-anchor="middle" x="1721" y="-1262.1" font-family="Times,serif" font-size="14.00">&lt;&lt;Struct&gt;&gt;</text>
<text text-anchor="middle" x="1721" y="-1245.3" font-family="Times,serif" font-size="14.00">Administrator</text>
<text text-anchor="middle" x="1721" y="-1228.5" font-family="Times,serif" font-size="14.00">contracts/AdministratorContract.sol</text>
<polyline fill="none" stroke="black" points="1612.5,-1220.3 1829.51,-1220.3 "/>
<text text-anchor="start" x="1620.5" y="-1203.7" font-family="Times,serif" font-size="14.00">idAdministrator: uint256</text>
<text text-anchor="start" x="1620.5" y="-1186.9" font-family="Times,serif" font-size="14.00">administratorAddress: address</text>
<text text-anchor="start" x="1620.5" y="-1170.1" font-family="Times,serif" font-size="14.00">taxId: uint256</text>
<text text-anchor="start" x="1620.5" y="-1153.3" font-family="Times,serif" font-size="14.00">name: string</text>
<text text-anchor="start" x="1620.5" y="-1136.5" font-family="Times,serif" font-size="14.00">stateOf: State</text>
</g>
<!-- 2 -->
<g id="node2" class="node">
<title>2</title>
<polygon fill="#f2f2f2" stroke="black" points="1413.5,-1395.3 1413.5,-1495.3 1630.51,-1495.3 1630.51,-1395.3 1413.5,-1395.3"/>
<text text-anchor="middle" x="1522" y="-1478.7" font-family="Times,serif" font-size="14.00">&lt;&lt;Enum&gt;&gt;</text>
<text text-anchor="middle" x="1522" y="-1461.9" font-family="Times,serif" font-size="14.00">State</text>
<text text-anchor="middle" x="1522" y="-1445.1" font-family="Times,serif" font-size="14.00">contracts/AdministratorContract.sol</text>
<polyline fill="none" stroke="black" points="1413.5,-1436.9 1630.51,-1436.9 "/>
<text text-anchor="start" x="1421.5" y="-1420.3" font-family="Times,serif" font-size="14.00">Inactive: 0</text>
<text text-anchor="start" x="1421.5" y="-1403.5" font-family="Times,serif" font-size="14.00">Active: 1</text>
</g>
<!-- 1&#45;&gt;2 -->
<g id="edge1" class="edge">
<title>1&#45;&gt;2</title>
<path fill="none" stroke="black" stroke-dasharray="5,2" d="M1659.4,-1278.73C1630.46,-1313.6 1596.5,-1354.53 1569.58,-1386.97"/>
<polygon fill="black" stroke="black" points="1566.58,-1385.1 1562.89,-1395.03 1571.97,-1389.57 1566.58,-1385.1"/>
</g>
<!-- 0 -->
<g id="node3" class="node">
<title>0</title>
<polygon fill="#f2f2f2" stroke="black" points="1205.1,-1557.5 1205.1,-1783.1 1838.91,-1783.1 1838.91,-1557.5 1205.1,-1557.5"/>
<text text-anchor="middle" x="1522" y="-1766.5" font-family="Times,serif" font-size="14.00">AdministratorContract</text>
<text text-anchor="middle" x="1522" y="-1749.7" font-family="Times,serif" font-size="14.00">contracts/AdministratorContract.sol</text>
<polyline fill="none" stroke="black" points="1205.1,-1741.5 1838.91,-1741.5 "/>
<text text-anchor="start" x="1213.1" y="-1724.9" font-family="Times,serif" font-size="14.00">Private:</text>
<text text-anchor="start" x="1213.1" y="-1708.1" font-family="Times,serif" font-size="14.00"> &#160;&#160;administrators: mapping(uint256=&gt;Administrator)</text>
<text text-anchor="start" x="1213.1" y="-1691.3" font-family="Times,serif" font-size="14.00"> &#160;&#160;addsAdministrators: address[]</text>
<polyline fill="none" stroke="black" points="1205.1,-1683.1 1838.91,-1683.1 "/>
<text text-anchor="start" x="1213.1" y="-1666.5" font-family="Times,serif" font-size="14.00">Public:</text>
<text text-anchor="start" x="1213.1" y="-1649.7" font-family="Times,serif" font-size="14.00"> &#160;&#160;&#160;constructor(_taxId: uint256, _name: string)</text>
<text text-anchor="start" x="1213.1" y="-1632.9" font-family="Times,serif" font-size="14.00"> &#160;&#160;&#160;addAdministrator(_address: address, _name: string, _taxId: uint256)</text>
<text text-anchor="start" x="1213.1" y="-1616.1" font-family="Times,serif" font-size="14.00"> &#160;&#160;&#160;getAdministrator(_id: uint256): Administrator</text>
<text text-anchor="start" x="1213.1" y="-1599.3" font-family="Times,serif" font-size="14.00"> &#160;&#160;&#160;updateAdministrator(_addressKey: address, _address: address, _taxId: uint256, _name: string, _state: State)</text>
<text text-anchor="start" x="1213.1" y="-1582.5" font-family="Times,serif" font-size="14.00"> &#160;&#160;&#160;getAllAdministrators(): Administrator[]</text>
<text text-anchor="start" x="1213.1" y="-1565.7" font-family="Times,serif" font-size="14.00"> &#160;&#160;&#160;checkIfAdministratorExists(_address: address): bool</text>
</g>
<!-- 1&#45;&gt;0 -->
<g id="edge3" class="edge">
<title>1&#45;&gt;0</title>
<path fill="none" stroke="black" d="M1703.96,-1278.91C1691.09,-1345.1 1669.7,-1443.16 1631,-1521 1626.68,-1529.69 1621.79,-1538.35 1616.53,-1546.87"/>
<polygon fill="black" stroke="black" points="1616.4,-1547.07 1616.54,-1554.28 1609.94,-1557.18 1609.8,-1549.97 1616.4,-1547.07"/>
</g>
<!-- 2&#45;&gt;0 -->
<g id="edge2" class="edge">
<title>2&#45;&gt;0</title>
<path fill="none" stroke="black" d="M1516.29,-1495.51C1515.74,-1510.42 1515.4,-1527.51 1515.29,-1545.02"/>
<polygon fill="black" stroke="black" points="1515.29,-1545.19 1519.27,-1551.21 1515.25,-1557.19 1511.27,-1551.18 1515.29,-1545.19"/>
</g>
<!-- 0&#45;&gt;1 -->
<g id="edge4" class="edge">
<title>0&#45;&gt;1</title>
<path fill="none" stroke="black" d="M1627.87,-1557.18C1635.72,-1545.39 1642.93,-1533.23 1649,-1521 1685.81,-1446.97 1706.96,-1354.63 1716.69,-1288.83"/>
<polygon fill="black" stroke="black" points="1720.16,-1289.31 1718.1,-1278.91 1713.23,-1288.32 1720.16,-1289.31"/>
</g>
<!-- 0&#45;&gt;2 -->
<g id="edge5" class="edge">
<title>0&#45;&gt;2</title>
<path fill="none" stroke="black" stroke-dasharray="5,2" d="M1528.75,-1557.19C1528.75,-1539.4 1528.51,-1521.64 1528.05,-1505.7"/>
<polygon fill="black" stroke="black" points="1531.54,-1505.39 1527.71,-1495.51 1524.55,-1505.62 1531.54,-1505.39"/>
</g>
<!-- 4 -->
<g id="node4" class="node">
<title>4</title>
<polygon fill="#f2f2f2" stroke="black" points="1360.39,-1119.9 1360.39,-1287.1 1555.62,-1287.1 1555.62,-1119.9 1360.39,-1119.9"/>
<text text-anchor="middle" x="1458" y="-1270.5" font-family="Times,serif" font-size="14.00">&lt;&lt;Struct&gt;&gt;</text>
<text text-anchor="middle" x="1458" y="-1253.7" font-family="Times,serif" font-size="14.00">Employee</text>
<text text-anchor="middle" x="1458" y="-1236.9" font-family="Times,serif" font-size="14.00">contracts/EmployeeContract.sol</text>
<polyline fill="none" stroke="black" points="1360.39,-1228.7 1555.62,-1228.7 "/>
<text text-anchor="start" x="1368.39" y="-1212.1" font-family="Times,serif" font-size="14.00">idEmployee: uint256</text>
<text text-anchor="start" x="1368.39" y="-1195.3" font-family="Times,serif" font-size="14.00">employeeAddress: address</text>
<text text-anchor="start" x="1368.39" y="-1178.5" font-family="Times,serif" font-size="14.00">taxId: uint256</text>
<text text-anchor="start" x="1368.39" y="-1161.7" font-family="Times,serif" font-size="14.00">name: string</text>
<text text-anchor="start" x="1368.39" y="-1144.9" font-family="Times,serif" font-size="14.00">stateOf: State</text>
<text text-anchor="start" x="1368.39" y="-1128.1" font-family="Times,serif" font-size="14.00">employerAddress: address</text>
</g>
<!-- 4&#45;&gt;2 -->
<g id="edge6" class="edge">
<title>4&#45;&gt;2</title>
<path fill="none" stroke="black" stroke-dasharray="5,2" d="M1480.12,-1287.36C1488.72,-1319.59 1498.38,-1355.78 1506.25,-1385.28"/>
<polygon fill="black" stroke="black" points="1502.89,-1386.26 1508.85,-1395.01 1509.65,-1384.45 1502.89,-1386.26"/>
</g>
<!-- 3 -->
<g id="node6" class="node">
<title>3</title>
<polygon fill="#f2f2f2" stroke="black" points="1007.93,-744.1 1007.93,-1036.9 1782.08,-1036.9 1782.08,-744.1 1007.93,-744.1"/>
<text text-anchor="middle" x="1395" y="-1020.3" font-family="Times,serif" font-size="14.00">EmployeeContract</text>
<text text-anchor="middle" x="1395" y="-1003.5" font-family="Times,serif" font-size="14.00">contracts/EmployeeContract.sol</text>
<polyline fill="none" stroke="black" points="1007.93,-995.3 1782.08,-995.3 "/>
<text text-anchor="start" x="1015.93" y="-978.7" font-family="Times,serif" font-size="14.00">Private:</text>
<text text-anchor="start" x="1015.93" y="-961.9" font-family="Times,serif" font-size="14.00"> &#160;&#160;employees: mapping(uint256=&gt;Employee)</text>
<text text-anchor="start" x="1015.93" y="-945.1" font-family="Times,serif" font-size="14.00"> &#160;&#160;addsEmployees: address[]</text>
<text text-anchor="start" x="1015.93" y="-928.3" font-family="Times,serif" font-size="14.00"> &#160;&#160;admin: AdministratorContract</text>
<text text-anchor="start" x="1015.93" y="-911.5" font-family="Times,serif" font-size="14.00"> &#160;&#160;employer: EmployerContract</text>
<polyline fill="none" stroke="black" points="1007.93,-903.3 1782.08,-903.3 "/>
<text text-anchor="start" x="1015.93" y="-886.7" font-family="Times,serif" font-size="14.00">Public:</text>
<text text-anchor="start" x="1015.93" y="-869.9" font-family="Times,serif" font-size="14.00"> &#160;&#160;&#160;constructor(_adm: address, _employer: address)</text>
<text text-anchor="start" x="1015.93" y="-853.1" font-family="Times,serif" font-size="14.00"> &#160;&#160;&#160;addEmployee(_address: address, _name: string, _taxId: uint256, _employerAddress: address)</text>
<text text-anchor="start" x="1015.93" y="-836.3" font-family="Times,serif" font-size="14.00"> &#160;&#160;&#160;updateEmployee(_addressKey: address, _address: address, _taxId: uint256, _name: string, _state: State, _employerAddress: address)</text>
<text text-anchor="start" x="1015.93" y="-819.5" font-family="Times,serif" font-size="14.00"> &#160;&#160;&#160;getEmployeeById(_id: uint256): Employee</text>
<text text-anchor="start" x="1015.93" y="-802.7" font-family="Times,serif" font-size="14.00"> &#160;&#160;&#160;getEmployeeByAddress(_address: address): Employee</text>
<text text-anchor="start" x="1015.93" y="-785.9" font-family="Times,serif" font-size="14.00"> &#160;&#160;&#160;getAllEmployees(): Employee[]</text>
<text text-anchor="start" x="1015.93" y="-769.1" font-family="Times,serif" font-size="14.00"> &#160;&#160;&#160;checkIfEmployeeExists(_address: address): bool</text>
<text text-anchor="start" x="1015.93" y="-752.3" font-family="Times,serif" font-size="14.00"> &#160;&#160;&#160;getEmployerContract(): (_empContract: address)</text>
</g>
<!-- 4&#45;&gt;3 -->
<g id="edge8" class="edge">
<title>4&#45;&gt;3</title>
<path fill="none" stroke="black" d="M1447.31,-1119.87C1443.32,-1097.93 1438.61,-1073.5 1433.66,-1049"/>
<polygon fill="black" stroke="black" points="1433.61,-1048.74 1428.49,-1043.66 1431.21,-1036.98 1436.33,-1042.07 1433.61,-1048.74"/>
</g>
<!-- 5 -->
<g id="node5" class="node">
<title>5</title>
<polygon fill="#f2f2f2" stroke="black" points="1234.39,-443.5 1234.39,-543.5 1429.62,-543.5 1429.62,-443.5 1234.39,-443.5"/>
<text text-anchor="middle" x="1332" y="-526.9" font-family="Times,serif" font-size="14.00">&lt;&lt;Enum&gt;&gt;</text>
<text text-anchor="middle" x="1332" y="-510.1" font-family="Times,serif" font-size="14.00">State</text>
<text text-anchor="middle" x="1332" y="-493.3" font-family="Times,serif" font-size="14.00">contracts/EmployeeContract.sol</text>
<polyline fill="none" stroke="black" points="1234.39,-485.1 1429.62,-485.1 "/>
<text text-anchor="start" x="1242.39" y="-468.5" font-family="Times,serif" font-size="14.00">Inactive: 0</text>
<text text-anchor="start" x="1242.39" y="-451.7" font-family="Times,serif" font-size="14.00">Active: 1</text>
</g>
<!-- 5&#45;&gt;3 -->
<g id="edge7" class="edge">
<title>5&#45;&gt;3</title>
<path fill="none" stroke="black" d="M1339.86,-543.73C1347.37,-590.84 1359.12,-664.49 1369.84,-731.73"/>
<polygon fill="black" stroke="black" points="1369.87,-731.91 1374.76,-737.21 1371.76,-743.76 1366.86,-738.47 1369.87,-731.91"/>
</g>
<!-- 3&#45;&gt;2 -->
<g id="edge12" class="edge">
<title>3&#45;&gt;2</title>
<path fill="none" stroke="black" stroke-dasharray="5,2" d="M1546.73,-1037.16C1553.87,-1048.82 1560.09,-1060.94 1565,-1073.4 1607.45,-1180.97 1586.3,-1219.93 1565,-1333.6 1561.75,-1350.96 1555.86,-1369.11 1549.46,-1385.56"/>
<polygon fill="black" stroke="black" points="1546.13,-1384.45 1545.64,-1395.03 1552.62,-1387.06 1546.13,-1384.45"/>
</g>
<!-- 3&#45;&gt;0 -->
<g id="edge10" class="edge">
<title>3&#45;&gt;0</title>
<path fill="none" stroke="black" d="M1356.53,-1037.39C1354.31,-1049.51 1352.41,-1061.62 1351,-1073.4 1337.31,-1188.23 1335.12,-1219.05 1351,-1333.6 1362.89,-1419.34 1364.51,-1443.98 1404,-1521 1408.83,-1530.41 1414.31,-1539.8 1420.19,-1549.03"/>
<polygon fill="black" stroke="black" points="1417.3,-1551 1425.71,-1557.44 1423.16,-1547.16 1417.3,-1551"/>
</g>
<!-- 3&#45;&gt;4 -->
<g id="edge9" class="edge">
<title>3&#45;&gt;4</title>
<path fill="none" stroke="black" d="M1417.74,-1036.98C1422.7,-1061.77 1427.95,-1086.9 1433,-1109.84"/>
<polygon fill="black" stroke="black" points="1429.64,-1110.86 1435.22,-1119.87 1436.47,-1109.35 1429.64,-1110.86"/>
</g>
<!-- 6 -->
<g id="node8" class="node">
<title>6</title>
<polygon fill="#f2f2f2" stroke="black" points="642.1,-1073.9 642.1,-1333.1 1303.9,-1333.1 1303.9,-1073.9 642.1,-1073.9"/>
<text text-anchor="middle" x="973" y="-1316.5" font-family="Times,serif" font-size="14.00">EmployerContract</text>
<text text-anchor="middle" x="973" y="-1299.7" font-family="Times,serif" font-size="14.00">contracts/EmployerContract.sol</text>
<polyline fill="none" stroke="black" points="642.1,-1291.5 1303.9,-1291.5 "/>
<text text-anchor="start" x="650.1" y="-1274.9" font-family="Times,serif" font-size="14.00">Private:</text>
<text text-anchor="start" x="650.1" y="-1258.1" font-family="Times,serif" font-size="14.00"> &#160;&#160;admin: AdministratorContract</text>
<text text-anchor="start" x="650.1" y="-1241.3" font-family="Times,serif" font-size="14.00"> &#160;&#160;employers: mapping(uint256=&gt;Employer)</text>
<text text-anchor="start" x="650.1" y="-1224.5" font-family="Times,serif" font-size="14.00"> &#160;&#160;addsEmployers: address[]</text>
<polyline fill="none" stroke="black" points="642.1,-1216.3 1303.9,-1216.3 "/>
<text text-anchor="start" x="650.1" y="-1199.7" font-family="Times,serif" font-size="14.00">Public:</text>
<text text-anchor="start" x="650.1" y="-1182.9" font-family="Times,serif" font-size="14.00"> &#160;&#160;&#160;constructor(_adm: address)</text>
<text text-anchor="start" x="650.1" y="-1166.1" font-family="Times,serif" font-size="14.00"> &#160;&#160;&#160;addEmployer(_address: address, _taxId: uint256, _name: string, _legalAddress: string)</text>
<text text-anchor="start" x="650.1" y="-1149.3" font-family="Times,serif" font-size="14.00"> &#160;&#160;&#160;updateEmployer(_addressKey: address, _address: address, _taxId: uint256, _name: string, _legalAddress: string)</text>
<text text-anchor="start" x="650.1" y="-1132.5" font-family="Times,serif" font-size="14.00"> &#160;&#160;&#160;getEmployerById(_id: uint256): Employer</text>
<text text-anchor="start" x="650.1" y="-1115.7" font-family="Times,serif" font-size="14.00"> &#160;&#160;&#160;getEmployerByAddress(_address: address): Employer</text>
<text text-anchor="start" x="650.1" y="-1098.9" font-family="Times,serif" font-size="14.00"> &#160;&#160;&#160;getAllEmployers(): Employer[]</text>
<text text-anchor="start" x="650.1" y="-1082.1" font-family="Times,serif" font-size="14.00"> &#160;&#160;&#160;checkIfEmployerExists(_address: address): bool</text>
</g>
<!-- 3&#45;&gt;6 -->
<g id="edge11" class="edge">
<title>3&#45;&gt;6</title>
<path fill="none" stroke="black" d="M1197.59,-1036.98C1183.7,-1047.23 1169.72,-1057.53 1155.91,-1067.7"/>
<polygon fill="black" stroke="black" points="1153.77,-1064.93 1147.8,-1073.68 1157.92,-1070.57 1153.77,-1064.93"/>
</g>
<!-- 7 -->
<g id="node7" class="node">
<title>7</title>
<polygon fill="#f2f2f2" stroke="black" points="876.17,-1370.1 876.17,-1520.5 1069.84,-1520.5 1069.84,-1370.1 876.17,-1370.1"/>
<text text-anchor="middle" x="973" y="-1503.9" font-family="Times,serif" font-size="14.00">&lt;&lt;Struct&gt;&gt;</text>
<text text-anchor="middle" x="973" y="-1487.1" font-family="Times,serif" font-size="14.00">Employer</text>
<text text-anchor="middle" x="973" y="-1470.3" font-family="Times,serif" font-size="14.00">contracts/EmployerContract.sol</text>
<polyline fill="none" stroke="black" points="876.17,-1462.1 1069.84,-1462.1 "/>
<text text-anchor="start" x="884.17" y="-1445.5" font-family="Times,serif" font-size="14.00">idEmployer: uint256</text>
<text text-anchor="start" x="884.17" y="-1428.7" font-family="Times,serif" font-size="14.00">employerAddress: address</text>
<text text-anchor="start" x="884.17" y="-1411.9" font-family="Times,serif" font-size="14.00">taxId: uint256</text>
<text text-anchor="start" x="884.17" y="-1395.1" font-family="Times,serif" font-size="14.00">name: string</text>
<text text-anchor="start" x="884.17" y="-1378.3" font-family="Times,serif" font-size="14.00">legalAddress: string</text>
</g>
<!-- 7&#45;&gt;6 -->
<g id="edge13" class="edge">
<title>7&#45;&gt;6</title>
<path fill="none" stroke="black" d="M979.3,-1369.9C979.47,-1361.92 979.59,-1353.62 979.66,-1345.18"/>
<polygon fill="black" stroke="black" points="979.66,-1345.17 975.7,-1339.15 979.74,-1333.17 983.7,-1339.2 979.66,-1345.17"/>
</g>
<!-- 6&#45;&gt;0 -->
<g id="edge14" class="edge">
<title>6&#45;&gt;0</title>
<path fill="none" stroke="black" d="M877.44,-1333.12C843.84,-1394.95 823.96,-1467.12 867,-1521 910.04,-1574.88 1053.15,-1610.63 1194.66,-1633.5"/>
<polygon fill="black" stroke="black" points="1194.42,-1637 1204.84,-1635.12 1195.52,-1630.09 1194.42,-1637"/>
</g>
<!-- 6&#45;&gt;7 -->
<g id="edge15" class="edge">
<title>6&#45;&gt;7</title>
<path fill="none" stroke="black" d="M966.27,-1333.17C966.3,-1342.2 966.39,-1351.16 966.52,-1359.84"/>
<polygon fill="black" stroke="black" points="963.02,-1359.96 966.71,-1369.9 970.02,-1359.84 963.02,-1359.96"/>
</g>
<!-- 9 -->
<g id="node9" class="node">
<title>9</title>
<polygon fill="#f2f2f2" stroke="black" points="641.82,-823.7 641.82,-957.3 798.19,-957.3 798.19,-823.7 641.82,-823.7"/>
<text text-anchor="middle" x="720" y="-940.7" font-family="Times,serif" font-size="14.00">&lt;&lt;Struct&gt;&gt;</text>
<text text-anchor="middle" x="720" y="-923.9" font-family="Times,serif" font-size="14.00">EmployeeRecord</text>
<text text-anchor="middle" x="720" y="-907.1" font-family="Times,serif" font-size="14.00">contracts/PontoBlock.sol</text>
<polyline fill="none" stroke="black" points="641.82,-898.9 798.19,-898.9 "/>
<text text-anchor="start" x="649.82" y="-882.3" font-family="Times,serif" font-size="14.00">startWork: uint256</text>
<text text-anchor="start" x="649.82" y="-865.5" font-family="Times,serif" font-size="14.00">endWork: uint256</text>
<text text-anchor="start" x="649.82" y="-848.7" font-family="Times,serif" font-size="14.00">breakStartTime: uint256</text>
<text text-anchor="start" x="649.82" y="-831.9" font-family="Times,serif" font-size="14.00">breakEndTime: uint256</text>
</g>
<!-- 8 -->
<g id="node10" class="node">
<title>8</title>
<polygon fill="#f2f2f2" stroke="black" points="475.83,-279.9 475.83,-707.1 940.18,-707.1 940.18,-279.9 475.83,-279.9"/>
<text text-anchor="middle" x="708" y="-690.5" font-family="Times,serif" font-size="14.00">PontoBlock</text>
<text text-anchor="middle" x="708" y="-673.7" font-family="Times,serif" font-size="14.00">contracts/PontoBlock.sol</text>
<polyline fill="none" stroke="black" points="475.83,-665.5 940.18,-665.5 "/>
<text text-anchor="start" x="483.83" y="-648.9" font-family="Times,serif" font-size="14.00">Private:</text>
<text text-anchor="start" x="483.83" y="-632.1" font-family="Times,serif" font-size="14.00"> &#160;&#160;timeZone: int</text>
<text text-anchor="start" x="483.83" y="-615.3" font-family="Times,serif" font-size="14.00"> &#160;&#160;oneHour: int</text>
<text text-anchor="start" x="483.83" y="-598.5" font-family="Times,serif" font-size="14.00"> &#160;&#160;owner: address</text>
<text text-anchor="start" x="483.83" y="-581.7" font-family="Times,serif" font-size="14.00"> &#160;&#160;creationDate: uint</text>
<text text-anchor="start" x="483.83" y="-564.9" font-family="Times,serif" font-size="14.00"> &#160;&#160;employeeRecords: mapping(address=&gt;mapping(uint256=&gt;EmployeeRecord))</text>
<text text-anchor="start" x="483.83" y="-548.1" font-family="Times,serif" font-size="14.00"> &#160;&#160;employee: EmployeeContract</text>
<text text-anchor="start" x="483.83" y="-531.3" font-family="Times,serif" font-size="14.00"> &#160;&#160;util: UtilContract</text>
<text text-anchor="start" x="483.83" y="-514.5" font-family="Times,serif" font-size="14.00"> &#160;&#160;admin: AdministratorContract</text>
<polyline fill="none" stroke="black" points="475.83,-506.3 940.18,-506.3 "/>
<text text-anchor="start" x="483.83" y="-489.7" font-family="Times,serif" font-size="14.00">Public:</text>
<text text-anchor="start" x="483.83" y="-472.9" font-family="Times,serif" font-size="14.00"> &#160;&#160;&#160;&lt;&lt;modifier&gt;&gt; onlyOwner()</text>
<text text-anchor="start" x="483.83" y="-456.1" font-family="Times,serif" font-size="14.00"> &#160;&#160;&#160;constructor(_emp: address, _util: address, _adm: address, _timeZone: int)</text>
<text text-anchor="start" x="483.83" y="-439.3" font-family="Times,serif" font-size="14.00"> &#160;&#160;&#160;startWork()</text>
<text text-anchor="start" x="483.83" y="-422.5" font-family="Times,serif" font-size="14.00"> &#160;&#160;&#160;endWork()</text>
<text text-anchor="start" x="483.83" y="-405.7" font-family="Times,serif" font-size="14.00"> &#160;&#160;&#160;breakStartTime()</text>
<text text-anchor="start" x="483.83" y="-388.9" font-family="Times,serif" font-size="14.00"> &#160;&#160;&#160;breakEndTime()</text>
<text text-anchor="start" x="483.83" y="-372.1" font-family="Times,serif" font-size="14.00"> &#160;&#160;&#160;getCreationDateContract(): uint</text>
<text text-anchor="start" x="483.83" y="-355.3" font-family="Times,serif" font-size="14.00"> &#160;&#160;&#160;getEmployeeRecords(_address: address, _date: uint256): EmployeeRecord</text>
<text text-anchor="start" x="483.83" y="-338.5" font-family="Times,serif" font-size="14.00"> &#160;&#160;&#160;getMoment(): uint256</text>
<text text-anchor="start" x="483.83" y="-321.7" font-family="Times,serif" font-size="14.00"> &#160;&#160;&#160;changeOwner(_newOwner: address) &lt;&lt;onlyOwner&gt;&gt;</text>
<text text-anchor="start" x="483.83" y="-304.9" font-family="Times,serif" font-size="14.00"> &#160;&#160;&#160;getOwner(): address</text>
<text text-anchor="start" x="483.83" y="-288.1" font-family="Times,serif" font-size="14.00"> &#160;&#160;&#160;getTimeZone(): int</text>
</g>
<!-- 9&#45;&gt;8 -->
<g id="edge16" class="edge">
<title>9&#45;&gt;8</title>
<path fill="none" stroke="black" d="M723.19,-823.6C723.13,-794.19 722.52,-757.63 721.54,-719.68"/>
<polygon fill="black" stroke="black" points="721.53,-719.32 717.36,-713.43 721.2,-707.32 725.36,-713.21 721.53,-719.32"/>
</g>
<!-- 8&#45;&gt;0 -->
<g id="edge19" class="edge">
<title>8&#45;&gt;0</title>
<path fill="none" stroke="black" d="M639.52,-707.25C636.98,-719.47 634.76,-731.65 633,-743.6 613.9,-873.31 580.13,-1213.62 633,-1333.6 682.79,-1446.56 728.34,-1464.32 838,-1521 947.59,-1577.64 1077.83,-1612.68 1195.1,-1634.34"/>
<polygon fill="black" stroke="black" points="1194.5,-1637.79 1204.96,-1636.14 1195.75,-1630.9 1194.5,-1637.79"/>
</g>
<!-- 8&#45;&gt;3 -->
<g id="edge17" class="edge">
<title>8&#45;&gt;3</title>
<path fill="none" stroke="black" d="M940.59,-628.23C1002.49,-663.82 1069.78,-702.51 1133.13,-738.93"/>
<polygon fill="black" stroke="black" points="1131.63,-742.11 1142.04,-744.06 1135.12,-736.04 1131.63,-742.11"/>
</g>
<!-- 8&#45;&gt;9 -->
<g id="edge20" class="edge">
<title>8&#45;&gt;9</title>
<path fill="none" stroke="black" stroke-dasharray="5,2" d="M707.74,-707.32C708.98,-745.34 710.54,-782.6 712.24,-813.41"/>
<polygon fill="black" stroke="black" points="708.75,-813.82 712.82,-823.6 715.74,-813.42 708.75,-813.82"/>
</g>
<!-- 11 -->
<g id="node12" class="node">
<title>11</title>
<polygon fill="#f2f2f2" stroke="black" points="285.51,-848.9 285.51,-932.1 586.5,-932.1 586.5,-848.9 285.51,-848.9"/>
<text text-anchor="middle" x="436" y="-915.5" font-family="Times,serif" font-size="14.00">UtilContract</text>
<text text-anchor="middle" x="436" y="-898.7" font-family="Times,serif" font-size="14.00">contracts/UtilContract.sol</text>
<polyline fill="none" stroke="black" points="285.51,-890.5 586.5,-890.5 "/>
<text text-anchor="start" x="293.51" y="-873.9" font-family="Times,serif" font-size="14.00">Public:</text>
<text text-anchor="start" x="293.51" y="-857.1" font-family="Times,serif" font-size="14.00"> &#160;&#160;&#160;getDate(timestamp: uint): (yearMonthDay: uint)</text>
</g>
<!-- 8&#45;&gt;11 -->
<g id="edge18" class="edge">
<title>8&#45;&gt;11</title>
<path fill="none" stroke="black" d="M561.45,-707.32C527.07,-757.26 493.58,-805.89 469.87,-840.32"/>
<polygon fill="black" stroke="black" points="466.84,-838.54 464.06,-848.76 472.61,-842.51 466.84,-838.54"/>
</g>
<!-- 10 -->
<g id="node11" class="node">
<title>10</title>
<polygon fill="#f2f2f2" stroke="black" points="0,-0.5 0,-242.9 1416.01,-242.9 1416.01,-0.5 0,-0.5"/>
<text text-anchor="middle" x="708" y="-226.3" font-family="Times,serif" font-size="14.00">PontoBlockReports</text>
<text text-anchor="middle" x="708" y="-209.5" font-family="Times,serif" font-size="14.00">contracts/PontoBlockReports.sol</text>
<polyline fill="none" stroke="black" points="0,-201.3 1416.01,-201.3 "/>
<text text-anchor="start" x="8" y="-184.7" font-family="Times,serif" font-size="14.00">Private:</text>
<text text-anchor="start" x="8" y="-167.9" font-family="Times,serif" font-size="14.00"> &#160;&#160;employee: EmployeeContract</text>
<text text-anchor="start" x="8" y="-151.1" font-family="Times,serif" font-size="14.00"> &#160;&#160;pontoBlock: PontoBlock</text>
<text text-anchor="start" x="8" y="-134.3" font-family="Times,serif" font-size="14.00"> &#160;&#160;util: UtilContract</text>
<text text-anchor="start" x="8" y="-117.5" font-family="Times,serif" font-size="14.00"> &#160;&#160;admin: AdministratorContract</text>
<polyline fill="none" stroke="black" points="0,-109.3 1416.01,-109.3 "/>
<text text-anchor="start" x="8" y="-92.7" font-family="Times,serif" font-size="14.00">Public:</text>
<text text-anchor="start" x="8" y="-75.9" font-family="Times,serif" font-size="14.00"> &#160;&#160;&#160;constructor(_emp: address, _ponto: address, _util: address, _adm: address)</text>
<text text-anchor="start" x="8" y="-59.1" font-family="Times,serif" font-size="14.00"> &#160;&#160;&#160;getWorkTimesFromEmployeeAtDate(_employee: address, _date: uint256): (_startWork: uint256, _endWork: uint256, _breakStartTime: uint256, _breakEndTime: uint256)</text>
<text text-anchor="start" x="8" y="-42.3" font-family="Times,serif" font-size="14.00"> &#160;&#160;&#160;getWorkTimeFromEmployeeBetweenTwoDates(_employee: address, _startDate: uint256, _endDate: uint256): (_date: uint256[], _startWork: uint256[], _endWork: uint256[], _breakStartTime: uint256[], _breakEndTime: uint256[])</text>
<text text-anchor="start" x="8" y="-25.5" font-family="Times,serif" font-size="14.00"> &#160;&#160;&#160;getWorkTimesForAllEmployeesAtDate(_date: uint256): (_empAddress: address[], _startWork: uint256[], _endWork: uint256[], _breakStartTime: uint256[], _breakEndTime: uint256[])</text>
<text text-anchor="start" x="8" y="-8.7" font-family="Times,serif" font-size="14.00"> &#160;&#160;&#160;getWorkTimesForAllEmployeesBetweenTwoDates(_startDate: uint256, _endDate: uint256): (_date: uint256[], _empAddress: address[][], _startWork: uint256[][], _endWork: uint256[][], _breakStartTime: uint256[][], _breakEndTime: uint256[][])</text>
</g>
<!-- 10&#45;&gt;0 -->
<g id="edge24" class="edge">
<title>10&#45;&gt;0</title>
<path fill="none" stroke="black" d="M429.19,-243.16C416.37,-254.29 404.5,-266.34 394,-279.4 219.88,-495.87 258,-611.69 258,-889.5 258,-889.5 258,-889.5 258,-1204.5 258,-1427.38 443.99,-1429.01 647,-1521 818.32,-1598.62 1025.2,-1635.94 1194.78,-1653.74"/>
<polygon fill="black" stroke="black" points="1194.57,-1657.23 1204.87,-1654.78 1195.28,-1650.27 1194.57,-1657.23"/>
</g>
<!-- 10&#45;&gt;3 -->
<g id="edge21" class="edge">
<title>10&#45;&gt;3</title>
<path fill="none" stroke="black" d="M1391.94,-242.94C1412.25,-254.09 1428.35,-266.21 1439,-279.4 1541.2,-405.82 1505.44,-599.19 1460.18,-734.25"/>
<polygon fill="black" stroke="black" points="1456.81,-733.28 1456.9,-743.87 1463.44,-735.53 1456.81,-733.28"/>
</g>
<!-- 10&#45;&gt;9 -->
<g id="edge25" class="edge">
<title>10&#45;&gt;9</title>
<path fill="none" stroke="black" stroke-dasharray="5,2" d="M923.4,-242.96C933.23,-254.22 941.92,-266.35 949,-279.4 1039.76,-446.67 1031.74,-536.22 949,-707.6 919.58,-768.54 858.72,-815.34 807.13,-846.19"/>
<polygon fill="black" stroke="black" points="805.13,-843.31 798.28,-851.39 808.67,-849.35 805.13,-843.31"/>
</g>
<!-- 10&#45;&gt;8 -->
<g id="edge22" class="edge">
<title>10&#45;&gt;8</title>
<path fill="none" stroke="black" d="M708,-243.02C708,-251.67 708,-260.54 708,-269.54"/>
<polygon fill="black" stroke="black" points="704.5,-269.75 708,-279.75 711.5,-269.75 704.5,-269.75"/>
</g>
<!-- 10&#45;&gt;11 -->
<g id="edge23" class="edge">
<title>10&#45;&gt;11</title>
<path fill="none" stroke="black" d="M493.63,-243.11C483.51,-254.34 474.48,-266.43 467,-279.4 361.91,-461.88 401.19,-728.3 424.11,-838.69"/>
<polygon fill="black" stroke="black" points="420.7,-839.5 426.2,-848.56 427.55,-838.05 420.7,-839.5"/>
</g>
</g>
</svg>
