<?xml version="1.0" encoding="UTF-8" standalone="no"?>
<!DOCTYPE svg PUBLIC "-//W3C//DTD SVG 1.1//EN"
 "http://www.w3.org/Graphics/SVG/1.1/DTD/svg11.dtd">
<!-- Generated by graphviz version 5.0.0 (20220707.1540)
 -->
<!-- Title: UmlClassDiagram Pages: 1 -->
<svg width="1618pt" height="1532pt"
 viewBox="0.00 0.00 1617.91 1531.60" xmlns="http://www.w3.org/2000/svg" xmlns:xlink="http://www.w3.org/1999/xlink">
<g id="graph0" class="graph" transform="scale(1 1) rotate(0) translate(4 1527.6)">
<title>UmlClassDiagram</title>
<polygon fill="white" stroke="transparent" points="-4,4 -4,-1527.6 1613.91,-1527.6 1613.91,4 -4,4"/>
<!-- 1 -->
<g id="node1" class="node">
<title>1</title>
<polygon fill="#f2f2f2" stroke="black" points="62.4,-973.1 62.4,-1123.5 279.41,-1123.5 279.41,-973.1 62.4,-973.1"/>
<text text-anchor="middle" x="170.9" y="-1106.9" font-family="Times,serif" font-size="14.00">&lt;&lt;Struct&gt;&gt;</text>
<text text-anchor="middle" x="170.9" y="-1090.1" font-family="Times,serif" font-size="14.00">Administrator</text>
<text text-anchor="middle" x="170.9" y="-1073.3" font-family="Times,serif" font-size="14.00">contracts/AdministratorContract.sol</text>
<polyline fill="none" stroke="black" points="62.4,-1065.1 279.41,-1065.1 "/>
<text text-anchor="start" x="70.4" y="-1048.5" font-family="Times,serif" font-size="14.00">idAdministrator: uint256</text>
<text text-anchor="start" x="70.4" y="-1031.7" font-family="Times,serif" font-size="14.00">administratorAddress: address</text>
<text text-anchor="start" x="70.4" y="-1014.9" font-family="Times,serif" font-size="14.00">taxId: uint256</text>
<text text-anchor="start" x="70.4" y="-998.1" font-family="Times,serif" font-size="14.00">name: string</text>
<text text-anchor="start" x="70.4" y="-981.3" font-family="Times,serif" font-size="14.00">stateOf: State</text>
</g>
<!-- 2 -->
<g id="node2" class="node">
<title>2</title>
<polygon fill="#f2f2f2" stroke="black" points="208.4,-1160.5 208.4,-1260.5 425.41,-1260.5 425.41,-1160.5 208.4,-1160.5"/>
<text text-anchor="middle" x="316.9" y="-1243.9" font-family="Times,serif" font-size="14.00">&lt;&lt;Enum&gt;&gt;</text>
<text text-anchor="middle" x="316.9" y="-1227.1" font-family="Times,serif" font-size="14.00">State</text>
<text text-anchor="middle" x="316.9" y="-1210.3" font-family="Times,serif" font-size="14.00">contracts/AdministratorContract.sol</text>
<polyline fill="none" stroke="black" points="208.4,-1202.1 425.41,-1202.1 "/>
<text text-anchor="start" x="216.4" y="-1185.5" font-family="Times,serif" font-size="14.00">Inactive: 0</text>
<text text-anchor="start" x="216.4" y="-1168.7" font-family="Times,serif" font-size="14.00">Active: 1</text>
</g>
<!-- 1&#45;&gt;2 -->
<g id="edge1" class="edge">
<title>1&#45;&gt;2</title>
<path fill="none" stroke="black" stroke-dasharray="5,2" d="M238.77,-1123.77C247.7,-1133.57 256.74,-1143.49 265.34,-1152.92"/>
<polygon fill="black" stroke="black" points="262.81,-1155.34 272.13,-1160.37 267.98,-1150.62 262.81,-1155.34"/>
</g>
<!-- 0 -->
<g id="node3" class="node">
<title>0</title>
<polygon fill="#f2f2f2" stroke="black" points="0,-1297.5 0,-1523.1 633.8,-1523.1 633.8,-1297.5 0,-1297.5"/>
<text text-anchor="middle" x="316.9" y="-1506.5" font-family="Times,serif" font-size="14.00">AdministratorContract</text>
<text text-anchor="middle" x="316.9" y="-1489.7" font-family="Times,serif" font-size="14.00">contracts/AdministratorContract.sol</text>
<polyline fill="none" stroke="black" points="0,-1481.5 633.8,-1481.5 "/>
<text text-anchor="start" x="8" y="-1464.9" font-family="Times,serif" font-size="14.00">Private:</text>
<text text-anchor="start" x="8" y="-1448.1" font-family="Times,serif" font-size="14.00"> &#160;&#160;administrators: mapping(uint256=&gt;Administrator)</text>
<text text-anchor="start" x="8" y="-1431.3" font-family="Times,serif" font-size="14.00"> &#160;&#160;addsAdministrators: address[]</text>
<polyline fill="none" stroke="black" points="0,-1423.1 633.8,-1423.1 "/>
<text text-anchor="start" x="8" y="-1406.5" font-family="Times,serif" font-size="14.00">Public:</text>
<text text-anchor="start" x="8" y="-1389.7" font-family="Times,serif" font-size="14.00"> &#160;&#160;&#160;constructor(_taxId: uint256, _name: string)</text>
<text text-anchor="start" x="8" y="-1372.9" font-family="Times,serif" font-size="14.00"> &#160;&#160;&#160;addAdministrator(_address: address, _name: string, _taxId: uint256)</text>
<text text-anchor="start" x="8" y="-1356.1" font-family="Times,serif" font-size="14.00"> &#160;&#160;&#160;getAdministrator(_id: uint256): Administrator</text>
<text text-anchor="start" x="8" y="-1339.3" font-family="Times,serif" font-size="14.00"> &#160;&#160;&#160;updateAdministrator(_addressKey: address, _address: address, _taxId: uint256, _name: string, _state: State)</text>
<text text-anchor="start" x="8" y="-1322.5" font-family="Times,serif" font-size="14.00"> &#160;&#160;&#160;getAllAdministrators(): Administrator[]</text>
<text text-anchor="start" x="8" y="-1305.7" font-family="Times,serif" font-size="14.00"> &#160;&#160;&#160;checkIfAdministratorExists(_address: address): bool</text>
</g>
<!-- 1&#45;&gt;0 -->
<g id="edge3" class="edge">
<title>1&#45;&gt;0</title>
<path fill="none" stroke="black" d="M163.15,-1123.88C164.51,-1165.64 171.56,-1217.84 189.9,-1261 193.65,-1269.83 198.08,-1278.57 202.99,-1287.12"/>
<polygon fill="black" stroke="black" points="203.03,-1287.18 209.55,-1290.26 209.21,-1297.46 202.69,-1294.39 203.03,-1287.18"/>
</g>
<!-- 2&#45;&gt;0 -->
<g id="edge2" class="edge">
<title>2&#45;&gt;0</title>
<path fill="none" stroke="black" d="M310.98,-1260.65C310.7,-1268.35 310.49,-1276.59 310.35,-1285.1"/>
<polygon fill="black" stroke="black" points="310.35,-1285.28 314.28,-1291.33 310.21,-1297.28 306.28,-1291.24 310.35,-1285.28"/>
</g>
<!-- 0&#45;&gt;1 -->
<g id="edge4" class="edge">
<title>0&#45;&gt;1</title>
<path fill="none" stroke="black" d="M227.14,-1297.46C219.79,-1285.66 213.18,-1273.42 207.9,-1261 190.99,-1221.21 183.68,-1173.74 179.88,-1133.85"/>
<polygon fill="black" stroke="black" points="183.36,-1133.52 178.98,-1123.88 176.39,-1134.15 183.36,-1133.52"/>
</g>
<!-- 0&#45;&gt;2 -->
<g id="edge5" class="edge">
<title>0&#45;&gt;2</title>
<path fill="none" stroke="black" stroke-dasharray="5,2" d="M323.6,-1297.28C323.53,-1288.18 323.37,-1279.23 323.14,-1270.75"/>
<polygon fill="black" stroke="black" points="326.64,-1270.53 322.83,-1260.65 319.64,-1270.75 326.64,-1270.53"/>
</g>
<!-- 4 -->
<g id="node4" class="node">
<title>4</title>
<polygon fill="#f2f2f2" stroke="black" points="336.29,-973.1 336.29,-1123.5 531.51,-1123.5 531.51,-973.1 336.29,-973.1"/>
<text text-anchor="middle" x="433.9" y="-1106.9" font-family="Times,serif" font-size="14.00">&lt;&lt;Struct&gt;&gt;</text>
<text text-anchor="middle" x="433.9" y="-1090.1" font-family="Times,serif" font-size="14.00">Employee</text>
<text text-anchor="middle" x="433.9" y="-1073.3" font-family="Times,serif" font-size="14.00">contracts/EmployeeContract.sol</text>
<polyline fill="none" stroke="black" points="336.29,-1065.1 531.51,-1065.1 "/>
<text text-anchor="start" x="344.29" y="-1048.5" font-family="Times,serif" font-size="14.00">idEmployee: uint256</text>
<text text-anchor="start" x="344.29" y="-1031.7" font-family="Times,serif" font-size="14.00">employeeAddress: address</text>
<text text-anchor="start" x="344.29" y="-1014.9" font-family="Times,serif" font-size="14.00">taxId: uint256</text>
<text text-anchor="start" x="344.29" y="-998.1" font-family="Times,serif" font-size="14.00">name: string</text>
<text text-anchor="start" x="344.29" y="-981.3" font-family="Times,serif" font-size="14.00">stateOf: State</text>
</g>
<!-- 4&#45;&gt;2 -->
<g id="edge6" class="edge">
<title>4&#45;&gt;2</title>
<path fill="none" stroke="black" stroke-dasharray="5,2" d="M379.51,-1123.77C372.57,-1133.28 365.55,-1142.9 358.84,-1152.08"/>
<polygon fill="black" stroke="black" points="355.85,-1150.23 352.78,-1160.37 361.51,-1154.36 355.85,-1150.23"/>
</g>
<!-- 3 -->
<g id="node6" class="node">
<title>3</title>
<polygon fill="#f2f2f2" stroke="black" points="127.89,-676.9 127.89,-936.1 739.91,-936.1 739.91,-676.9 127.89,-676.9"/>
<text text-anchor="middle" x="433.9" y="-919.5" font-family="Times,serif" font-size="14.00">EmployeeContract</text>
<text text-anchor="middle" x="433.9" y="-902.7" font-family="Times,serif" font-size="14.00">contracts/EmployeeContract.sol</text>
<polyline fill="none" stroke="black" points="127.89,-894.5 739.91,-894.5 "/>
<text text-anchor="start" x="135.89" y="-877.9" font-family="Times,serif" font-size="14.00">Private:</text>
<text text-anchor="start" x="135.89" y="-861.1" font-family="Times,serif" font-size="14.00"> &#160;&#160;employees: mapping(uint256=&gt;Employee)</text>
<text text-anchor="start" x="135.89" y="-844.3" font-family="Times,serif" font-size="14.00"> &#160;&#160;addsEmployees: address[]</text>
<text text-anchor="start" x="135.89" y="-827.5" font-family="Times,serif" font-size="14.00"> &#160;&#160;admin: AdministratorContract</text>
<polyline fill="none" stroke="black" points="127.89,-819.3 739.91,-819.3 "/>
<text text-anchor="start" x="135.89" y="-802.7" font-family="Times,serif" font-size="14.00">Public:</text>
<text text-anchor="start" x="135.89" y="-785.9" font-family="Times,serif" font-size="14.00"> &#160;&#160;&#160;constructor(_adm: address)</text>
<text text-anchor="start" x="135.89" y="-769.1" font-family="Times,serif" font-size="14.00"> &#160;&#160;&#160;addEmployee(_address: address, _name: string, _taxId: uint256)</text>
<text text-anchor="start" x="135.89" y="-752.3" font-family="Times,serif" font-size="14.00"> &#160;&#160;&#160;updateEmployee(_addressKey: address, _address: address, _taxId: uint256, _name: string, _state: State)</text>
<text text-anchor="start" x="135.89" y="-735.5" font-family="Times,serif" font-size="14.00"> &#160;&#160;&#160;getEmployeeById(_id: uint256): Employee</text>
<text text-anchor="start" x="135.89" y="-718.7" font-family="Times,serif" font-size="14.00"> &#160;&#160;&#160;getEmployeeByAddress(_address: address): Employee</text>
<text text-anchor="start" x="135.89" y="-701.9" font-family="Times,serif" font-size="14.00"> &#160;&#160;&#160;getAllEmployees(): Employee[]</text>
<text text-anchor="start" x="135.89" y="-685.1" font-family="Times,serif" font-size="14.00"> &#160;&#160;&#160;checkIfEmployeeExists(_address: address): bool</text>
</g>
<!-- 4&#45;&gt;3 -->
<g id="edge8" class="edge">
<title>4&#45;&gt;3</title>
<path fill="none" stroke="black" d="M440.2,-972.9C440.37,-964.92 440.49,-956.62 440.56,-948.18"/>
<polygon fill="black" stroke="black" points="440.56,-948.17 436.6,-942.15 440.64,-936.17 444.6,-942.2 440.56,-948.17"/>
</g>
<!-- 5 -->
<g id="node5" class="node">
<title>5</title>
<polygon fill="#f2f2f2" stroke="black" points="336.29,-401.5 336.29,-501.5 531.51,-501.5 531.51,-401.5 336.29,-401.5"/>
<text text-anchor="middle" x="433.9" y="-484.9" font-family="Times,serif" font-size="14.00">&lt;&lt;Enum&gt;&gt;</text>
<text text-anchor="middle" x="433.9" y="-468.1" font-family="Times,serif" font-size="14.00">State</text>
<text text-anchor="middle" x="433.9" y="-451.3" font-family="Times,serif" font-size="14.00">contracts/EmployeeContract.sol</text>
<polyline fill="none" stroke="black" points="336.29,-443.1 531.51,-443.1 "/>
<text text-anchor="start" x="344.29" y="-426.5" font-family="Times,serif" font-size="14.00">Inactive: 0</text>
<text text-anchor="start" x="344.29" y="-409.7" font-family="Times,serif" font-size="14.00">Active: 1</text>
</g>
<!-- 5&#45;&gt;3 -->
<g id="edge7" class="edge">
<title>5&#45;&gt;3</title>
<path fill="none" stroke="black" d="M433.9,-501.58C433.9,-543.76 433.9,-606.74 433.9,-664.44"/>
<polygon fill="black" stroke="black" points="433.9,-664.66 437.9,-670.66 433.9,-676.66 429.9,-670.66 433.9,-664.66"/>
</g>
<!-- 3&#45;&gt;2 -->
<g id="edge11" class="edge">
<title>3&#45;&gt;2</title>
<path fill="none" stroke="black" stroke-dasharray="5,2" d="M341.62,-936.34C335.84,-948.23 330.79,-960.4 326.9,-972.6 308.34,-1030.82 307.94,-1101.17 310.89,-1150.01"/>
<polygon fill="black" stroke="black" points="307.4,-1150.35 311.56,-1160.1 314.38,-1149.89 307.4,-1150.35"/>
</g>
<!-- 3&#45;&gt;0 -->
<g id="edge10" class="edge">
<title>3&#45;&gt;0</title>
<path fill="none" stroke="black" d="M526.75,-936.17C532.41,-948.09 537.27,-960.32 540.9,-972.6 559.98,-1037.13 562.66,-1060.33 540.9,-1124 520.17,-1184.68 480.49,-1242.23 440.21,-1289.54"/>
<polygon fill="black" stroke="black" points="437.36,-1287.48 433.48,-1297.34 442.66,-1292.05 437.36,-1287.48"/>
</g>
<!-- 3&#45;&gt;4 -->
<g id="edge9" class="edge">
<title>3&#45;&gt;4</title>
<path fill="none" stroke="black" d="M427.17,-936.17C427.2,-945.2 427.29,-954.16 427.42,-962.84"/>
<polygon fill="black" stroke="black" points="423.92,-962.96 427.6,-972.9 430.92,-962.84 423.92,-962.96"/>
</g>
<!-- 7 -->
<g id="node7" class="node">
<title>7</title>
<polygon fill="#f2f2f2" stroke="black" points="1077.71,-739.7 1077.71,-873.3 1234.09,-873.3 1234.09,-739.7 1077.71,-739.7"/>
<text text-anchor="middle" x="1155.9" y="-856.7" font-family="Times,serif" font-size="14.00">&lt;&lt;Struct&gt;&gt;</text>
<text text-anchor="middle" x="1155.9" y="-839.9" font-family="Times,serif" font-size="14.00">EmployeeRecord</text>
<text text-anchor="middle" x="1155.9" y="-823.1" font-family="Times,serif" font-size="14.00">contracts/PontoBlock.sol</text>
<polyline fill="none" stroke="black" points="1077.71,-814.9 1234.09,-814.9 "/>
<text text-anchor="start" x="1085.71" y="-798.3" font-family="Times,serif" font-size="14.00">startWork: uint256</text>
<text text-anchor="start" x="1085.71" y="-781.5" font-family="Times,serif" font-size="14.00">endWork: uint256</text>
<text text-anchor="start" x="1085.71" y="-764.7" font-family="Times,serif" font-size="14.00">breakStartTime: uint256</text>
<text text-anchor="start" x="1085.71" y="-747.9" font-family="Times,serif" font-size="14.00">breakEndTime: uint256</text>
</g>
<!-- 6 -->
<g id="node8" class="node">
<title>6</title>
<polygon fill="#f2f2f2" stroke="black" points="799.72,-263.1 799.72,-639.9 1264.08,-639.9 1264.08,-263.1 799.72,-263.1"/>
<text text-anchor="middle" x="1031.9" y="-623.3" font-family="Times,serif" font-size="14.00">PontoBlock</text>
<text text-anchor="middle" x="1031.9" y="-606.5" font-family="Times,serif" font-size="14.00">contracts/PontoBlock.sol</text>
<polyline fill="none" stroke="black" points="799.72,-598.3 1264.08,-598.3 "/>
<text text-anchor="start" x="807.72" y="-581.7" font-family="Times,serif" font-size="14.00">Private:</text>
<text text-anchor="start" x="807.72" y="-564.9" font-family="Times,serif" font-size="14.00"> &#160;&#160;timeZone: int</text>
<text text-anchor="start" x="807.72" y="-548.1" font-family="Times,serif" font-size="14.00"> &#160;&#160;oneHour: int</text>
<text text-anchor="start" x="807.72" y="-531.3" font-family="Times,serif" font-size="14.00"> &#160;&#160;employee: EmployeeContract</text>
<text text-anchor="start" x="807.72" y="-514.5" font-family="Times,serif" font-size="14.00"> &#160;&#160;util: UtilContract</text>
<text text-anchor="start" x="807.72" y="-497.7" font-family="Times,serif" font-size="14.00"> &#160;&#160;creationDate: uint</text>
<text text-anchor="start" x="807.72" y="-480.9" font-family="Times,serif" font-size="14.00"> &#160;&#160;employeeRecords: mapping(address=&gt;mapping(uint256=&gt;EmployeeRecord))</text>
<text text-anchor="start" x="807.72" y="-464.1" font-family="Times,serif" font-size="14.00">Public:</text>
<text text-anchor="start" x="807.72" y="-447.3" font-family="Times,serif" font-size="14.00"> &#160;&#160;owner: address</text>
<polyline fill="none" stroke="black" points="799.72,-439.1 1264.08,-439.1 "/>
<text text-anchor="start" x="807.72" y="-422.5" font-family="Times,serif" font-size="14.00">Internal:</text>
<text text-anchor="start" x="807.72" y="-405.7" font-family="Times,serif" font-size="14.00"> &#160;&#160;&#160;getMoment(): uint256</text>
<text text-anchor="start" x="807.72" y="-388.9" font-family="Times,serif" font-size="14.00">Public:</text>
<text text-anchor="start" x="807.72" y="-372.1" font-family="Times,serif" font-size="14.00"> &#160;&#160;&#160;constructor(_emp: address, _util: address, _timeZone: int)</text>
<text text-anchor="start" x="807.72" y="-355.3" font-family="Times,serif" font-size="14.00"> &#160;&#160;&#160;startWork()</text>
<text text-anchor="start" x="807.72" y="-338.5" font-family="Times,serif" font-size="14.00"> &#160;&#160;&#160;endWork()</text>
<text text-anchor="start" x="807.72" y="-321.7" font-family="Times,serif" font-size="14.00"> &#160;&#160;&#160;breakStartTime()</text>
<text text-anchor="start" x="807.72" y="-304.9" font-family="Times,serif" font-size="14.00"> &#160;&#160;&#160;breakEndTime()</text>
<text text-anchor="start" x="807.72" y="-288.1" font-family="Times,serif" font-size="14.00"> &#160;&#160;&#160;getCreationDateContract(): uint</text>
<text text-anchor="start" x="807.72" y="-271.3" font-family="Times,serif" font-size="14.00"> &#160;&#160;&#160;getEmployeeRecords(_address: address, _date: uint256): EmployeeRecord</text>
</g>
<!-- 7&#45;&gt;6 -->
<g id="edge12" class="edge">
<title>7&#45;&gt;6</title>
<path fill="none" stroke="black" d="M1138.18,-739.68C1129.94,-714.17 1119.6,-683.49 1108.62,-651.82"/>
<polygon fill="black" stroke="black" points="1108.49,-651.44 1102.74,-647.09 1104.54,-640.11 1110.29,-644.46 1108.49,-651.44"/>
</g>
<!-- 6&#45;&gt;3 -->
<g id="edge13" class="edge">
<title>6&#45;&gt;3</title>
<path fill="none" stroke="black" d="M799.47,-594.77C773.7,-610.27 747.78,-625.73 722.9,-640.4 705.58,-650.61 687.62,-661.1 669.53,-671.6"/>
<polygon fill="black" stroke="black" points="667.53,-668.71 660.63,-676.75 671.04,-674.77 667.53,-668.71"/>
</g>
<!-- 6&#45;&gt;7 -->
<g id="edge15" class="edge">
<title>6&#45;&gt;7</title>
<path fill="none" stroke="black" stroke-dasharray="5,2" d="M1091.07,-640.11C1102.33,-671.97 1113.71,-703.34 1123.75,-730.05"/>
<polygon fill="black" stroke="black" points="1120.58,-731.56 1127.39,-739.68 1127.13,-729.09 1120.58,-731.56"/>
</g>
<!-- 9 -->
<g id="node10" class="node">
<title>9</title>
<polygon fill="#f2f2f2" stroke="black" points="758.41,-764.9 758.41,-848.1 1059.39,-848.1 1059.39,-764.9 758.41,-764.9"/>
<text text-anchor="middle" x="908.9" y="-831.5" font-family="Times,serif" font-size="14.00">UtilContract</text>
<text text-anchor="middle" x="908.9" y="-814.7" font-family="Times,serif" font-size="14.00">contracts/UtilContract.sol</text>
<polyline fill="none" stroke="black" points="758.41,-806.5 1059.39,-806.5 "/>
<text text-anchor="start" x="766.41" y="-789.9" font-family="Times,serif" font-size="14.00">Public:</text>
<text text-anchor="start" x="766.41" y="-773.1" font-family="Times,serif" font-size="14.00"> &#160;&#160;&#160;getDate(timestamp: uint): (yearMonthDay: uint)</text>
</g>
<!-- 6&#45;&gt;9 -->
<g id="edge14" class="edge">
<title>6&#45;&gt;9</title>
<path fill="none" stroke="black" d="M966.53,-640.11C951.71,-682.65 937.19,-724.32 926.43,-755.2"/>
<polygon fill="black" stroke="black" points="923.06,-754.24 923.07,-764.83 929.67,-756.54 923.06,-754.24"/>
</g>
<!-- 8 -->
<g id="node9" class="node">
<title>8</title>
<polygon fill="#f2f2f2" stroke="black" points="193.9,-0.5 193.9,-226.1 1609.91,-226.1 1609.91,-0.5 193.9,-0.5"/>
<text text-anchor="middle" x="901.9" y="-209.5" font-family="Times,serif" font-size="14.00">PontoBlockReports</text>
<text text-anchor="middle" x="901.9" y="-192.7" font-family="Times,serif" font-size="14.00">contracts/PontoBlockReports.sol</text>
<polyline fill="none" stroke="black" points="193.9,-184.5 1609.91,-184.5 "/>
<text text-anchor="start" x="201.9" y="-167.9" font-family="Times,serif" font-size="14.00">Private:</text>
<text text-anchor="start" x="201.9" y="-151.1" font-family="Times,serif" font-size="14.00"> &#160;&#160;employee: EmployeeContract</text>
<text text-anchor="start" x="201.9" y="-134.3" font-family="Times,serif" font-size="14.00"> &#160;&#160;pontoBlock: PontoBlock</text>
<text text-anchor="start" x="201.9" y="-117.5" font-family="Times,serif" font-size="14.00"> &#160;&#160;util: UtilContract</text>
<polyline fill="none" stroke="black" points="193.9,-109.3 1609.91,-109.3 "/>
<text text-anchor="start" x="201.9" y="-92.7" font-family="Times,serif" font-size="14.00">Public:</text>
<text text-anchor="start" x="201.9" y="-75.9" font-family="Times,serif" font-size="14.00"> &#160;&#160;&#160;constructor(_emp: address, _ponto: address, _util: address)</text>
<text text-anchor="start" x="201.9" y="-59.1" font-family="Times,serif" font-size="14.00"> &#160;&#160;&#160;getWorkTimesFromEmployeeAtDate(_employee: address, _date: uint256): (_startWork: uint256, _endWork: uint256, _breakStartTime: uint256, _breakEndTime: uint256)</text>
<text text-anchor="start" x="201.9" y="-42.3" font-family="Times,serif" font-size="14.00"> &#160;&#160;&#160;getWorkTimeFromEmployeeBetweenTwoDates(_employee: address, _startDate: uint256, _endDate: uint256): (_date: uint256[], _startWork: uint256[], _endWork: uint256[], _breakStartTime: uint256[], _breakEndTime: uint256[])</text>
<text text-anchor="start" x="201.9" y="-25.5" font-family="Times,serif" font-size="14.00"> &#160;&#160;&#160;getWorkTimesForAllEmployeesAtDate(_date: uint256): (_empAddress: address[], _startWork: uint256[], _endWork: uint256[], _breakStartTime: uint256[], _breakEndTime: uint256[])</text>
<text text-anchor="start" x="201.9" y="-8.7" font-family="Times,serif" font-size="14.00"> &#160;&#160;&#160;getWorkTimesForAllEmployeesBetweenTwoDates(_startDate: uint256, _endDate: uint256): (_date: uint256[], _empAddress: address[][], _startWork: uint256[][], _endWork: uint256[][], _breakStartTime: uint256[][], _breakEndTime: uint256[][])</text>
</g>
<!-- 8&#45;&gt;3 -->
<g id="edge16" class="edge">
<title>8&#45;&gt;3</title>
<path fill="none" stroke="black" d="M777.59,-226.32C766.72,-238.14 756.3,-250.33 746.9,-262.6 630.65,-414.46 638.76,-476.08 540.9,-640.4 535.48,-649.5 529.81,-658.82 524.02,-668.17"/>
<polygon fill="black" stroke="black" points="520.98,-666.42 518.67,-676.76 526.92,-670.12 520.98,-666.42"/>
</g>
<!-- 8&#45;&gt;7 -->
<g id="edge19" class="edge">
<title>8&#45;&gt;7</title>
<path fill="none" stroke="black" stroke-dasharray="5,2" d="M1242.22,-226.4C1253.62,-237.36 1263.96,-249.39 1272.9,-262.6 1367.05,-401.63 1323.85,-480.4 1272.9,-640.4 1262.52,-673.01 1243.09,-704.71 1223.01,-731.47"/>
<polygon fill="black" stroke="black" points="1220.08,-729.55 1216.77,-739.61 1225.63,-733.81 1220.08,-729.55"/>
</g>
<!-- 8&#45;&gt;6 -->
<g id="edge17" class="edge">
<title>8&#45;&gt;6</title>
<path fill="none" stroke="black" d="M945.19,-226.25C948.65,-235.2 952.21,-244.4 955.81,-253.71"/>
<polygon fill="black" stroke="black" points="952.55,-255 959.43,-263.06 959.08,-252.47 952.55,-255"/>
</g>
<!-- 8&#45;&gt;9 -->
<g id="edge18" class="edge">
<title>8&#45;&gt;9</title>
<path fill="none" stroke="black" d="M807.1,-226.37C800.6,-238.08 795.02,-250.24 790.9,-262.6 737.88,-421.92 739.64,-480.51 790.9,-640.4 804.98,-684.32 835.52,-726.49 862,-757.22"/>
<polygon fill="black" stroke="black" points="859.4,-759.57 868.63,-764.78 864.67,-754.96 859.4,-759.57"/>
</g>
</g>
</svg>
