<?xml version="1.0" encoding="UTF-8" standalone="no"?>
<!DOCTYPE svg PUBLIC "-//W3C//DTD SVG 1.1//EN"
 "http://www.w3.org/Graphics/SVG/1.1/DTD/svg11.dtd">
<!-- Generated by graphviz version 5.0.0 (20220707.1540)
 -->
<!-- Title: UmlClassDiagram Pages: 1 -->
<svg width="2338pt" height="2212pt"
 viewBox="0.00 0.00 2338.50 2211.60" xmlns="http://www.w3.org/2000/svg" xmlns:xlink="http://www.w3.org/1999/xlink">
<g id="graph0" class="graph" transform="scale(1 1) rotate(0) translate(4 2207.6)">
<title>UmlClassDiagram</title>
<polygon fill="white" stroke="transparent" points="-4,4 -4,-2207.6 2334.5,-2207.6 2334.5,4 -4,4"/>
<!-- 1 -->
<g id="node1" class="node">
<title>1</title>
<polygon fill="#f2f2f2" stroke="black" points="1309.99,-1422.3 1309.99,-1572.7 1527,-1572.7 1527,-1422.3 1309.99,-1422.3"/>
<text text-anchor="middle" x="1418.49" y="-1556.1" font-family="Times,serif" font-size="14.00">&lt;&lt;Struct&gt;&gt;</text>
<text text-anchor="middle" x="1418.49" y="-1539.3" font-family="Times,serif" font-size="14.00">Administrator</text>
<text text-anchor="middle" x="1418.49" y="-1522.5" font-family="Times,serif" font-size="14.00">contracts/AdministratorContract.sol</text>
<polyline fill="none" stroke="black" points="1309.99,-1514.3 1527,-1514.3 "/>
<text text-anchor="start" x="1317.99" y="-1497.7" font-family="Times,serif" font-size="14.00">idAdministrator: uint256</text>
<text text-anchor="start" x="1317.99" y="-1480.9" font-family="Times,serif" font-size="14.00">administratorAddress: address</text>
<text text-anchor="start" x="1317.99" y="-1464.1" font-family="Times,serif" font-size="14.00">taxId: uint256</text>
<text text-anchor="start" x="1317.99" y="-1447.3" font-family="Times,serif" font-size="14.00">name: string</text>
<text text-anchor="start" x="1317.99" y="-1430.5" font-family="Times,serif" font-size="14.00">stateOf: State</text>
</g>
<!-- 2 -->
<g id="node2" class="node">
<title>2</title>
<polygon fill="#f2f2f2" stroke="black" points="1513.99,-1731.3 1513.99,-1831.3 1731,-1831.3 1731,-1731.3 1513.99,-1731.3"/>
<text text-anchor="middle" x="1622.49" y="-1814.7" font-family="Times,serif" font-size="14.00">&lt;&lt;Enum&gt;&gt;</text>
<text text-anchor="middle" x="1622.49" y="-1797.9" font-family="Times,serif" font-size="14.00">State</text>
<text text-anchor="middle" x="1622.49" y="-1781.1" font-family="Times,serif" font-size="14.00">contracts/AdministratorContract.sol</text>
<polyline fill="none" stroke="black" points="1513.99,-1772.9 1731,-1772.9 "/>
<text text-anchor="start" x="1521.99" y="-1756.3" font-family="Times,serif" font-size="14.00">Inactive: 0</text>
<text text-anchor="start" x="1521.99" y="-1739.5" font-family="Times,serif" font-size="14.00">Active: 1</text>
</g>
<!-- 1&#45;&gt;2 -->
<g id="edge1" class="edge">
<title>1&#45;&gt;2</title>
<path fill="none" stroke="black" stroke-dasharray="5,2" d="M1467.83,-1572.94C1488.31,-1603.24 1512.61,-1638.41 1535.49,-1669.6 1548.41,-1687.21 1562.92,-1706.02 1576.32,-1723.04"/>
<polygon fill="black" stroke="black" points="1573.86,-1725.57 1582.8,-1731.24 1579.35,-1721.23 1573.86,-1725.57"/>
</g>
<!-- 0 -->
<g id="node3" class="node">
<title>0</title>
<polygon fill="#f2f2f2" stroke="black" points="1168.28,-1893.5 1168.28,-2203.1 2076.7,-2203.1 2076.7,-1893.5 1168.28,-1893.5"/>
<text text-anchor="middle" x="1622.49" y="-2186.5" font-family="Times,serif" font-size="14.00">AdministratorContract</text>
<text text-anchor="middle" x="1622.49" y="-2169.7" font-family="Times,serif" font-size="14.00">contracts/AdministratorContract.sol</text>
<polyline fill="none" stroke="black" points="1168.28,-2161.5 2076.7,-2161.5 "/>
<text text-anchor="start" x="1176.28" y="-2144.9" font-family="Times,serif" font-size="14.00">Private:</text>
<text text-anchor="start" x="1176.28" y="-2128.1" font-family="Times,serif" font-size="14.00"> &#160;&#160;administrators: mapping(uint256=&gt;Administrator)</text>
<text text-anchor="start" x="1176.28" y="-2111.3" font-family="Times,serif" font-size="14.00"> &#160;&#160;addsAdministrators: address[]</text>
<polyline fill="none" stroke="black" points="1168.28,-2103.1 2076.7,-2103.1 "/>
<text text-anchor="start" x="1176.28" y="-2086.5" font-family="Times,serif" font-size="14.00">Public:</text>
<text text-anchor="start" x="1176.28" y="-2069.7" font-family="Times,serif" font-size="14.00"> &#160;&#160;&#160;&lt;&lt;event&gt;&gt; AdminAdded(from_: address, address_: address, name_: string, taxId_: uint256, timestamp_: uint256)</text>
<text text-anchor="start" x="1176.28" y="-2052.9" font-family="Times,serif" font-size="14.00"> &#160;&#160;&#160;&lt;&lt;event&gt;&gt; AdminUpdated(from_: address, oldAddress_: address, newAddress_: address, name_: string, taxId_: uint256, state_: State, timestamp_: uint256)</text>
<text text-anchor="start" x="1176.28" y="-2036.1" font-family="Times,serif" font-size="14.00"> &#160;&#160;&#160;&lt;&lt;modifier&gt;&gt; onlyAdmin()</text>
<text text-anchor="start" x="1176.28" y="-2019.3" font-family="Times,serif" font-size="14.00"> &#160;&#160;&#160;&lt;&lt;modifier&gt;&gt; adminNotAddedYet(_address: address)</text>
<text text-anchor="start" x="1176.28" y="-2002.5" font-family="Times,serif" font-size="14.00"> &#160;&#160;&#160;&lt;&lt;modifier&gt;&gt; adminAddedYet(_address: address)</text>
<text text-anchor="start" x="1176.28" y="-1985.7" font-family="Times,serif" font-size="14.00"> &#160;&#160;&#160;constructor(_taxId: uint256, _name: string)</text>
<text text-anchor="start" x="1176.28" y="-1968.9" font-family="Times,serif" font-size="14.00"> &#160;&#160;&#160;addAdministrator(_address: address, _name: string, _taxId: uint256) &lt;&lt;onlyAdmin, adminNotAddedYet&gt;&gt;</text>
<text text-anchor="start" x="1176.28" y="-1952.1" font-family="Times,serif" font-size="14.00"> &#160;&#160;&#160;updateAdministrator(_addressKey: address, _address: address, _taxId: uint256, _name: string, _state: State) &lt;&lt;onlyAdmin, adminAddedYet&gt;&gt;</text>
<text text-anchor="start" x="1176.28" y="-1935.3" font-family="Times,serif" font-size="14.00"> &#160;&#160;&#160;getAdministrator(_id: uint256): Administrator &lt;&lt;onlyAdmin&gt;&gt;</text>
<text text-anchor="start" x="1176.28" y="-1918.5" font-family="Times,serif" font-size="14.00"> &#160;&#160;&#160;getAllAdministrators(): Administrator[] &lt;&lt;onlyAdmin&gt;&gt;</text>
<text text-anchor="start" x="1176.28" y="-1901.7" font-family="Times,serif" font-size="14.00"> &#160;&#160;&#160;checkIfAdministratorExists(_address: address): bool</text>
</g>
<!-- 1&#45;&gt;0 -->
<g id="edge3" class="edge">
<title>1&#45;&gt;0</title>
<path fill="none" stroke="black" d="M1422.36,-1572.75C1432.47,-1646.8 1456.18,-1762.78 1495.49,-1857 1499.04,-1865.51 1502.95,-1874.08 1507.12,-1882.63"/>
<polygon fill="black" stroke="black" points="1507.16,-1882.7 1513.43,-1886.27 1512.55,-1893.43 1506.28,-1889.86 1507.16,-1882.7"/>
</g>
<!-- 2&#45;&gt;0 -->
<g id="edge2" class="edge">
<title>2&#45;&gt;0</title>
<path fill="none" stroke="black" d="M1617.1,-1831.52C1616.54,-1846.25 1616.15,-1863.28 1615.94,-1881.19"/>
<polygon fill="black" stroke="black" points="1615.94,-1881.39 1619.88,-1887.43 1615.82,-1893.39 1611.88,-1887.35 1615.94,-1881.39"/>
</g>
<!-- 0&#45;&gt;1 -->
<g id="edge4" class="edge">
<title>0&#45;&gt;1</title>
<path fill="none" stroke="black" d="M1530.51,-1893.43C1524.31,-1881.33 1518.54,-1869.11 1513.49,-1857 1475.95,-1767.01 1452.64,-1657.18 1438.01,-1582.98"/>
<polygon fill="black" stroke="black" points="1441.37,-1581.89 1436.01,-1572.75 1434.5,-1583.24 1441.37,-1581.89"/>
</g>
<!-- 0&#45;&gt;2 -->
<g id="edge5" class="edge">
<title>0&#45;&gt;2</title>
<path fill="none" stroke="black" stroke-dasharray="5,2" d="M1629.16,-1893.39C1629.03,-1875.07 1628.71,-1857.31 1628.23,-1841.57"/>
<polygon fill="black" stroke="black" points="1631.72,-1841.4 1627.88,-1831.52 1624.73,-1841.64 1631.72,-1841.4"/>
</g>
<!-- 4 -->
<g id="node4" class="node">
<title>4</title>
<polygon fill="#f2f2f2" stroke="black" points="1544.88,-1397.1 1544.88,-1597.9 1740.1,-1597.9 1740.1,-1397.1 1544.88,-1397.1"/>
<text text-anchor="middle" x="1642.49" y="-1581.3" font-family="Times,serif" font-size="14.00">&lt;&lt;Struct&gt;&gt;</text>
<text text-anchor="middle" x="1642.49" y="-1564.5" font-family="Times,serif" font-size="14.00">Employee</text>
<text text-anchor="middle" x="1642.49" y="-1547.7" font-family="Times,serif" font-size="14.00">contracts/EmployeeContract.sol</text>
<polyline fill="none" stroke="black" points="1544.88,-1539.5 1740.1,-1539.5 "/>
<text text-anchor="start" x="1552.88" y="-1522.9" font-family="Times,serif" font-size="14.00">idEmployee: uint256</text>
<text text-anchor="start" x="1552.88" y="-1506.1" font-family="Times,serif" font-size="14.00">employeeAddress: address</text>
<text text-anchor="start" x="1552.88" y="-1489.3" font-family="Times,serif" font-size="14.00">taxId: uint256</text>
<text text-anchor="start" x="1552.88" y="-1472.5" font-family="Times,serif" font-size="14.00">name: string</text>
<text text-anchor="start" x="1552.88" y="-1455.7" font-family="Times,serif" font-size="14.00">begginingWorkDay: uint256</text>
<text text-anchor="start" x="1552.88" y="-1438.9" font-family="Times,serif" font-size="14.00">endWorkDay: uint256</text>
<text text-anchor="start" x="1552.88" y="-1422.1" font-family="Times,serif" font-size="14.00">stateOf: State</text>
<text text-anchor="start" x="1552.88" y="-1405.3" font-family="Times,serif" font-size="14.00">employerAddress: address</text>
</g>
<!-- 4&#45;&gt;2 -->
<g id="edge6" class="edge">
<title>4&#45;&gt;2</title>
<path fill="none" stroke="black" stroke-dasharray="5,2" d="M1635.41,-1598.25C1632.5,-1639.32 1629.22,-1685.5 1626.69,-1721.08"/>
<polygon fill="black" stroke="black" points="1623.19,-1721.06 1625.97,-1731.29 1630.17,-1721.56 1623.19,-1721.06"/>
</g>
<!-- 3 -->
<g id="node6" class="node">
<title>3</title>
<polygon fill="#f2f2f2" stroke="black" points="304.79,-861.7 304.79,-1288.9 1816.19,-1288.9 1816.19,-861.7 304.79,-861.7"/>
<text text-anchor="middle" x="1060.49" y="-1272.3" font-family="Times,serif" font-size="14.00">EmployeeContract</text>
<text text-anchor="middle" x="1060.49" y="-1255.5" font-family="Times,serif" font-size="14.00">contracts/EmployeeContract.sol</text>
<polyline fill="none" stroke="black" points="304.79,-1247.3 1816.19,-1247.3 "/>
<text text-anchor="start" x="312.79" y="-1230.7" font-family="Times,serif" font-size="14.00">Private:</text>
<text text-anchor="start" x="312.79" y="-1213.9" font-family="Times,serif" font-size="14.00"> &#160;&#160;admin: AdministratorContract</text>
<text text-anchor="start" x="312.79" y="-1197.1" font-family="Times,serif" font-size="14.00"> &#160;&#160;employer: EmployerContract</text>
<text text-anchor="start" x="312.79" y="-1180.3" font-family="Times,serif" font-size="14.00"> &#160;&#160;util: UtilContract</text>
<text text-anchor="start" x="312.79" y="-1163.5" font-family="Times,serif" font-size="14.00"> &#160;&#160;employees: mapping(uint256=&gt;Employee)</text>
<text text-anchor="start" x="312.79" y="-1146.7" font-family="Times,serif" font-size="14.00"> &#160;&#160;addsEmployees: address[]</text>
<polyline fill="none" stroke="black" points="304.79,-1138.5 1816.19,-1138.5 "/>
<text text-anchor="start" x="312.79" y="-1121.9" font-family="Times,serif" font-size="14.00">Public:</text>
<text text-anchor="start" x="312.79" y="-1105.1" font-family="Times,serif" font-size="14.00"> &#160;&#160;&#160;&lt;&lt;event&gt;&gt; EmployeeAdded(from_: address, address_: address, name_: string, taxId_: uint256, begginingWorkDay_: uint256, endWorkDay_: uint256, employerAddress_: address, timestamp_: uint256)</text>
<text text-anchor="start" x="312.79" y="-1088.3" font-family="Times,serif" font-size="14.00"> &#160;&#160;&#160;&lt;&lt;event&gt;&gt; EmployeeUpdated(from_: address, oldAddress_: address, newAddress_: address, begginingWorkDay_: uint256, endWorkDay_: uint256, employerAddress_: address, state_: State, timestamp_: uint256)</text>
<text text-anchor="start" x="312.79" y="-1071.5" font-family="Times,serif" font-size="14.00"> &#160;&#160;&#160;&lt;&lt;modifier&gt;&gt; onlyAdmin()</text>
<text text-anchor="start" x="312.79" y="-1054.7" font-family="Times,serif" font-size="14.00"> &#160;&#160;&#160;&lt;&lt;modifier&gt;&gt; employeeNotAddedYet(_address: address)</text>
<text text-anchor="start" x="312.79" y="-1037.9" font-family="Times,serif" font-size="14.00"> &#160;&#160;&#160;&lt;&lt;modifier&gt;&gt; employeeAddedYet(_address: address)</text>
<text text-anchor="start" x="312.79" y="-1021.1" font-family="Times,serif" font-size="14.00"> &#160;&#160;&#160;&lt;&lt;modifier&gt;&gt; employerAddedYet(_address: address)</text>
<text text-anchor="start" x="312.79" y="-1004.3" font-family="Times,serif" font-size="14.00"> &#160;&#160;&#160;&lt;&lt;modifier&gt;&gt; validWorkday(_beggining: uint256, _end: uint256)</text>
<text text-anchor="start" x="312.79" y="-987.5" font-family="Times,serif" font-size="14.00"> &#160;&#160;&#160;constructor(_adm: address, _employer: address, _util: address)</text>
<text text-anchor="start" x="312.79" y="-970.7" font-family="Times,serif" font-size="14.00"> &#160;&#160;&#160;addEmployee(_address: address, _name: string, _taxId: uint256, _begginingWorkDay: uint256, _endWorkDay: uint256, _employerAddress: address) &lt;&lt;onlyAdmin, employerAddedYet, employeeNotAddedYet, validWorkday&gt;&gt;</text>
<text text-anchor="start" x="312.79" y="-953.9" font-family="Times,serif" font-size="14.00"> &#160;&#160;&#160;updateEmployee(_addressKey: address, _address: address, _taxId: uint256, _name: string, _begginingWorkDay: uint256, _endWorkDay: uint256, _state: State, _employerAddress: address) &lt;&lt;onlyAdmin, employerAddedYet, employeeAddedYet, validWorkday&gt;&gt;</text>
<text text-anchor="start" x="312.79" y="-937.1" font-family="Times,serif" font-size="14.00"> &#160;&#160;&#160;getEmployeeById(_id: uint256): Employee &lt;&lt;onlyAdmin&gt;&gt;</text>
<text text-anchor="start" x="312.79" y="-920.3" font-family="Times,serif" font-size="14.00"> &#160;&#160;&#160;getEmployeeByAddress(_address: address): Employee &lt;&lt;onlyAdmin&gt;&gt;</text>
<text text-anchor="start" x="312.79" y="-903.5" font-family="Times,serif" font-size="14.00"> &#160;&#160;&#160;getAllEmployees(): Employee[] &lt;&lt;onlyAdmin&gt;&gt;</text>
<text text-anchor="start" x="312.79" y="-886.7" font-family="Times,serif" font-size="14.00"> &#160;&#160;&#160;checkIfEmployeeExists(_address: address): bool &lt;&lt;onlyAdmin&gt;&gt;</text>
<text text-anchor="start" x="312.79" y="-869.9" font-family="Times,serif" font-size="14.00"> &#160;&#160;&#160;getEmployerContract(): (_empContract: address) &lt;&lt;onlyAdmin&gt;&gt;</text>
</g>
<!-- 4&#45;&gt;3 -->
<g id="edge8" class="edge">
<title>4&#45;&gt;3</title>
<path fill="none" stroke="black" d="M1601.84,-1396.98C1586.46,-1371.59 1567.37,-1345.75 1545.49,-1325.4 1534.89,-1315.54 1523.82,-1305.95 1512.38,-1296.65"/>
<polygon fill="black" stroke="black" points="1512.06,-1296.4 1504.87,-1295.78 1502.68,-1288.91 1509.86,-1289.53 1512.06,-1296.4"/>
</g>
<!-- 5 -->
<g id="node5" class="node">
<title>5</title>
<polygon fill="#f2f2f2" stroke="black" points="962.88,-502.3 962.88,-602.3 1158.1,-602.3 1158.1,-502.3 962.88,-502.3"/>
<text text-anchor="middle" x="1060.49" y="-585.7" font-family="Times,serif" font-size="14.00">&lt;&lt;Enum&gt;&gt;</text>
<text text-anchor="middle" x="1060.49" y="-568.9" font-family="Times,serif" font-size="14.00">State</text>
<text text-anchor="middle" x="1060.49" y="-552.1" font-family="Times,serif" font-size="14.00">contracts/EmployeeContract.sol</text>
<polyline fill="none" stroke="black" points="962.88,-543.9 1158.1,-543.9 "/>
<text text-anchor="start" x="970.88" y="-527.3" font-family="Times,serif" font-size="14.00">Inactive: 0</text>
<text text-anchor="start" x="970.88" y="-510.5" font-family="Times,serif" font-size="14.00">Active: 1</text>
</g>
<!-- 5&#45;&gt;3 -->
<g id="edge7" class="edge">
<title>5&#45;&gt;3</title>
<path fill="none" stroke="black" d="M1060.49,-602.31C1060.49,-659.34 1060.49,-757.48 1060.49,-849.54"/>
<polygon fill="black" stroke="black" points="1060.49,-849.61 1064.49,-855.61 1060.49,-861.61 1056.49,-855.61 1060.49,-849.61"/>
</g>
<!-- 3&#45;&gt;2 -->
<g id="edge13" class="edge">
<title>3&#45;&gt;2</title>
<path fill="none" stroke="black" stroke-dasharray="5,2" d="M1720.57,-1289.06C1730.87,-1300.54 1740.54,-1312.65 1749.49,-1325.4 1793.43,-1388.01 1781.16,-1599.98 1749.49,-1669.6 1740.04,-1690.38 1724.55,-1708.78 1707.57,-1724.32"/>
<polygon fill="black" stroke="black" points="1704.89,-1722.02 1699.69,-1731.25 1709.51,-1727.27 1704.89,-1722.02"/>
</g>
<!-- 3&#45;&gt;0 -->
<g id="edge9" class="edge">
<title>3&#45;&gt;0</title>
<path fill="none" stroke="black" d="M1748.26,-1289.05C1758.65,-1300.54 1768.42,-1312.65 1777.49,-1325.4 1846.12,-1421.9 1783.86,-1746.81 1740.49,-1857 1736.91,-1866.09 1732.9,-1875.23 1728.58,-1884.32"/>
<polygon fill="black" stroke="black" points="1725.39,-1882.86 1724.15,-1893.39 1731.68,-1885.93 1725.39,-1882.86"/>
</g>
<!-- 3&#45;&gt;4 -->
<g id="edge12" class="edge">
<title>3&#45;&gt;4</title>
<path fill="none" stroke="black" d="M1484.69,-1288.91C1499.58,-1300.61 1513.92,-1312.78 1527.49,-1325.4 1546.89,-1343.44 1564.1,-1365.8 1578.94,-1388.34"/>
<polygon fill="black" stroke="black" points="1576.15,-1390.48 1584.51,-1396.98 1582.03,-1386.68 1576.15,-1390.48"/>
</g>
<!-- 6 -->
<g id="node8" class="node">
<title>6</title>
<polygon fill="#f2f2f2" stroke="black" points="319.4,-1325.9 319.4,-1669.1 1291.58,-1669.1 1291.58,-1325.9 319.4,-1325.9"/>
<text text-anchor="middle" x="805.49" y="-1652.5" font-family="Times,serif" font-size="14.00">EmployerContract</text>
<text text-anchor="middle" x="805.49" y="-1635.7" font-family="Times,serif" font-size="14.00">contracts/EmployerContract.sol</text>
<polyline fill="none" stroke="black" points="319.4,-1627.5 1291.58,-1627.5 "/>
<text text-anchor="start" x="327.4" y="-1610.9" font-family="Times,serif" font-size="14.00">Private:</text>
<text text-anchor="start" x="327.4" y="-1594.1" font-family="Times,serif" font-size="14.00"> &#160;&#160;admin: AdministratorContract</text>
<text text-anchor="start" x="327.4" y="-1577.3" font-family="Times,serif" font-size="14.00"> &#160;&#160;employers: mapping(uint256=&gt;Employer)</text>
<text text-anchor="start" x="327.4" y="-1560.5" font-family="Times,serif" font-size="14.00"> &#160;&#160;addsEmployers: address[]</text>
<polyline fill="none" stroke="black" points="319.4,-1552.3 1291.58,-1552.3 "/>
<text text-anchor="start" x="327.4" y="-1535.7" font-family="Times,serif" font-size="14.00">Public:</text>
<text text-anchor="start" x="327.4" y="-1518.9" font-family="Times,serif" font-size="14.00"> &#160;&#160;&#160;&lt;&lt;event&gt;&gt; EmployerAdded(from_: address, address_: address, name_: string, taxId_: uint256, legalAddress_: string, timestamp_: uint256)</text>
<text text-anchor="start" x="327.4" y="-1502.1" font-family="Times,serif" font-size="14.00"> &#160;&#160;&#160;&lt;&lt;event&gt;&gt; EmployerUpdated(from_: address, oldAddress_: address, newAddress_: address, name_: string, taxId_: uint256, legaAddress_: string, timestamp_: uint256)</text>
<text text-anchor="start" x="327.4" y="-1485.3" font-family="Times,serif" font-size="14.00"> &#160;&#160;&#160;&lt;&lt;modifier&gt;&gt; onlyAdmin()</text>
<text text-anchor="start" x="327.4" y="-1468.5" font-family="Times,serif" font-size="14.00"> &#160;&#160;&#160;&lt;&lt;modifier&gt;&gt; employerNotAddedYet(_address: address)</text>
<text text-anchor="start" x="327.4" y="-1451.7" font-family="Times,serif" font-size="14.00"> &#160;&#160;&#160;&lt;&lt;modifier&gt;&gt; employerAddedYet(_address: address)</text>
<text text-anchor="start" x="327.4" y="-1434.9" font-family="Times,serif" font-size="14.00"> &#160;&#160;&#160;constructor(_adm: address)</text>
<text text-anchor="start" x="327.4" y="-1418.1" font-family="Times,serif" font-size="14.00"> &#160;&#160;&#160;addEmployer(_address: address, _taxId: uint256, _name: string, _legalAddress: string) &lt;&lt;onlyAdmin, employerNotAddedYet&gt;&gt;</text>
<text text-anchor="start" x="327.4" y="-1401.3" font-family="Times,serif" font-size="14.00"> &#160;&#160;&#160;updateEmployer(_addressKey: address, _address: address, _taxId: uint256, _name: string, _legalAddress: string) &lt;&lt;onlyAdmin, employerAddedYet&gt;&gt;</text>
<text text-anchor="start" x="327.4" y="-1384.5" font-family="Times,serif" font-size="14.00"> &#160;&#160;&#160;getEmployerById(_id: uint256): Employer &lt;&lt;onlyAdmin&gt;&gt;</text>
<text text-anchor="start" x="327.4" y="-1367.7" font-family="Times,serif" font-size="14.00"> &#160;&#160;&#160;getEmployerByAddress(_address: address): Employer &lt;&lt;onlyAdmin&gt;&gt;</text>
<text text-anchor="start" x="327.4" y="-1350.9" font-family="Times,serif" font-size="14.00"> &#160;&#160;&#160;getAllEmployers(): Employer[] &lt;&lt;onlyAdmin&gt;&gt;</text>
<text text-anchor="start" x="327.4" y="-1334.1" font-family="Times,serif" font-size="14.00"> &#160;&#160;&#160;checkIfEmployerExists(_address: address): bool &lt;&lt;onlyAdmin&gt;&gt;</text>
</g>
<!-- 3&#45;&gt;6 -->
<g id="edge10" class="edge">
<title>3&#45;&gt;6</title>
<path fill="none" stroke="black" d="M931.31,-1289.17C925.65,-1298.49 920,-1307.81 914.39,-1317.04"/>
<polygon fill="black" stroke="black" points="911.23,-1315.51 909.04,-1325.87 917.22,-1319.14 911.23,-1315.51"/>
</g>
<!-- 11 -->
<g id="node12" class="node">
<title>11</title>
<polygon fill="#f2f2f2" stroke="black" points="0,-1447.5 0,-1547.5 300.98,-1547.5 300.98,-1447.5 0,-1447.5"/>
<text text-anchor="middle" x="150.49" y="-1530.9" font-family="Times,serif" font-size="14.00">UtilContract</text>
<text text-anchor="middle" x="150.49" y="-1514.1" font-family="Times,serif" font-size="14.00">contracts/UtilContract.sol</text>
<polyline fill="none" stroke="black" points="0,-1505.9 300.98,-1505.9 "/>
<text text-anchor="start" x="8" y="-1489.3" font-family="Times,serif" font-size="14.00">Public:</text>
<text text-anchor="start" x="8" y="-1472.5" font-family="Times,serif" font-size="14.00"> &#160;&#160;&#160;getDate(timestamp: uint): (yearMonthDay: uint)</text>
<text text-anchor="start" x="8" y="-1455.7" font-family="Times,serif" font-size="14.00"> &#160;&#160;&#160;validateTime(_time: uint256): bool</text>
</g>
<!-- 3&#45;&gt;11 -->
<g id="edge11" class="edge">
<title>3&#45;&gt;11</title>
<path fill="none" stroke="black" d="M371.79,-1289.1C350.77,-1300.63 330.28,-1312.73 310.49,-1325.4 263.69,-1355.38 221.26,-1402.12 191.87,-1439.17"/>
<polygon fill="black" stroke="black" points="188.84,-1437.37 185.43,-1447.4 194.35,-1441.68 188.84,-1437.37"/>
</g>
<!-- 7 -->
<g id="node7" class="node">
<title>7</title>
<polygon fill="#f2f2f2" stroke="black" points="708.66,-1706.1 708.66,-1856.5 902.33,-1856.5 902.33,-1706.1 708.66,-1706.1"/>
<text text-anchor="middle" x="805.49" y="-1839.9" font-family="Times,serif" font-size="14.00">&lt;&lt;Struct&gt;&gt;</text>
<text text-anchor="middle" x="805.49" y="-1823.1" font-family="Times,serif" font-size="14.00">Employer</text>
<text text-anchor="middle" x="805.49" y="-1806.3" font-family="Times,serif" font-size="14.00">contracts/EmployerContract.sol</text>
<polyline fill="none" stroke="black" points="708.66,-1798.1 902.33,-1798.1 "/>
<text text-anchor="start" x="716.66" y="-1781.5" font-family="Times,serif" font-size="14.00">idEmployer: uint256</text>
<text text-anchor="start" x="716.66" y="-1764.7" font-family="Times,serif" font-size="14.00">employerAddress: address</text>
<text text-anchor="start" x="716.66" y="-1747.9" font-family="Times,serif" font-size="14.00">taxId: uint256</text>
<text text-anchor="start" x="716.66" y="-1731.1" font-family="Times,serif" font-size="14.00">name: string</text>
<text text-anchor="start" x="716.66" y="-1714.3" font-family="Times,serif" font-size="14.00">legalAddress: string</text>
</g>
<!-- 7&#45;&gt;6 -->
<g id="edge14" class="edge">
<title>7&#45;&gt;6</title>
<path fill="none" stroke="black" d="M811.52,-1706.01C811.7,-1698.13 811.85,-1689.89 811.97,-1681.43"/>
<polygon fill="black" stroke="black" points="811.97,-1681.33 808.04,-1675.28 812.1,-1669.33 816.04,-1675.37 811.97,-1681.33"/>
</g>
<!-- 6&#45;&gt;0 -->
<g id="edge15" class="edge">
<title>6&#45;&gt;0</title>
<path fill="none" stroke="black" d="M693.81,-1669.49C666.64,-1733.7 656.24,-1803.92 699.49,-1857 760.25,-1931.57 959.9,-1977.78 1158.04,-2005.96"/>
<polygon fill="black" stroke="black" points="1157.69,-2009.44 1168.08,-2007.37 1158.66,-2002.51 1157.69,-2009.44"/>
</g>
<!-- 6&#45;&gt;7 -->
<g id="edge16" class="edge">
<title>6&#45;&gt;7</title>
<path fill="none" stroke="black" d="M798.88,-1669.33C798.96,-1678.37 799.09,-1687.23 799.25,-1695.77"/>
<polygon fill="black" stroke="black" points="795.75,-1696.08 799.46,-1706.01 802.75,-1695.94 795.75,-1696.08"/>
</g>
<!-- 9 -->
<g id="node9" class="node">
<title>9</title>
<polygon fill="#f2f2f2" stroke="black" points="1872.3,-1008.5 1872.3,-1142.1 2028.68,-1142.1 2028.68,-1008.5 1872.3,-1008.5"/>
<text text-anchor="middle" x="1950.49" y="-1125.5" font-family="Times,serif" font-size="14.00">&lt;&lt;Struct&gt;&gt;</text>
<text text-anchor="middle" x="1950.49" y="-1108.7" font-family="Times,serif" font-size="14.00">EmployeeRecord</text>
<text text-anchor="middle" x="1950.49" y="-1091.9" font-family="Times,serif" font-size="14.00">contracts/PontoBlock.sol</text>
<polyline fill="none" stroke="black" points="1872.3,-1083.7 2028.68,-1083.7 "/>
<text text-anchor="start" x="1880.3" y="-1067.1" font-family="Times,serif" font-size="14.00">startWork: uint256</text>
<text text-anchor="start" x="1880.3" y="-1050.3" font-family="Times,serif" font-size="14.00">endWork: uint256</text>
<text text-anchor="start" x="1880.3" y="-1033.5" font-family="Times,serif" font-size="14.00">breakStartTime: uint256</text>
<text text-anchor="start" x="1880.3" y="-1016.7" font-family="Times,serif" font-size="14.00">breakEndTime: uint256</text>
</g>
<!-- 8 -->
<g id="node10" class="node">
<title>8</title>
<polygon fill="#f2f2f2" stroke="black" points="1288.84,-279.9 1288.84,-824.7 1956.15,-824.7 1956.15,-279.9 1288.84,-279.9"/>
<text text-anchor="middle" x="1622.49" y="-808.1" font-family="Times,serif" font-size="14.00">PontoBlock</text>
<text text-anchor="middle" x="1622.49" y="-791.3" font-family="Times,serif" font-size="14.00">contracts/PontoBlock.sol</text>
<polyline fill="none" stroke="black" points="1288.84,-783.1 1956.15,-783.1 "/>
<text text-anchor="start" x="1296.84" y="-766.5" font-family="Times,serif" font-size="14.00">Private:</text>
<text text-anchor="start" x="1296.84" y="-749.7" font-family="Times,serif" font-size="14.00"> &#160;&#160;employee: EmployeeContract</text>
<text text-anchor="start" x="1296.84" y="-732.9" font-family="Times,serif" font-size="14.00"> &#160;&#160;util: UtilContract</text>
<text text-anchor="start" x="1296.84" y="-716.1" font-family="Times,serif" font-size="14.00"> &#160;&#160;admin: AdministratorContract</text>
<text text-anchor="start" x="1296.84" y="-699.3" font-family="Times,serif" font-size="14.00"> &#160;&#160;timeZone: int</text>
<text text-anchor="start" x="1296.84" y="-682.5" font-family="Times,serif" font-size="14.00"> &#160;&#160;oneHour: int</text>
<text text-anchor="start" x="1296.84" y="-665.7" font-family="Times,serif" font-size="14.00"> &#160;&#160;owner: address</text>
<text text-anchor="start" x="1296.84" y="-648.9" font-family="Times,serif" font-size="14.00"> &#160;&#160;creationDate: uint</text>
<text text-anchor="start" x="1296.84" y="-632.1" font-family="Times,serif" font-size="14.00"> &#160;&#160;employeeRecords: mapping(address=&gt;mapping(uint256=&gt;EmployeeRecord))</text>
<polyline fill="none" stroke="black" points="1288.84,-623.9 1956.15,-623.9 "/>
<text text-anchor="start" x="1296.84" y="-607.3" font-family="Times,serif" font-size="14.00">Public:</text>
<text text-anchor="start" x="1296.84" y="-590.5" font-family="Times,serif" font-size="14.00"> &#160;&#160;&#160;&lt;&lt;event&gt;&gt; StartWorkRegistered(address_: address, startWork_: uint256, timestamp_: uint256)</text>
<text text-anchor="start" x="1296.84" y="-573.7" font-family="Times,serif" font-size="14.00"> &#160;&#160;&#160;&lt;&lt;event&gt;&gt; EndWorkRegistered(address_: address, endWork_: uint256, timestamp_: uint256)</text>
<text text-anchor="start" x="1296.84" y="-556.9" font-family="Times,serif" font-size="14.00"> &#160;&#160;&#160;&lt;&lt;event&gt;&gt; BreakStartWorkRegistered(address_: address, breakStartWork_: uint256, timestamp_: uint256)</text>
<text text-anchor="start" x="1296.84" y="-540.1" font-family="Times,serif" font-size="14.00"> &#160;&#160;&#160;&lt;&lt;event&gt;&gt; BreakEndWorkRegistered(address_: address, breakEndtWork_: uint256, timestamp_: uint256)</text>
<text text-anchor="start" x="1296.84" y="-523.3" font-family="Times,serif" font-size="14.00"> &#160;&#160;&#160;&lt;&lt;modifier&gt;&gt; onlyOwner()</text>
<text text-anchor="start" x="1296.84" y="-506.5" font-family="Times,serif" font-size="14.00"> &#160;&#160;&#160;&lt;&lt;modifier&gt;&gt; onlyAdmin()</text>
<text text-anchor="start" x="1296.84" y="-489.7" font-family="Times,serif" font-size="14.00"> &#160;&#160;&#160;&lt;&lt;modifier&gt;&gt; employeeAddedYet(_address: address)</text>
<text text-anchor="start" x="1296.84" y="-472.9" font-family="Times,serif" font-size="14.00"> &#160;&#160;&#160;&lt;&lt;modifier&gt;&gt; activeEmployee()</text>
<text text-anchor="start" x="1296.84" y="-456.1" font-family="Times,serif" font-size="14.00"> &#160;&#160;&#160;constructor(_emp: address, _util: address, _adm: address, _timeZone: int)</text>
<text text-anchor="start" x="1296.84" y="-439.3" font-family="Times,serif" font-size="14.00"> &#160;&#160;&#160;startWork() &lt;&lt;employeeAddedYet, activeEmployee&gt;&gt;</text>
<text text-anchor="start" x="1296.84" y="-422.5" font-family="Times,serif" font-size="14.00"> &#160;&#160;&#160;endWork() &lt;&lt;employeeAddedYet, activeEmployee&gt;&gt;</text>
<text text-anchor="start" x="1296.84" y="-405.7" font-family="Times,serif" font-size="14.00"> &#160;&#160;&#160;breakStartTime() &lt;&lt;employeeAddedYet, activeEmployee&gt;&gt;</text>
<text text-anchor="start" x="1296.84" y="-388.9" font-family="Times,serif" font-size="14.00"> &#160;&#160;&#160;breakEndTime() &lt;&lt;employeeAddedYet, activeEmployee&gt;&gt;</text>
<text text-anchor="start" x="1296.84" y="-372.1" font-family="Times,serif" font-size="14.00"> &#160;&#160;&#160;getCreationDateContract(): uint &lt;&lt;onlyAdmin&gt;&gt;</text>
<text text-anchor="start" x="1296.84" y="-355.3" font-family="Times,serif" font-size="14.00"> &#160;&#160;&#160;getEmployeeRecords(_address: address, _date: uint256): EmployeeRecord &lt;&lt;onlyAdmin, employeeAddedYet&gt;&gt;</text>
<text text-anchor="start" x="1296.84" y="-338.5" font-family="Times,serif" font-size="14.00"> &#160;&#160;&#160;getMoment(): uint256</text>
<text text-anchor="start" x="1296.84" y="-321.7" font-family="Times,serif" font-size="14.00"> &#160;&#160;&#160;changeOwner(_newOwner: address) &lt;&lt;onlyOwner&gt;&gt;</text>
<text text-anchor="start" x="1296.84" y="-304.9" font-family="Times,serif" font-size="14.00"> &#160;&#160;&#160;getOwner(): address &lt;&lt;onlyAdmin&gt;&gt;</text>
<text text-anchor="start" x="1296.84" y="-288.1" font-family="Times,serif" font-size="14.00"> &#160;&#160;&#160;getTimeZone(): int</text>
</g>
<!-- 9&#45;&gt;8 -->
<g id="edge17" class="edge">
<title>9&#45;&gt;8</title>
<path fill="none" stroke="black" d="M1934.57,-1008.4C1919.29,-965.23 1895.13,-908.29 1867.49,-861.2 1862.41,-852.54 1857.11,-843.84 1851.65,-835.14"/>
<polygon fill="black" stroke="black" points="1851.6,-835.05 1845.01,-832.13 1845.17,-824.93 1851.76,-827.85 1851.6,-835.05"/>
</g>
<!-- 8&#45;&gt;0 -->
<g id="edge20" class="edge">
<title>8&#45;&gt;0</title>
<path fill="none" stroke="black" d="M1812.77,-825.04C1817.58,-837.01 1821.86,-849.09 1825.49,-861.2 1889.16,-1073.43 1865.16,-1654.82 1774.49,-1857 1770.33,-1866.28 1765.61,-1875.5 1760.46,-1884.59"/>
<polygon fill="black" stroke="black" points="1757.42,-1882.85 1755.41,-1893.25 1763.47,-1886.38 1757.42,-1882.85"/>
</g>
<!-- 8&#45;&gt;3 -->
<g id="edge18" class="edge">
<title>8&#45;&gt;3</title>
<path fill="none" stroke="black" d="M1329.56,-824.86C1318.95,-834.7 1308.36,-844.52 1297.85,-854.26"/>
<polygon fill="black" stroke="black" points="1295.17,-851.97 1290.22,-861.34 1299.93,-857.1 1295.17,-851.97"/>
</g>
<!-- 8&#45;&gt;9 -->
<g id="edge21" class="edge">
<title>8&#45;&gt;9</title>
<path fill="none" stroke="black" stroke-dasharray="5,2" d="M1827.17,-824.93C1834.94,-837.03 1842.42,-849.15 1849.49,-861.2 1875.19,-904.98 1897.87,-957.27 1915.36,-999.1"/>
<polygon fill="black" stroke="black" points="1912.16,-1000.52 1919.24,-1008.4 1918.62,-997.83 1912.16,-1000.52"/>
</g>
<!-- 8&#45;&gt;11 -->
<g id="edge19" class="edge">
<title>8&#45;&gt;11</title>
<path fill="none" stroke="black" d="M1288.81,-777.28C1249.17,-796.39 1208.28,-813.03 1167.49,-825.2 1074.57,-852.92 370.04,-799.19 295.49,-861.2 273.01,-879.9 192.27,-1282.76 162.03,-1437.08"/>
<polygon fill="black" stroke="black" points="158.51,-1436.83 160.03,-1447.32 165.38,-1438.18 158.51,-1436.83"/>
</g>
<!-- 10 -->
<g id="node11" class="node">
<title>10</title>
<polygon fill="#f2f2f2" stroke="black" points="914.49,-0.5 914.49,-242.9 2330.5,-242.9 2330.5,-0.5 914.49,-0.5"/>
<text text-anchor="middle" x="1622.49" y="-226.3" font-family="Times,serif" font-size="14.00">PontoBlockReports</text>
<text text-anchor="middle" x="1622.49" y="-209.5" font-family="Times,serif" font-size="14.00">contracts/PontoBlockReports.sol</text>
<polyline fill="none" stroke="black" points="914.49,-201.3 2330.5,-201.3 "/>
<text text-anchor="start" x="922.49" y="-184.7" font-family="Times,serif" font-size="14.00">Private:</text>
<text text-anchor="start" x="922.49" y="-167.9" font-family="Times,serif" font-size="14.00"> &#160;&#160;employee: EmployeeContract</text>
<text text-anchor="start" x="922.49" y="-151.1" font-family="Times,serif" font-size="14.00"> &#160;&#160;pontoBlock: PontoBlock</text>
<text text-anchor="start" x="922.49" y="-134.3" font-family="Times,serif" font-size="14.00"> &#160;&#160;util: UtilContract</text>
<text text-anchor="start" x="922.49" y="-117.5" font-family="Times,serif" font-size="14.00"> &#160;&#160;admin: AdministratorContract</text>
<polyline fill="none" stroke="black" points="914.49,-109.3 2330.5,-109.3 "/>
<text text-anchor="start" x="922.49" y="-92.7" font-family="Times,serif" font-size="14.00">Public:</text>
<text text-anchor="start" x="922.49" y="-75.9" font-family="Times,serif" font-size="14.00"> &#160;&#160;&#160;constructor(_emp: address, _ponto: address, _util: address, _adm: address)</text>
<text text-anchor="start" x="922.49" y="-59.1" font-family="Times,serif" font-size="14.00"> &#160;&#160;&#160;getWorkTimesFromEmployeeAtDate(_employee: address, _date: uint256): (_startWork: uint256, _endWork: uint256, _breakStartTime: uint256, _breakEndTime: uint256)</text>
<text text-anchor="start" x="922.49" y="-42.3" font-family="Times,serif" font-size="14.00"> &#160;&#160;&#160;getWorkTimeFromEmployeeBetweenTwoDates(_employee: address, _startDate: uint256, _endDate: uint256): (_date: uint256[], _startWork: uint256[], _endWork: uint256[], _breakStartTime: uint256[], _breakEndTime: uint256[])</text>
<text text-anchor="start" x="922.49" y="-25.5" font-family="Times,serif" font-size="14.00"> &#160;&#160;&#160;getWorkTimesForAllEmployeesAtDate(_date: uint256): (_empAddress: address[], _startWork: uint256[], _endWork: uint256[], _breakStartTime: uint256[], _breakEndTime: uint256[])</text>
<text text-anchor="start" x="922.49" y="-8.7" font-family="Times,serif" font-size="14.00"> &#160;&#160;&#160;getWorkTimesForAllEmployeesBetweenTwoDates(_startDate: uint256, _endDate: uint256): (_date: uint256[], _empAddress: address[][], _startWork: uint256[][], _endWork: uint256[][], _breakStartTime: uint256[][], _breakEndTime: uint256[][])</text>
</g>
<!-- 10&#45;&gt;0 -->
<g id="edge25" class="edge">
<title>10&#45;&gt;0</title>
<path fill="none" stroke="black" d="M1966.3,-243.04C1978.15,-254.11 1988.98,-266.2 1998.49,-279.4 2205.57,-566.79 2056.49,-720.07 2056.49,-1074.3 2056.49,-1074.3 2056.49,-1074.3 2056.49,-1498.5 2056.49,-1652.27 1950.37,-1788.15 1843.08,-1886.24"/>
<polygon fill="black" stroke="black" points="1840.42,-1883.93 1835.36,-1893.24 1845.12,-1889.12 1840.42,-1883.93"/>
</g>
<!-- 10&#45;&gt;3 -->
<g id="edge22" class="edge">
<title>10&#45;&gt;3</title>
<path fill="none" stroke="black" d="M1314.68,-242.95C1301.85,-254.09 1289.99,-266.21 1279.49,-279.4 1125.26,-473.14 1241.63,-588.93 1167.49,-825.2 1164.69,-834.12 1161.69,-843.15 1158.52,-852.22"/>
<polygon fill="black" stroke="black" points="1155.2,-851.1 1155.16,-861.69 1161.8,-853.44 1155.2,-851.1"/>
</g>
<!-- 10&#45;&gt;9 -->
<g id="edge26" class="edge">
<title>10&#45;&gt;9</title>
<path fill="none" stroke="black" stroke-dasharray="5,2" d="M1936.09,-242.96C1947.08,-254.06 1957,-266.18 1965.49,-279.4 2040.79,-396.59 1988.03,-823.09 1962.34,-998.33"/>
<polygon fill="black" stroke="black" points="1958.87,-997.85 1960.87,-1008.25 1965.79,-998.87 1958.87,-997.85"/>
</g>
<!-- 10&#45;&gt;8 -->
<g id="edge23" class="edge">
<title>10&#45;&gt;8</title>
<path fill="none" stroke="black" d="M1622.49,-242.94C1622.49,-251.67 1622.49,-260.66 1622.49,-269.83"/>
<polygon fill="black" stroke="black" points="1618.99,-269.85 1622.49,-279.85 1625.99,-269.85 1618.99,-269.85"/>
</g>
<!-- 10&#45;&gt;11 -->
<g id="edge24" class="edge">
<title>10&#45;&gt;11</title>
<path fill="none" stroke="black" d="M1040.29,-243C1010.52,-254.12 981.41,-266.23 953.49,-279.4 567.8,-461.34 391.61,-485.15 190.49,-861.2 88.95,-1051.06 118.79,-1319.88 138.86,-1437.52"/>
<polygon fill="black" stroke="black" points="135.42,-1438.17 140.58,-1447.42 142.31,-1436.97 135.42,-1438.17"/>
</g>
</g>
</svg>
