<?xml version="1.0" encoding="UTF-8" standalone="no"?>
<!DOCTYPE svg PUBLIC "-//W3C//DTD SVG 1.1//EN"
 "http://www.w3.org/Graphics/SVG/1.1/DTD/svg11.dtd">
<!-- Generated by graphviz version 5.0.0 (20220707.1540)
 -->
<!-- Title: UmlClassDiagram Pages: 1 -->
<svg width="1848pt" height="1775pt"
 viewBox="0.00 0.00 1848.43 1774.80" xmlns="http://www.w3.org/2000/svg" xmlns:xlink="http://www.w3.org/1999/xlink">
<g id="graph0" class="graph" transform="scale(1 1) rotate(0) translate(4 1770.8)">
<title>UmlClassDiagram</title>
<polygon fill="white" stroke="transparent" points="-4,4 -4,-1770.8 1844.43,-1770.8 1844.43,4 -4,4"/>
<!-- 1 -->
<g id="node1" class="node">
<title>1</title>
<polygon fill="#f2f2f2" stroke="black" points="1606.5,-1111.5 1606.5,-1261.9 1823.51,-1261.9 1823.51,-1111.5 1606.5,-1111.5"/>
<text text-anchor="middle" x="1715" y="-1245.3" font-family="Times,serif" font-size="14.00">&lt;&lt;Struct&gt;&gt;</text>
<text text-anchor="middle" x="1715" y="-1228.5" font-family="Times,serif" font-size="14.00">Administrator</text>
<text text-anchor="middle" x="1715" y="-1211.7" font-family="Times,serif" font-size="14.00">contracts/AdministratorContract.sol</text>
<polyline fill="none" stroke="black" points="1606.5,-1203.5 1823.51,-1203.5 "/>
<text text-anchor="start" x="1614.5" y="-1186.9" font-family="Times,serif" font-size="14.00">idAdministrator: uint256</text>
<text text-anchor="start" x="1614.5" y="-1170.1" font-family="Times,serif" font-size="14.00">administratorAddress: address</text>
<text text-anchor="start" x="1614.5" y="-1153.3" font-family="Times,serif" font-size="14.00">taxId: uint256</text>
<text text-anchor="start" x="1614.5" y="-1136.5" font-family="Times,serif" font-size="14.00">name: string</text>
<text text-anchor="start" x="1614.5" y="-1119.7" font-family="Times,serif" font-size="14.00">stateOf: State</text>
</g>
<!-- 2 -->
<g id="node2" class="node">
<title>2</title>
<polygon fill="#f2f2f2" stroke="black" points="1407.5,-1378.5 1407.5,-1478.5 1624.51,-1478.5 1624.51,-1378.5 1407.5,-1378.5"/>
<text text-anchor="middle" x="1516" y="-1461.9" font-family="Times,serif" font-size="14.00">&lt;&lt;Enum&gt;&gt;</text>
<text text-anchor="middle" x="1516" y="-1445.1" font-family="Times,serif" font-size="14.00">State</text>
<text text-anchor="middle" x="1516" y="-1428.3" font-family="Times,serif" font-size="14.00">contracts/AdministratorContract.sol</text>
<polyline fill="none" stroke="black" points="1407.5,-1420.1 1624.51,-1420.1 "/>
<text text-anchor="start" x="1415.5" y="-1403.5" font-family="Times,serif" font-size="14.00">Inactive: 0</text>
<text text-anchor="start" x="1415.5" y="-1386.7" font-family="Times,serif" font-size="14.00">Active: 1</text>
</g>
<!-- 1&#45;&gt;2 -->
<g id="edge1" class="edge">
<title>1&#45;&gt;2</title>
<path fill="none" stroke="black" stroke-dasharray="5,2" d="M1653.4,-1261.93C1624.46,-1296.8 1590.5,-1337.73 1563.58,-1370.17"/>
<polygon fill="black" stroke="black" points="1560.58,-1368.3 1556.89,-1378.23 1565.97,-1372.77 1560.58,-1368.3"/>
</g>
<!-- 0 -->
<g id="node3" class="node">
<title>0</title>
<polygon fill="#f2f2f2" stroke="black" points="1199.1,-1540.7 1199.1,-1766.3 1832.91,-1766.3 1832.91,-1540.7 1199.1,-1540.7"/>
<text text-anchor="middle" x="1516" y="-1749.7" font-family="Times,serif" font-size="14.00">AdministratorContract</text>
<text text-anchor="middle" x="1516" y="-1732.9" font-family="Times,serif" font-size="14.00">contracts/AdministratorContract.sol</text>
<polyline fill="none" stroke="black" points="1199.1,-1724.7 1832.91,-1724.7 "/>
<text text-anchor="start" x="1207.1" y="-1708.1" font-family="Times,serif" font-size="14.00">Private:</text>
<text text-anchor="start" x="1207.1" y="-1691.3" font-family="Times,serif" font-size="14.00"> &#160;&#160;administrators: mapping(uint256=&gt;Administrator)</text>
<text text-anchor="start" x="1207.1" y="-1674.5" font-family="Times,serif" font-size="14.00"> &#160;&#160;addsAdministrators: address[]</text>
<polyline fill="none" stroke="black" points="1199.1,-1666.3 1832.91,-1666.3 "/>
<text text-anchor="start" x="1207.1" y="-1649.7" font-family="Times,serif" font-size="14.00">Public:</text>
<text text-anchor="start" x="1207.1" y="-1632.9" font-family="Times,serif" font-size="14.00"> &#160;&#160;&#160;constructor(_taxId: uint256, _name: string)</text>
<text text-anchor="start" x="1207.1" y="-1616.1" font-family="Times,serif" font-size="14.00"> &#160;&#160;&#160;addAdministrator(_address: address, _name: string, _taxId: uint256)</text>
<text text-anchor="start" x="1207.1" y="-1599.3" font-family="Times,serif" font-size="14.00"> &#160;&#160;&#160;getAdministrator(_id: uint256): Administrator</text>
<text text-anchor="start" x="1207.1" y="-1582.5" font-family="Times,serif" font-size="14.00"> &#160;&#160;&#160;updateAdministrator(_addressKey: address, _address: address, _taxId: uint256, _name: string, _state: State)</text>
<text text-anchor="start" x="1207.1" y="-1565.7" font-family="Times,serif" font-size="14.00"> &#160;&#160;&#160;getAllAdministrators(): Administrator[]</text>
<text text-anchor="start" x="1207.1" y="-1548.9" font-family="Times,serif" font-size="14.00"> &#160;&#160;&#160;checkIfAdministratorExists(_address: address): bool</text>
</g>
<!-- 1&#45;&gt;0 -->
<g id="edge3" class="edge">
<title>1&#45;&gt;0</title>
<path fill="none" stroke="black" d="M1697.96,-1262.11C1685.09,-1328.3 1663.7,-1426.36 1625,-1504.2 1620.68,-1512.89 1615.79,-1521.55 1610.53,-1530.07"/>
<polygon fill="black" stroke="black" points="1610.4,-1530.27 1610.54,-1537.48 1603.94,-1540.38 1603.8,-1533.17 1610.4,-1530.27"/>
</g>
<!-- 2&#45;&gt;0 -->
<g id="edge2" class="edge">
<title>2&#45;&gt;0</title>
<path fill="none" stroke="black" d="M1510.29,-1478.71C1509.74,-1493.62 1509.4,-1510.71 1509.29,-1528.22"/>
<polygon fill="black" stroke="black" points="1509.29,-1528.39 1513.27,-1534.41 1509.25,-1540.39 1505.27,-1534.38 1509.29,-1528.39"/>
</g>
<!-- 0&#45;&gt;1 -->
<g id="edge4" class="edge">
<title>0&#45;&gt;1</title>
<path fill="none" stroke="black" d="M1621.87,-1540.38C1629.72,-1528.59 1636.93,-1516.43 1643,-1504.2 1679.81,-1430.17 1700.96,-1337.83 1710.69,-1272.03"/>
<polygon fill="black" stroke="black" points="1714.16,-1272.51 1712.1,-1262.11 1707.23,-1271.52 1714.16,-1272.51"/>
</g>
<!-- 0&#45;&gt;2 -->
<g id="edge5" class="edge">
<title>0&#45;&gt;2</title>
<path fill="none" stroke="black" stroke-dasharray="5,2" d="M1522.75,-1540.39C1522.75,-1522.6 1522.51,-1504.84 1522.05,-1488.9"/>
<polygon fill="black" stroke="black" points="1525.54,-1488.59 1521.71,-1478.71 1518.55,-1488.82 1525.54,-1488.59"/>
</g>
<!-- 4 -->
<g id="node4" class="node">
<title>4</title>
<polygon fill="#f2f2f2" stroke="black" points="1354.39,-1094.7 1354.39,-1278.7 1549.62,-1278.7 1549.62,-1094.7 1354.39,-1094.7"/>
<text text-anchor="middle" x="1452" y="-1262.1" font-family="Times,serif" font-size="14.00">&lt;&lt;Struct&gt;&gt;</text>
<text text-anchor="middle" x="1452" y="-1245.3" font-family="Times,serif" font-size="14.00">Employee</text>
<text text-anchor="middle" x="1452" y="-1228.5" font-family="Times,serif" font-size="14.00">contracts/EmployeeContract.sol</text>
<polyline fill="none" stroke="black" points="1354.39,-1220.3 1549.62,-1220.3 "/>
<text text-anchor="start" x="1362.39" y="-1203.7" font-family="Times,serif" font-size="14.00">idEmployee: uint256</text>
<text text-anchor="start" x="1362.39" y="-1186.9" font-family="Times,serif" font-size="14.00">employeeAddress: address</text>
<text text-anchor="start" x="1362.39" y="-1170.1" font-family="Times,serif" font-size="14.00">taxId: uint256</text>
<text text-anchor="start" x="1362.39" y="-1153.3" font-family="Times,serif" font-size="14.00">name: string</text>
<text text-anchor="start" x="1362.39" y="-1136.5" font-family="Times,serif" font-size="14.00">stateOf: State</text>
<text text-anchor="start" x="1362.39" y="-1119.7" font-family="Times,serif" font-size="14.00">employerId: uint256</text>
<text text-anchor="start" x="1362.39" y="-1102.9" font-family="Times,serif" font-size="14.00">employerAddress: address</text>
</g>
<!-- 4&#45;&gt;2 -->
<g id="edge6" class="edge">
<title>4&#45;&gt;2</title>
<path fill="none" stroke="black" stroke-dasharray="5,2" d="M1476.29,-1278.7C1484.32,-1308.79 1493.04,-1341.46 1500.26,-1368.51"/>
<polygon fill="black" stroke="black" points="1496.89,-1369.44 1502.85,-1378.2 1503.65,-1367.64 1496.89,-1369.44"/>
</g>
<!-- 3 -->
<g id="node6" class="node">
<title>3</title>
<polygon fill="#f2f2f2" stroke="black" points="937.58,-744.1 937.58,-1020.1 1840.43,-1020.1 1840.43,-744.1 937.58,-744.1"/>
<text text-anchor="middle" x="1389" y="-1003.5" font-family="Times,serif" font-size="14.00">EmployeeContract</text>
<text text-anchor="middle" x="1389" y="-986.7" font-family="Times,serif" font-size="14.00">contracts/EmployeeContract.sol</text>
<polyline fill="none" stroke="black" points="937.58,-978.5 1840.43,-978.5 "/>
<text text-anchor="start" x="945.58" y="-961.9" font-family="Times,serif" font-size="14.00">Private:</text>
<text text-anchor="start" x="945.58" y="-945.1" font-family="Times,serif" font-size="14.00"> &#160;&#160;employees: mapping(uint256=&gt;Employee)</text>
<text text-anchor="start" x="945.58" y="-928.3" font-family="Times,serif" font-size="14.00"> &#160;&#160;addsEmployees: address[]</text>
<text text-anchor="start" x="945.58" y="-911.5" font-family="Times,serif" font-size="14.00"> &#160;&#160;admin: AdministratorContract</text>
<text text-anchor="start" x="945.58" y="-894.7" font-family="Times,serif" font-size="14.00"> &#160;&#160;employer: EmployerContract</text>
<polyline fill="none" stroke="black" points="937.58,-886.5 1840.43,-886.5 "/>
<text text-anchor="start" x="945.58" y="-869.9" font-family="Times,serif" font-size="14.00">Public:</text>
<text text-anchor="start" x="945.58" y="-853.1" font-family="Times,serif" font-size="14.00"> &#160;&#160;&#160;constructor(_adm: address, _employer: address)</text>
<text text-anchor="start" x="945.58" y="-836.3" font-family="Times,serif" font-size="14.00"> &#160;&#160;&#160;addEmployee(_address: address, _name: string, _taxId: uint256, _employerId: uint256, _employerAddress: address)</text>
<text text-anchor="start" x="945.58" y="-819.5" font-family="Times,serif" font-size="14.00"> &#160;&#160;&#160;updateEmployee(_addressKey: address, _address: address, _taxId: uint256, _name: string, _state: State, _employerId: uint256, _employerAddress: address)</text>
<text text-anchor="start" x="945.58" y="-802.7" font-family="Times,serif" font-size="14.00"> &#160;&#160;&#160;getEmployeeById(_id: uint256): Employee</text>
<text text-anchor="start" x="945.58" y="-785.9" font-family="Times,serif" font-size="14.00"> &#160;&#160;&#160;getEmployeeByAddress(_address: address): Employee</text>
<text text-anchor="start" x="945.58" y="-769.1" font-family="Times,serif" font-size="14.00"> &#160;&#160;&#160;getAllEmployees(): Employee[]</text>
<text text-anchor="start" x="945.58" y="-752.3" font-family="Times,serif" font-size="14.00"> &#160;&#160;&#160;checkIfEmployeeExists(_address: address): bool</text>
</g>
<!-- 4&#45;&gt;3 -->
<g id="edge8" class="edge">
<title>4&#45;&gt;3</title>
<path fill="none" stroke="black" d="M1439.27,-1094.53C1435.51,-1074.77 1431.22,-1053.39 1426.77,-1032.06"/>
<polygon fill="black" stroke="black" points="1426.75,-1031.98 1421.6,-1026.93 1424.28,-1020.23 1429.43,-1025.28 1426.75,-1031.98"/>
</g>
<!-- 5 -->
<g id="node5" class="node">
<title>5</title>
<polygon fill="#f2f2f2" stroke="black" points="1228.39,-443.5 1228.39,-543.5 1423.62,-543.5 1423.62,-443.5 1228.39,-443.5"/>
<text text-anchor="middle" x="1326" y="-526.9" font-family="Times,serif" font-size="14.00">&lt;&lt;Enum&gt;&gt;</text>
<text text-anchor="middle" x="1326" y="-510.1" font-family="Times,serif" font-size="14.00">State</text>
<text text-anchor="middle" x="1326" y="-493.3" font-family="Times,serif" font-size="14.00">contracts/EmployeeContract.sol</text>
<polyline fill="none" stroke="black" points="1228.39,-485.1 1423.62,-485.1 "/>
<text text-anchor="start" x="1236.39" y="-468.5" font-family="Times,serif" font-size="14.00">Inactive: 0</text>
<text text-anchor="start" x="1236.39" y="-451.7" font-family="Times,serif" font-size="14.00">Active: 1</text>
</g>
<!-- 5&#45;&gt;3 -->
<g id="edge7" class="edge">
<title>5&#45;&gt;3</title>
<path fill="none" stroke="black" d="M1334.05,-543.86C1341.78,-591.29 1353.85,-665.39 1364.72,-732.07"/>
<polygon fill="black" stroke="black" points="1364.73,-732.15 1369.64,-737.43 1366.66,-744 1361.75,-738.72 1364.73,-732.15"/>
</g>
<!-- 3&#45;&gt;2 -->
<g id="edge12" class="edge">
<title>3&#45;&gt;2</title>
<path fill="none" stroke="black" stroke-dasharray="5,2" d="M1539.81,-1020.18C1547.32,-1031.84 1553.86,-1044.01 1559,-1056.6 1602.71,-1163.67 1580.3,-1203.13 1559,-1316.8 1555.75,-1334.16 1549.86,-1352.31 1543.46,-1368.76"/>
<polygon fill="black" stroke="black" points="1540.13,-1367.65 1539.64,-1378.23 1546.62,-1370.26 1540.13,-1367.65"/>
</g>
<!-- 3&#45;&gt;0 -->
<g id="edge10" class="edge">
<title>3&#45;&gt;0</title>
<path fill="none" stroke="black" d="M1350.9,-1020.3C1348.52,-1032.5 1346.49,-1044.73 1345,-1056.6 1330.68,-1171.35 1329.12,-1202.25 1345,-1316.8 1356.89,-1402.54 1358.51,-1427.18 1398,-1504.2 1402.83,-1513.61 1408.31,-1523 1414.19,-1532.23"/>
<polygon fill="black" stroke="black" points="1411.3,-1534.2 1419.71,-1540.64 1417.16,-1530.36 1411.3,-1534.2"/>
</g>
<!-- 3&#45;&gt;4 -->
<g id="edge9" class="edge">
<title>3&#45;&gt;4</title>
<path fill="none" stroke="black" d="M1410.83,-1020.23C1415.25,-1041.87 1419.94,-1063.9 1424.53,-1084.52"/>
<polygon fill="black" stroke="black" points="1421.17,-1085.53 1426.77,-1094.53 1428,-1084 1421.17,-1085.53"/>
</g>
<!-- 6 -->
<g id="node8" class="node">
<title>6</title>
<polygon fill="#f2f2f2" stroke="black" points="636.1,-1057.1 636.1,-1316.3 1297.9,-1316.3 1297.9,-1057.1 636.1,-1057.1"/>
<text text-anchor="middle" x="967" y="-1299.7" font-family="Times,serif" font-size="14.00">EmployerContract</text>
<text text-anchor="middle" x="967" y="-1282.9" font-family="Times,serif" font-size="14.00">contracts/EmployerContract.sol</text>
<polyline fill="none" stroke="black" points="636.1,-1274.7 1297.9,-1274.7 "/>
<text text-anchor="start" x="644.1" y="-1258.1" font-family="Times,serif" font-size="14.00">Private:</text>
<text text-anchor="start" x="644.1" y="-1241.3" font-family="Times,serif" font-size="14.00"> &#160;&#160;admin: AdministratorContract</text>
<text text-anchor="start" x="644.1" y="-1224.5" font-family="Times,serif" font-size="14.00"> &#160;&#160;employers: mapping(uint256=&gt;Employer)</text>
<text text-anchor="start" x="644.1" y="-1207.7" font-family="Times,serif" font-size="14.00"> &#160;&#160;addsEmployers: address[]</text>
<polyline fill="none" stroke="black" points="636.1,-1199.5 1297.9,-1199.5 "/>
<text text-anchor="start" x="644.1" y="-1182.9" font-family="Times,serif" font-size="14.00">Public:</text>
<text text-anchor="start" x="644.1" y="-1166.1" font-family="Times,serif" font-size="14.00"> &#160;&#160;&#160;constructor(_adm: address)</text>
<text text-anchor="start" x="644.1" y="-1149.3" font-family="Times,serif" font-size="14.00"> &#160;&#160;&#160;addEmployer(_address: address, _taxId: uint256, _name: string, _legalAddress: string)</text>
<text text-anchor="start" x="644.1" y="-1132.5" font-family="Times,serif" font-size="14.00"> &#160;&#160;&#160;updateEmployer(_addressKey: address, _address: address, _taxId: uint256, _name: string, _legalAddress: string)</text>
<text text-anchor="start" x="644.1" y="-1115.7" font-family="Times,serif" font-size="14.00"> &#160;&#160;&#160;getEmployerById(_id: uint256): Employer</text>
<text text-anchor="start" x="644.1" y="-1098.9" font-family="Times,serif" font-size="14.00"> &#160;&#160;&#160;getEmployerByAddress(_address: address): Employer</text>
<text text-anchor="start" x="644.1" y="-1082.1" font-family="Times,serif" font-size="14.00"> &#160;&#160;&#160;getAllEmployers(): Employer[]</text>
<text text-anchor="start" x="644.1" y="-1065.3" font-family="Times,serif" font-size="14.00"> &#160;&#160;&#160;checkIfEmployerExists(_address: address): bool</text>
</g>
<!-- 3&#45;&gt;6 -->
<g id="edge11" class="edge">
<title>3&#45;&gt;6</title>
<path fill="none" stroke="black" d="M1197.76,-1020.23C1183.54,-1030.43 1169.2,-1040.71 1155,-1050.89"/>
<polygon fill="black" stroke="black" points="1152.74,-1048.21 1146.66,-1056.88 1156.82,-1053.89 1152.74,-1048.21"/>
</g>
<!-- 7 -->
<g id="node7" class="node">
<title>7</title>
<polygon fill="#f2f2f2" stroke="black" points="870.17,-1353.3 870.17,-1503.7 1063.84,-1503.7 1063.84,-1353.3 870.17,-1353.3"/>
<text text-anchor="middle" x="967" y="-1487.1" font-family="Times,serif" font-size="14.00">&lt;&lt;Struct&gt;&gt;</text>
<text text-anchor="middle" x="967" y="-1470.3" font-family="Times,serif" font-size="14.00">Employer</text>
<text text-anchor="middle" x="967" y="-1453.5" font-family="Times,serif" font-size="14.00">contracts/EmployerContract.sol</text>
<polyline fill="none" stroke="black" points="870.17,-1445.3 1063.84,-1445.3 "/>
<text text-anchor="start" x="878.17" y="-1428.7" font-family="Times,serif" font-size="14.00">idEmployer: uint256</text>
<text text-anchor="start" x="878.17" y="-1411.9" font-family="Times,serif" font-size="14.00">employerAddress: address</text>
<text text-anchor="start" x="878.17" y="-1395.1" font-family="Times,serif" font-size="14.00">taxId: uint256</text>
<text text-anchor="start" x="878.17" y="-1378.3" font-family="Times,serif" font-size="14.00">name: string</text>
<text text-anchor="start" x="878.17" y="-1361.5" font-family="Times,serif" font-size="14.00">legalAddress: string</text>
</g>
<!-- 7&#45;&gt;6 -->
<g id="edge13" class="edge">
<title>7&#45;&gt;6</title>
<path fill="none" stroke="black" d="M973.3,-1353.1C973.47,-1345.12 973.59,-1336.82 973.66,-1328.38"/>
<polygon fill="black" stroke="black" points="973.66,-1328.37 969.7,-1322.35 973.74,-1316.37 977.7,-1322.4 973.66,-1328.37"/>
</g>
<!-- 6&#45;&gt;0 -->
<g id="edge14" class="edge">
<title>6&#45;&gt;0</title>
<path fill="none" stroke="black" d="M871.44,-1316.32C837.84,-1378.15 817.96,-1450.32 861,-1504.2 904.04,-1558.08 1047.15,-1593.83 1188.66,-1616.7"/>
<polygon fill="black" stroke="black" points="1188.42,-1620.2 1198.84,-1618.32 1189.52,-1613.29 1188.42,-1620.2"/>
</g>
<!-- 6&#45;&gt;7 -->
<g id="edge15" class="edge">
<title>6&#45;&gt;7</title>
<path fill="none" stroke="black" d="M960.27,-1316.37C960.3,-1325.4 960.39,-1334.36 960.52,-1343.04"/>
<polygon fill="black" stroke="black" points="957.02,-1343.16 960.71,-1353.1 964.02,-1343.04 957.02,-1343.16"/>
</g>
<!-- 9 -->
<g id="node9" class="node">
<title>9</title>
<polygon fill="#f2f2f2" stroke="black" points="635.82,-815.3 635.82,-948.9 792.19,-948.9 792.19,-815.3 635.82,-815.3"/>
<text text-anchor="middle" x="714" y="-932.3" font-family="Times,serif" font-size="14.00">&lt;&lt;Struct&gt;&gt;</text>
<text text-anchor="middle" x="714" y="-915.5" font-family="Times,serif" font-size="14.00">EmployeeRecord</text>
<text text-anchor="middle" x="714" y="-898.7" font-family="Times,serif" font-size="14.00">contracts/PontoBlock.sol</text>
<polyline fill="none" stroke="black" points="635.82,-890.5 792.19,-890.5 "/>
<text text-anchor="start" x="643.82" y="-873.9" font-family="Times,serif" font-size="14.00">startWork: uint256</text>
<text text-anchor="start" x="643.82" y="-857.1" font-family="Times,serif" font-size="14.00">endWork: uint256</text>
<text text-anchor="start" x="643.82" y="-840.3" font-family="Times,serif" font-size="14.00">breakStartTime: uint256</text>
<text text-anchor="start" x="643.82" y="-823.5" font-family="Times,serif" font-size="14.00">breakEndTime: uint256</text>
</g>
<!-- 8 -->
<g id="node10" class="node">
<title>8</title>
<polygon fill="#f2f2f2" stroke="black" points="475.83,-279.9 475.83,-707.1 940.18,-707.1 940.18,-279.9 475.83,-279.9"/>
<text text-anchor="middle" x="708" y="-690.5" font-family="Times,serif" font-size="14.00">PontoBlock</text>
<text text-anchor="middle" x="708" y="-673.7" font-family="Times,serif" font-size="14.00">contracts/PontoBlock.sol</text>
<polyline fill="none" stroke="black" points="475.83,-665.5 940.18,-665.5 "/>
<text text-anchor="start" x="483.83" y="-648.9" font-family="Times,serif" font-size="14.00">Private:</text>
<text text-anchor="start" x="483.83" y="-632.1" font-family="Times,serif" font-size="14.00"> &#160;&#160;timeZone: int</text>
<text text-anchor="start" x="483.83" y="-615.3" font-family="Times,serif" font-size="14.00"> &#160;&#160;oneHour: int</text>
<text text-anchor="start" x="483.83" y="-598.5" font-family="Times,serif" font-size="14.00"> &#160;&#160;owner: address</text>
<text text-anchor="start" x="483.83" y="-581.7" font-family="Times,serif" font-size="14.00"> &#160;&#160;creationDate: uint</text>
<text text-anchor="start" x="483.83" y="-564.9" font-family="Times,serif" font-size="14.00"> &#160;&#160;employeeRecords: mapping(address=&gt;mapping(uint256=&gt;EmployeeRecord))</text>
<text text-anchor="start" x="483.83" y="-548.1" font-family="Times,serif" font-size="14.00"> &#160;&#160;employee: EmployeeContract</text>
<text text-anchor="start" x="483.83" y="-531.3" font-family="Times,serif" font-size="14.00"> &#160;&#160;util: UtilContract</text>
<text text-anchor="start" x="483.83" y="-514.5" font-family="Times,serif" font-size="14.00"> &#160;&#160;admin: AdministratorContract</text>
<polyline fill="none" stroke="black" points="475.83,-506.3 940.18,-506.3 "/>
<text text-anchor="start" x="483.83" y="-489.7" font-family="Times,serif" font-size="14.00">Internal:</text>
<text text-anchor="start" x="483.83" y="-472.9" font-family="Times,serif" font-size="14.00"> &#160;&#160;&#160;getMoment(): uint256</text>
<text text-anchor="start" x="483.83" y="-456.1" font-family="Times,serif" font-size="14.00">Public:</text>
<text text-anchor="start" x="483.83" y="-439.3" font-family="Times,serif" font-size="14.00"> &#160;&#160;&#160;&lt;&lt;modifier&gt;&gt; onlyOwner()</text>
<text text-anchor="start" x="483.83" y="-422.5" font-family="Times,serif" font-size="14.00"> &#160;&#160;&#160;constructor(_emp: address, _util: address, _adm: address, _timeZone: int)</text>
<text text-anchor="start" x="483.83" y="-405.7" font-family="Times,serif" font-size="14.00"> &#160;&#160;&#160;startWork()</text>
<text text-anchor="start" x="483.83" y="-388.9" font-family="Times,serif" font-size="14.00"> &#160;&#160;&#160;endWork()</text>
<text text-anchor="start" x="483.83" y="-372.1" font-family="Times,serif" font-size="14.00"> &#160;&#160;&#160;breakStartTime()</text>
<text text-anchor="start" x="483.83" y="-355.3" font-family="Times,serif" font-size="14.00"> &#160;&#160;&#160;breakEndTime()</text>
<text text-anchor="start" x="483.83" y="-338.5" font-family="Times,serif" font-size="14.00"> &#160;&#160;&#160;getCreationDateContract(): uint</text>
<text text-anchor="start" x="483.83" y="-321.7" font-family="Times,serif" font-size="14.00"> &#160;&#160;&#160;getEmployeeRecords(_address: address, _date: uint256): EmployeeRecord</text>
<text text-anchor="start" x="483.83" y="-304.9" font-family="Times,serif" font-size="14.00"> &#160;&#160;&#160;changeOwner(_newOwner: address) &lt;&lt;onlyOwner&gt;&gt;</text>
<text text-anchor="start" x="483.83" y="-288.1" font-family="Times,serif" font-size="14.00"> &#160;&#160;&#160;getOwner(): address</text>
</g>
<!-- 9&#45;&gt;8 -->
<g id="edge16" class="edge">
<title>9&#45;&gt;8</title>
<path fill="none" stroke="black" d="M718.21,-815.26C718.56,-787.96 718.53,-754.53 718.17,-719.69"/>
<polygon fill="black" stroke="black" points="718.16,-719.31 714.09,-713.35 718.03,-707.31 722.09,-713.26 718.16,-719.31"/>
</g>
<!-- 8&#45;&gt;0 -->
<g id="edge19" class="edge">
<title>8&#45;&gt;0</title>
<path fill="none" stroke="black" d="M634.05,-707.1C631.3,-719.36 628.91,-731.59 627,-743.6 607.06,-869.41 575.63,-1200.24 627,-1316.8 676.79,-1429.76 722.34,-1447.52 832,-1504.2 941.59,-1560.84 1071.83,-1595.88 1189.1,-1617.54"/>
<polygon fill="black" stroke="black" points="1188.5,-1620.99 1198.96,-1619.34 1189.75,-1614.1 1188.5,-1620.99"/>
</g>
<!-- 8&#45;&gt;3 -->
<g id="edge17" class="edge">
<title>8&#45;&gt;3</title>
<path fill="none" stroke="black" d="M940.46,-626.46C1004.35,-662.73 1073.9,-702.22 1138.74,-739.03"/>
<polygon fill="black" stroke="black" points="1137.02,-742.07 1147.44,-743.97 1140.47,-735.99 1137.02,-742.07"/>
</g>
<!-- 8&#45;&gt;9 -->
<g id="edge20" class="edge">
<title>8&#45;&gt;9</title>
<path fill="none" stroke="black" stroke-dasharray="5,2" d="M704.59,-707.31C705.24,-742.27 706.18,-776.37 707.32,-804.98"/>
<polygon fill="black" stroke="black" points="703.84,-805.41 707.76,-815.26 710.83,-805.12 703.84,-805.41"/>
</g>
<!-- 11 -->
<g id="node12" class="node">
<title>11</title>
<polygon fill="#f2f2f2" stroke="black" points="279.51,-840.5 279.51,-923.7 580.5,-923.7 580.5,-840.5 279.51,-840.5"/>
<text text-anchor="middle" x="430" y="-907.1" font-family="Times,serif" font-size="14.00">UtilContract</text>
<text text-anchor="middle" x="430" y="-890.3" font-family="Times,serif" font-size="14.00">contracts/UtilContract.sol</text>
<polyline fill="none" stroke="black" points="279.51,-882.1 580.5,-882.1 "/>
<text text-anchor="start" x="287.51" y="-865.5" font-family="Times,serif" font-size="14.00">Public:</text>
<text text-anchor="start" x="287.51" y="-848.7" font-family="Times,serif" font-size="14.00"> &#160;&#160;&#160;getDate(timestamp: uint): (yearMonthDay: uint)</text>
</g>
<!-- 8&#45;&gt;11 -->
<g id="edge18" class="edge">
<title>8&#45;&gt;11</title>
<path fill="none" stroke="black" d="M554.98,-707.31C521.31,-754.12 488.76,-799.4 465.32,-831.99"/>
<polygon fill="black" stroke="black" points="462.25,-830.26 459.26,-840.42 467.94,-834.34 462.25,-830.26"/>
</g>
<!-- 10 -->
<g id="node11" class="node">
<title>10</title>
<polygon fill="#f2f2f2" stroke="black" points="0,-0.5 0,-242.9 1416.01,-242.9 1416.01,-0.5 0,-0.5"/>
<text text-anchor="middle" x="708" y="-226.3" font-family="Times,serif" font-size="14.00">PontoBlockReports</text>
<text text-anchor="middle" x="708" y="-209.5" font-family="Times,serif" font-size="14.00">contracts/PontoBlockReports.sol</text>
<polyline fill="none" stroke="black" points="0,-201.3 1416.01,-201.3 "/>
<text text-anchor="start" x="8" y="-184.7" font-family="Times,serif" font-size="14.00">Private:</text>
<text text-anchor="start" x="8" y="-167.9" font-family="Times,serif" font-size="14.00"> &#160;&#160;employee: EmployeeContract</text>
<text text-anchor="start" x="8" y="-151.1" font-family="Times,serif" font-size="14.00"> &#160;&#160;pontoBlock: PontoBlock</text>
<text text-anchor="start" x="8" y="-134.3" font-family="Times,serif" font-size="14.00"> &#160;&#160;util: UtilContract</text>
<text text-anchor="start" x="8" y="-117.5" font-family="Times,serif" font-size="14.00"> &#160;&#160;admin: AdministratorContract</text>
<polyline fill="none" stroke="black" points="0,-109.3 1416.01,-109.3 "/>
<text text-anchor="start" x="8" y="-92.7" font-family="Times,serif" font-size="14.00">Public:</text>
<text text-anchor="start" x="8" y="-75.9" font-family="Times,serif" font-size="14.00"> &#160;&#160;&#160;constructor(_emp: address, _ponto: address, _util: address, _adm: address)</text>
<text text-anchor="start" x="8" y="-59.1" font-family="Times,serif" font-size="14.00"> &#160;&#160;&#160;getWorkTimesFromEmployeeAtDate(_employee: address, _date: uint256): (_startWork: uint256, _endWork: uint256, _breakStartTime: uint256, _breakEndTime: uint256)</text>
<text text-anchor="start" x="8" y="-42.3" font-family="Times,serif" font-size="14.00"> &#160;&#160;&#160;getWorkTimeFromEmployeeBetweenTwoDates(_employee: address, _startDate: uint256, _endDate: uint256): (_date: uint256[], _startWork: uint256[], _endWork: uint256[], _breakStartTime: uint256[], _breakEndTime: uint256[])</text>
<text text-anchor="start" x="8" y="-25.5" font-family="Times,serif" font-size="14.00"> &#160;&#160;&#160;getWorkTimesForAllEmployeesAtDate(_date: uint256): (_empAddress: address[], _startWork: uint256[], _endWork: uint256[], _breakStartTime: uint256[], _breakEndTime: uint256[])</text>
<text text-anchor="start" x="8" y="-8.7" font-family="Times,serif" font-size="14.00"> &#160;&#160;&#160;getWorkTimesForAllEmployeesBetweenTwoDates(_startDate: uint256, _endDate: uint256): (_date: uint256[], _empAddress: address[][], _startWork: uint256[][], _endWork: uint256[][], _breakStartTime: uint256[][], _breakEndTime: uint256[][])</text>
</g>
<!-- 10&#45;&gt;0 -->
<g id="edge24" class="edge">
<title>10&#45;&gt;0</title>
<path fill="none" stroke="black" d="M427.55,-243.14C414.62,-254.27 402.63,-266.33 392,-279.4 218.78,-492.42 252,-606.53 252,-881.1 252,-881.1 252,-881.1 252,-1187.7 252,-1410.58 437.99,-1412.21 641,-1504.2 812.32,-1581.82 1019.2,-1619.14 1188.78,-1636.94"/>
<polygon fill="black" stroke="black" points="1188.57,-1640.43 1198.87,-1637.98 1189.28,-1633.47 1188.57,-1640.43"/>
</g>
<!-- 10&#45;&gt;3 -->
<g id="edge21" class="edge">
<title>10&#45;&gt;3</title>
<path fill="none" stroke="black" d="M1386.05,-243.01C1406.33,-254.14 1422.39,-266.25 1433,-279.4 1535.3,-406.16 1497.07,-600.97 1451.3,-734.36"/>
<polygon fill="black" stroke="black" points="1447.97,-733.26 1447.99,-743.86 1454.58,-735.56 1447.97,-733.26"/>
</g>
<!-- 10&#45;&gt;9 -->
<g id="edge25" class="edge">
<title>10&#45;&gt;9</title>
<path fill="none" stroke="black" stroke-dasharray="5,2" d="M923.4,-242.96C933.23,-254.22 941.92,-266.35 949,-279.4 1039.76,-446.67 1034.75,-537.7 949,-707.6 918.22,-768.59 854.77,-813.43 801.55,-842.23"/>
<polygon fill="black" stroke="black" points="799.62,-839.3 792.42,-847.07 802.9,-845.48 799.62,-839.3"/>
</g>
<!-- 10&#45;&gt;8 -->
<g id="edge22" class="edge">
<title>10&#45;&gt;8</title>
<path fill="none" stroke="black" d="M708,-243.02C708,-251.67 708,-260.54 708,-269.54"/>
<polygon fill="black" stroke="black" points="704.5,-269.75 708,-279.75 711.5,-269.75 704.5,-269.75"/>
</g>
<!-- 10&#45;&gt;11 -->
<g id="edge23" class="edge">
<title>10&#45;&gt;11</title>
<path fill="none" stroke="black" d="M494.04,-242.93C483.78,-254.21 474.61,-266.36 467,-279.4 362.57,-458.52 397.61,-720.75 418.8,-830.19"/>
<polygon fill="black" stroke="black" points="415.43,-831.16 420.81,-840.29 422.29,-829.8 415.43,-831.16"/>
</g>
</g>
</svg>
