<?xml version="1.0" encoding="UTF-8" standalone="no"?>
<!DOCTYPE svg PUBLIC "-//W3C//DTD SVG 1.1//EN"
 "http://www.w3.org/Graphics/SVG/1.1/DTD/svg11.dtd">
<!-- Generated by graphviz version 5.0.0 (20220707.1540)
 -->
<!-- Title: UmlClassDiagram Pages: 1 -->
<svg width="2128pt" height="1808pt"
 viewBox="0.00 0.00 2128.50 1808.40" xmlns="http://www.w3.org/2000/svg" xmlns:xlink="http://www.w3.org/1999/xlink">
<g id="graph0" class="graph" transform="scale(1 1) rotate(0) translate(4 1804.4)">
<title>UmlClassDiagram</title>
<polygon fill="white" stroke="transparent" points="-4,4 -4,-1804.4 2124.5,-1804.4 2124.5,4 -4,4"/>
<!-- 1 -->
<g id="node1" class="node">
<title>1</title>
<polygon fill="#f2f2f2" stroke="black" points="997.99,-1145.1 997.99,-1295.5 1215,-1295.5 1215,-1145.1 997.99,-1145.1"/>
<text text-anchor="middle" x="1106.49" y="-1278.9" font-family="Times,serif" font-size="14.00">&lt;&lt;Struct&gt;&gt;</text>
<text text-anchor="middle" x="1106.49" y="-1262.1" font-family="Times,serif" font-size="14.00">Administrator</text>
<text text-anchor="middle" x="1106.49" y="-1245.3" font-family="Times,serif" font-size="14.00">contracts/AdministratorContract.sol</text>
<polyline fill="none" stroke="black" points="997.99,-1237.1 1215,-1237.1 "/>
<text text-anchor="start" x="1005.99" y="-1220.5" font-family="Times,serif" font-size="14.00">idAdministrator: uint256</text>
<text text-anchor="start" x="1005.99" y="-1203.7" font-family="Times,serif" font-size="14.00">administratorAddress: address</text>
<text text-anchor="start" x="1005.99" y="-1186.9" font-family="Times,serif" font-size="14.00">taxId: uint256</text>
<text text-anchor="start" x="1005.99" y="-1170.1" font-family="Times,serif" font-size="14.00">name: string</text>
<text text-anchor="start" x="1005.99" y="-1153.3" font-family="Times,serif" font-size="14.00">stateOf: State</text>
</g>
<!-- 2 -->
<g id="node2" class="node">
<title>2</title>
<polygon fill="#f2f2f2" stroke="black" points="1201.99,-1412.1 1201.99,-1512.1 1419,-1512.1 1419,-1412.1 1201.99,-1412.1"/>
<text text-anchor="middle" x="1310.49" y="-1495.5" font-family="Times,serif" font-size="14.00">&lt;&lt;Enum&gt;&gt;</text>
<text text-anchor="middle" x="1310.49" y="-1478.7" font-family="Times,serif" font-size="14.00">State</text>
<text text-anchor="middle" x="1310.49" y="-1461.9" font-family="Times,serif" font-size="14.00">contracts/AdministratorContract.sol</text>
<polyline fill="none" stroke="black" points="1201.99,-1453.7 1419,-1453.7 "/>
<text text-anchor="start" x="1209.99" y="-1437.1" font-family="Times,serif" font-size="14.00">Inactive: 0</text>
<text text-anchor="start" x="1209.99" y="-1420.3" font-family="Times,serif" font-size="14.00">Active: 1</text>
</g>
<!-- 1&#45;&gt;2 -->
<g id="edge1" class="edge">
<title>1&#45;&gt;2</title>
<path fill="none" stroke="black" stroke-dasharray="5,2" d="M1169.64,-1295.53C1199.43,-1330.55 1234.42,-1371.68 1262.08,-1404.19"/>
<polygon fill="black" stroke="black" points="1259.43,-1406.48 1268.58,-1411.83 1264.76,-1401.95 1259.43,-1406.48"/>
</g>
<!-- 0 -->
<g id="node3" class="node">
<title>0</title>
<polygon fill="#f2f2f2" stroke="black" points="993.59,-1574.3 993.59,-1799.9 1627.39,-1799.9 1627.39,-1574.3 993.59,-1574.3"/>
<text text-anchor="middle" x="1310.49" y="-1783.3" font-family="Times,serif" font-size="14.00">AdministratorContract</text>
<text text-anchor="middle" x="1310.49" y="-1766.5" font-family="Times,serif" font-size="14.00">contracts/AdministratorContract.sol</text>
<polyline fill="none" stroke="black" points="993.59,-1758.3 1627.39,-1758.3 "/>
<text text-anchor="start" x="1001.59" y="-1741.7" font-family="Times,serif" font-size="14.00">Private:</text>
<text text-anchor="start" x="1001.59" y="-1724.9" font-family="Times,serif" font-size="14.00"> &#160;&#160;administrators: mapping(uint256=&gt;Administrator)</text>
<text text-anchor="start" x="1001.59" y="-1708.1" font-family="Times,serif" font-size="14.00"> &#160;&#160;addsAdministrators: address[]</text>
<polyline fill="none" stroke="black" points="993.59,-1699.9 1627.39,-1699.9 "/>
<text text-anchor="start" x="1001.59" y="-1683.3" font-family="Times,serif" font-size="14.00">Public:</text>
<text text-anchor="start" x="1001.59" y="-1666.5" font-family="Times,serif" font-size="14.00"> &#160;&#160;&#160;constructor(_taxId: uint256, _name: string)</text>
<text text-anchor="start" x="1001.59" y="-1649.7" font-family="Times,serif" font-size="14.00"> &#160;&#160;&#160;addAdministrator(_address: address, _name: string, _taxId: uint256)</text>
<text text-anchor="start" x="1001.59" y="-1632.9" font-family="Times,serif" font-size="14.00"> &#160;&#160;&#160;getAdministrator(_id: uint256): Administrator</text>
<text text-anchor="start" x="1001.59" y="-1616.1" font-family="Times,serif" font-size="14.00"> &#160;&#160;&#160;updateAdministrator(_addressKey: address, _address: address, _taxId: uint256, _name: string, _state: State)</text>
<text text-anchor="start" x="1001.59" y="-1599.3" font-family="Times,serif" font-size="14.00"> &#160;&#160;&#160;getAllAdministrators(): Administrator[]</text>
<text text-anchor="start" x="1001.59" y="-1582.5" font-family="Times,serif" font-size="14.00"> &#160;&#160;&#160;checkIfAdministratorExists(_address: address): bool</text>
</g>
<!-- 1&#45;&gt;0 -->
<g id="edge3" class="edge">
<title>1&#45;&gt;0</title>
<path fill="none" stroke="black" d="M1110.81,-1295.71C1121.03,-1361.89 1144.07,-1459.95 1183.49,-1537.8 1187.88,-1546.46 1192.82,-1555.09 1198.14,-1563.59"/>
<polygon fill="black" stroke="black" points="1198.29,-1563.82 1204.91,-1566.67 1204.82,-1573.89 1198.2,-1571.03 1198.29,-1563.82"/>
</g>
<!-- 2&#45;&gt;0 -->
<g id="edge2" class="edge">
<title>2&#45;&gt;0</title>
<path fill="none" stroke="black" d="M1304.78,-1512.31C1304.22,-1527.22 1303.89,-1544.31 1303.78,-1561.82"/>
<polygon fill="black" stroke="black" points="1303.78,-1561.99 1307.76,-1568.01 1303.74,-1573.99 1299.76,-1567.98 1303.78,-1561.99"/>
</g>
<!-- 0&#45;&gt;1 -->
<g id="edge4" class="edge">
<title>0&#45;&gt;1</title>
<path fill="none" stroke="black" d="M1222.74,-1573.89C1214.93,-1562.11 1207.66,-1549.98 1201.49,-1537.8 1164,-1463.75 1141.32,-1371.41 1127.08,-1305.62"/>
<polygon fill="black" stroke="black" points="1130.47,-1304.75 1124.95,-1295.71 1123.63,-1306.22 1130.47,-1304.75"/>
</g>
<!-- 0&#45;&gt;2 -->
<g id="edge5" class="edge">
<title>0&#45;&gt;2</title>
<path fill="none" stroke="black" stroke-dasharray="5,2" d="M1317.24,-1573.99C1317.24,-1556.2 1317,-1538.44 1316.54,-1522.5"/>
<polygon fill="black" stroke="black" points="1320.03,-1522.19 1316.2,-1512.31 1313.03,-1522.42 1320.03,-1522.19"/>
</g>
<!-- 4 -->
<g id="node4" class="node">
<title>4</title>
<polygon fill="#f2f2f2" stroke="black" points="1232.88,-1119.9 1232.88,-1320.7 1428.1,-1320.7 1428.1,-1119.9 1232.88,-1119.9"/>
<text text-anchor="middle" x="1330.49" y="-1304.1" font-family="Times,serif" font-size="14.00">&lt;&lt;Struct&gt;&gt;</text>
<text text-anchor="middle" x="1330.49" y="-1287.3" font-family="Times,serif" font-size="14.00">Employee</text>
<text text-anchor="middle" x="1330.49" y="-1270.5" font-family="Times,serif" font-size="14.00">contracts/EmployeeContract.sol</text>
<polyline fill="none" stroke="black" points="1232.88,-1262.3 1428.1,-1262.3 "/>
<text text-anchor="start" x="1240.88" y="-1245.7" font-family="Times,serif" font-size="14.00">idEmployee: uint256</text>
<text text-anchor="start" x="1240.88" y="-1228.9" font-family="Times,serif" font-size="14.00">employeeAddress: address</text>
<text text-anchor="start" x="1240.88" y="-1212.1" font-family="Times,serif" font-size="14.00">taxId: uint256</text>
<text text-anchor="start" x="1240.88" y="-1195.3" font-family="Times,serif" font-size="14.00">name: string</text>
<text text-anchor="start" x="1240.88" y="-1178.5" font-family="Times,serif" font-size="14.00">begginingWorkDay: uint256</text>
<text text-anchor="start" x="1240.88" y="-1161.7" font-family="Times,serif" font-size="14.00">endWorkDay: uint256</text>
<text text-anchor="start" x="1240.88" y="-1144.9" font-family="Times,serif" font-size="14.00">stateOf: State</text>
<text text-anchor="start" x="1240.88" y="-1128.1" font-family="Times,serif" font-size="14.00">employerAddress: address</text>
</g>
<!-- 4&#45;&gt;2 -->
<g id="edge6" class="edge">
<title>4&#45;&gt;2</title>
<path fill="none" stroke="black" stroke-dasharray="5,2" d="M1322.18,-1320.91C1319.89,-1348.39 1317.48,-1377.32 1315.44,-1401.73"/>
<polygon fill="black" stroke="black" points="1311.94,-1401.63 1314.6,-1411.89 1318.92,-1402.22 1311.94,-1401.63"/>
</g>
<!-- 3 -->
<g id="node6" class="node">
<title>3</title>
<polygon fill="#f2f2f2" stroke="black" points="414.95,-744.1 414.95,-1053.7 1504.04,-1053.7 1504.04,-744.1 414.95,-744.1"/>
<text text-anchor="middle" x="959.49" y="-1037.1" font-family="Times,serif" font-size="14.00">EmployeeContract</text>
<text text-anchor="middle" x="959.49" y="-1020.3" font-family="Times,serif" font-size="14.00">contracts/EmployeeContract.sol</text>
<polyline fill="none" stroke="black" points="414.95,-1012.1 1504.04,-1012.1 "/>
<text text-anchor="start" x="422.95" y="-995.5" font-family="Times,serif" font-size="14.00">Private:</text>
<text text-anchor="start" x="422.95" y="-978.7" font-family="Times,serif" font-size="14.00"> &#160;&#160;employees: mapping(uint256=&gt;Employee)</text>
<text text-anchor="start" x="422.95" y="-961.9" font-family="Times,serif" font-size="14.00"> &#160;&#160;addsEmployees: address[]</text>
<text text-anchor="start" x="422.95" y="-945.1" font-family="Times,serif" font-size="14.00"> &#160;&#160;admin: AdministratorContract</text>
<text text-anchor="start" x="422.95" y="-928.3" font-family="Times,serif" font-size="14.00"> &#160;&#160;employer: EmployerContract</text>
<text text-anchor="start" x="422.95" y="-911.5" font-family="Times,serif" font-size="14.00"> &#160;&#160;util: UtilContract</text>
<polyline fill="none" stroke="black" points="414.95,-903.3 1504.04,-903.3 "/>
<text text-anchor="start" x="422.95" y="-886.7" font-family="Times,serif" font-size="14.00">Public:</text>
<text text-anchor="start" x="422.95" y="-869.9" font-family="Times,serif" font-size="14.00"> &#160;&#160;&#160;constructor(_adm: address, _employer: address, _util: address)</text>
<text text-anchor="start" x="422.95" y="-853.1" font-family="Times,serif" font-size="14.00"> &#160;&#160;&#160;addEmployee(_address: address, _name: string, _taxId: uint256, _begginingWorkDay: uint256, _endWorkDay: uint256, _employerAddress: address)</text>
<text text-anchor="start" x="422.95" y="-836.3" font-family="Times,serif" font-size="14.00"> &#160;&#160;&#160;updateEmployee(_addressKey: address, _address: address, _taxId: uint256, _name: string, _begginingWorkDay: uint256, _endWorkDay: uint256, _state: State, _employerAddress: address)</text>
<text text-anchor="start" x="422.95" y="-819.5" font-family="Times,serif" font-size="14.00"> &#160;&#160;&#160;getEmployeeById(_id: uint256): Employee</text>
<text text-anchor="start" x="422.95" y="-802.7" font-family="Times,serif" font-size="14.00"> &#160;&#160;&#160;getEmployeeByAddress(_address: address): Employee</text>
<text text-anchor="start" x="422.95" y="-785.9" font-family="Times,serif" font-size="14.00"> &#160;&#160;&#160;getAllEmployees(): Employee[]</text>
<text text-anchor="start" x="422.95" y="-769.1" font-family="Times,serif" font-size="14.00"> &#160;&#160;&#160;checkIfEmployeeExists(_address: address): bool</text>
<text text-anchor="start" x="422.95" y="-752.3" font-family="Times,serif" font-size="14.00"> &#160;&#160;&#160;getEmployerContract(): (_empContract: address)</text>
</g>
<!-- 4&#45;&gt;3 -->
<g id="edge8" class="edge">
<title>4&#45;&gt;3</title>
<path fill="none" stroke="black" d="M1262.13,-1119.62C1252.88,-1109.34 1243.22,-1099.32 1233.49,-1090.2 1223.24,-1080.59 1212.49,-1071.06 1201.42,-1061.68"/>
<polygon fill="black" stroke="black" points="1201.25,-1061.54 1194.09,-1060.75 1192.05,-1053.83 1199.22,-1054.62 1201.25,-1061.54"/>
</g>
<!-- 5 -->
<g id="node5" class="node">
<title>5</title>
<polygon fill="#f2f2f2" stroke="black" points="861.88,-443.5 861.88,-543.5 1057.1,-543.5 1057.1,-443.5 861.88,-443.5"/>
<text text-anchor="middle" x="959.49" y="-526.9" font-family="Times,serif" font-size="14.00">&lt;&lt;Enum&gt;&gt;</text>
<text text-anchor="middle" x="959.49" y="-510.1" font-family="Times,serif" font-size="14.00">State</text>
<text text-anchor="middle" x="959.49" y="-493.3" font-family="Times,serif" font-size="14.00">contracts/EmployeeContract.sol</text>
<polyline fill="none" stroke="black" points="861.88,-485.1 1057.1,-485.1 "/>
<text text-anchor="start" x="869.88" y="-468.5" font-family="Times,serif" font-size="14.00">Inactive: 0</text>
<text text-anchor="start" x="869.88" y="-451.7" font-family="Times,serif" font-size="14.00">Active: 1</text>
</g>
<!-- 5&#45;&gt;3 -->
<g id="edge7" class="edge">
<title>5&#45;&gt;3</title>
<path fill="none" stroke="black" d="M959.49,-543.56C959.49,-590.41 959.49,-663.71 959.49,-731.51"/>
<polygon fill="black" stroke="black" points="959.49,-731.66 963.49,-737.66 959.49,-743.66 955.49,-737.66 959.49,-731.66"/>
</g>
<!-- 3&#45;&gt;2 -->
<g id="edge13" class="edge">
<title>3&#45;&gt;2</title>
<path fill="none" stroke="black" stroke-dasharray="5,2" d="M1408.25,-1053.97C1418.91,-1065.21 1428.72,-1077.26 1437.49,-1090.2 1502.4,-1185.91 1485.38,-1245.14 1437.49,-1350.4 1428.04,-1371.18 1412.55,-1389.58 1395.57,-1405.12"/>
<polygon fill="black" stroke="black" points="1392.89,-1402.82 1387.69,-1412.05 1397.51,-1408.07 1392.89,-1402.82"/>
</g>
<!-- 3&#45;&gt;0 -->
<g id="edge10" class="edge">
<title>3&#45;&gt;0</title>
<path fill="none" stroke="black" d="M1442.63,-1053.89C1453.46,-1065.15 1463.47,-1077.24 1472.49,-1090.2 1529.57,-1172.25 1472.09,-1447.86 1428.49,-1537.8 1423.98,-1547.11 1418.79,-1556.37 1413.17,-1565.46"/>
<polygon fill="black" stroke="black" points="1410.08,-1563.79 1407.65,-1574.11 1415.98,-1567.56 1410.08,-1563.79"/>
</g>
<!-- 3&#45;&gt;4 -->
<g id="edge9" class="edge">
<title>3&#45;&gt;4</title>
<path fill="none" stroke="black" d="M1174.09,-1053.83C1188.43,-1065.73 1202.37,-1077.9 1215.49,-1090.2 1222.79,-1097.04 1230.05,-1104.38 1237.16,-1111.97"/>
<polygon fill="black" stroke="black" points="1234.88,-1114.65 1244.23,-1119.62 1240.02,-1109.9 1234.88,-1114.65"/>
</g>
<!-- 6 -->
<g id="node8" class="node">
<title>6</title>
<polygon fill="#f2f2f2" stroke="black" points="318.59,-1090.7 318.59,-1349.9 980.39,-1349.9 980.39,-1090.7 318.59,-1090.7"/>
<text text-anchor="middle" x="649.49" y="-1333.3" font-family="Times,serif" font-size="14.00">EmployerContract</text>
<text text-anchor="middle" x="649.49" y="-1316.5" font-family="Times,serif" font-size="14.00">contracts/EmployerContract.sol</text>
<polyline fill="none" stroke="black" points="318.59,-1308.3 980.39,-1308.3 "/>
<text text-anchor="start" x="326.59" y="-1291.7" font-family="Times,serif" font-size="14.00">Private:</text>
<text text-anchor="start" x="326.59" y="-1274.9" font-family="Times,serif" font-size="14.00"> &#160;&#160;admin: AdministratorContract</text>
<text text-anchor="start" x="326.59" y="-1258.1" font-family="Times,serif" font-size="14.00"> &#160;&#160;employers: mapping(uint256=&gt;Employer)</text>
<text text-anchor="start" x="326.59" y="-1241.3" font-family="Times,serif" font-size="14.00"> &#160;&#160;addsEmployers: address[]</text>
<polyline fill="none" stroke="black" points="318.59,-1233.1 980.39,-1233.1 "/>
<text text-anchor="start" x="326.59" y="-1216.5" font-family="Times,serif" font-size="14.00">Public:</text>
<text text-anchor="start" x="326.59" y="-1199.7" font-family="Times,serif" font-size="14.00"> &#160;&#160;&#160;constructor(_adm: address)</text>
<text text-anchor="start" x="326.59" y="-1182.9" font-family="Times,serif" font-size="14.00"> &#160;&#160;&#160;addEmployer(_address: address, _taxId: uint256, _name: string, _legalAddress: string)</text>
<text text-anchor="start" x="326.59" y="-1166.1" font-family="Times,serif" font-size="14.00"> &#160;&#160;&#160;updateEmployer(_addressKey: address, _address: address, _taxId: uint256, _name: string, _legalAddress: string)</text>
<text text-anchor="start" x="326.59" y="-1149.3" font-family="Times,serif" font-size="14.00"> &#160;&#160;&#160;getEmployerById(_id: uint256): Employer</text>
<text text-anchor="start" x="326.59" y="-1132.5" font-family="Times,serif" font-size="14.00"> &#160;&#160;&#160;getEmployerByAddress(_address: address): Employer</text>
<text text-anchor="start" x="326.59" y="-1115.7" font-family="Times,serif" font-size="14.00"> &#160;&#160;&#160;getAllEmployers(): Employer[]</text>
<text text-anchor="start" x="326.59" y="-1098.9" font-family="Times,serif" font-size="14.00"> &#160;&#160;&#160;checkIfEmployerExists(_address: address): bool</text>
</g>
<!-- 3&#45;&gt;6 -->
<g id="edge11" class="edge">
<title>3&#45;&gt;6</title>
<path fill="none" stroke="black" d="M809.94,-1053.99C800.44,-1063.77 790.91,-1073.59 781.5,-1083.29"/>
<polygon fill="black" stroke="black" points="778.78,-1081.07 774.33,-1090.68 783.8,-1085.94 778.78,-1081.07"/>
</g>
<!-- 11 -->
<g id="node12" class="node">
<title>11</title>
<polygon fill="#f2f2f2" stroke="black" points="0,-1170.3 0,-1270.3 300.98,-1270.3 300.98,-1170.3 0,-1170.3"/>
<text text-anchor="middle" x="150.49" y="-1253.7" font-family="Times,serif" font-size="14.00">UtilContract</text>
<text text-anchor="middle" x="150.49" y="-1236.9" font-family="Times,serif" font-size="14.00">contracts/UtilContract.sol</text>
<polyline fill="none" stroke="black" points="0,-1228.7 300.98,-1228.7 "/>
<text text-anchor="start" x="8" y="-1212.1" font-family="Times,serif" font-size="14.00">Public:</text>
<text text-anchor="start" x="8" y="-1195.3" font-family="Times,serif" font-size="14.00"> &#160;&#160;&#160;getDate(timestamp: uint): (yearMonthDay: uint)</text>
<text text-anchor="start" x="8" y="-1178.5" font-family="Times,serif" font-size="14.00"> &#160;&#160;&#160;validateTime(_time: uint256): bool</text>
</g>
<!-- 3&#45;&gt;11 -->
<g id="edge12" class="edge">
<title>3&#45;&gt;11</title>
<path fill="none" stroke="black" d="M414.79,-1041.51C378.5,-1056.37 343.07,-1072.57 309.49,-1090.2 272.64,-1109.54 236.25,-1138.18 207.61,-1163.58"/>
<polygon fill="black" stroke="black" points="205.22,-1161.02 200.12,-1170.3 209.9,-1166.23 205.22,-1161.02"/>
</g>
<!-- 7 -->
<g id="node7" class="node">
<title>7</title>
<polygon fill="#f2f2f2" stroke="black" points="552.66,-1386.9 552.66,-1537.3 746.33,-1537.3 746.33,-1386.9 552.66,-1386.9"/>
<text text-anchor="middle" x="649.49" y="-1520.7" font-family="Times,serif" font-size="14.00">&lt;&lt;Struct&gt;&gt;</text>
<text text-anchor="middle" x="649.49" y="-1503.9" font-family="Times,serif" font-size="14.00">Employer</text>
<text text-anchor="middle" x="649.49" y="-1487.1" font-family="Times,serif" font-size="14.00">contracts/EmployerContract.sol</text>
<polyline fill="none" stroke="black" points="552.66,-1478.9 746.33,-1478.9 "/>
<text text-anchor="start" x="560.66" y="-1462.3" font-family="Times,serif" font-size="14.00">idEmployer: uint256</text>
<text text-anchor="start" x="560.66" y="-1445.5" font-family="Times,serif" font-size="14.00">employerAddress: address</text>
<text text-anchor="start" x="560.66" y="-1428.7" font-family="Times,serif" font-size="14.00">taxId: uint256</text>
<text text-anchor="start" x="560.66" y="-1411.9" font-family="Times,serif" font-size="14.00">name: string</text>
<text text-anchor="start" x="560.66" y="-1395.1" font-family="Times,serif" font-size="14.00">legalAddress: string</text>
</g>
<!-- 7&#45;&gt;6 -->
<g id="edge14" class="edge">
<title>7&#45;&gt;6</title>
<path fill="none" stroke="black" d="M655.79,-1386.7C655.96,-1378.72 656.08,-1370.42 656.15,-1361.98"/>
<polygon fill="black" stroke="black" points="656.15,-1361.97 652.19,-1355.95 656.23,-1349.97 660.19,-1356 656.15,-1361.97"/>
</g>
<!-- 6&#45;&gt;0 -->
<g id="edge15" class="edge">
<title>6&#45;&gt;0</title>
<path fill="none" stroke="black" d="M553.42,-1350.12C519.5,-1412.18 499.51,-1484.5 543.49,-1537.8 600.28,-1606.62 801.32,-1643.88 983.32,-1663.83"/>
<polygon fill="black" stroke="black" points="983.02,-1667.32 993.34,-1664.91 983.78,-1660.36 983.02,-1667.32"/>
</g>
<!-- 6&#45;&gt;7 -->
<g id="edge16" class="edge">
<title>6&#45;&gt;7</title>
<path fill="none" stroke="black" d="M642.76,-1349.97C642.79,-1359 642.88,-1367.96 643.01,-1376.64"/>
<polygon fill="black" stroke="black" points="639.51,-1376.76 643.19,-1386.7 646.51,-1376.64 639.51,-1376.76"/>
</g>
<!-- 9 -->
<g id="node9" class="node">
<title>9</title>
<polygon fill="#f2f2f2" stroke="black" points="1560.3,-832.1 1560.3,-965.7 1716.68,-965.7 1716.68,-832.1 1560.3,-832.1"/>
<text text-anchor="middle" x="1638.49" y="-949.1" font-family="Times,serif" font-size="14.00">&lt;&lt;Struct&gt;&gt;</text>
<text text-anchor="middle" x="1638.49" y="-932.3" font-family="Times,serif" font-size="14.00">EmployeeRecord</text>
<text text-anchor="middle" x="1638.49" y="-915.5" font-family="Times,serif" font-size="14.00">contracts/PontoBlock.sol</text>
<polyline fill="none" stroke="black" points="1560.3,-907.3 1716.68,-907.3 "/>
<text text-anchor="start" x="1568.3" y="-890.7" font-family="Times,serif" font-size="14.00">startWork: uint256</text>
<text text-anchor="start" x="1568.3" y="-873.9" font-family="Times,serif" font-size="14.00">endWork: uint256</text>
<text text-anchor="start" x="1568.3" y="-857.1" font-family="Times,serif" font-size="14.00">breakStartTime: uint256</text>
<text text-anchor="start" x="1568.3" y="-840.3" font-family="Times,serif" font-size="14.00">breakEndTime: uint256</text>
</g>
<!-- 8 -->
<g id="node10" class="node">
<title>8</title>
<polygon fill="#f2f2f2" stroke="black" points="1180.31,-279.9 1180.31,-707.1 1644.67,-707.1 1644.67,-279.9 1180.31,-279.9"/>
<text text-anchor="middle" x="1412.49" y="-690.5" font-family="Times,serif" font-size="14.00">PontoBlock</text>
<text text-anchor="middle" x="1412.49" y="-673.7" font-family="Times,serif" font-size="14.00">contracts/PontoBlock.sol</text>
<polyline fill="none" stroke="black" points="1180.31,-665.5 1644.67,-665.5 "/>
<text text-anchor="start" x="1188.31" y="-648.9" font-family="Times,serif" font-size="14.00">Private:</text>
<text text-anchor="start" x="1188.31" y="-632.1" font-family="Times,serif" font-size="14.00"> &#160;&#160;timeZone: int</text>
<text text-anchor="start" x="1188.31" y="-615.3" font-family="Times,serif" font-size="14.00"> &#160;&#160;oneHour: int</text>
<text text-anchor="start" x="1188.31" y="-598.5" font-family="Times,serif" font-size="14.00"> &#160;&#160;owner: address</text>
<text text-anchor="start" x="1188.31" y="-581.7" font-family="Times,serif" font-size="14.00"> &#160;&#160;creationDate: uint</text>
<text text-anchor="start" x="1188.31" y="-564.9" font-family="Times,serif" font-size="14.00"> &#160;&#160;employeeRecords: mapping(address=&gt;mapping(uint256=&gt;EmployeeRecord))</text>
<text text-anchor="start" x="1188.31" y="-548.1" font-family="Times,serif" font-size="14.00"> &#160;&#160;employee: EmployeeContract</text>
<text text-anchor="start" x="1188.31" y="-531.3" font-family="Times,serif" font-size="14.00"> &#160;&#160;util: UtilContract</text>
<text text-anchor="start" x="1188.31" y="-514.5" font-family="Times,serif" font-size="14.00"> &#160;&#160;admin: AdministratorContract</text>
<polyline fill="none" stroke="black" points="1180.31,-506.3 1644.67,-506.3 "/>
<text text-anchor="start" x="1188.31" y="-489.7" font-family="Times,serif" font-size="14.00">Public:</text>
<text text-anchor="start" x="1188.31" y="-472.9" font-family="Times,serif" font-size="14.00"> &#160;&#160;&#160;&lt;&lt;modifier&gt;&gt; onlyOwner()</text>
<text text-anchor="start" x="1188.31" y="-456.1" font-family="Times,serif" font-size="14.00"> &#160;&#160;&#160;constructor(_emp: address, _util: address, _adm: address, _timeZone: int)</text>
<text text-anchor="start" x="1188.31" y="-439.3" font-family="Times,serif" font-size="14.00"> &#160;&#160;&#160;startWork()</text>
<text text-anchor="start" x="1188.31" y="-422.5" font-family="Times,serif" font-size="14.00"> &#160;&#160;&#160;endWork()</text>
<text text-anchor="start" x="1188.31" y="-405.7" font-family="Times,serif" font-size="14.00"> &#160;&#160;&#160;breakStartTime()</text>
<text text-anchor="start" x="1188.31" y="-388.9" font-family="Times,serif" font-size="14.00"> &#160;&#160;&#160;breakEndTime()</text>
<text text-anchor="start" x="1188.31" y="-372.1" font-family="Times,serif" font-size="14.00"> &#160;&#160;&#160;getCreationDateContract(): uint</text>
<text text-anchor="start" x="1188.31" y="-355.3" font-family="Times,serif" font-size="14.00"> &#160;&#160;&#160;getEmployeeRecords(_address: address, _date: uint256): EmployeeRecord</text>
<text text-anchor="start" x="1188.31" y="-338.5" font-family="Times,serif" font-size="14.00"> &#160;&#160;&#160;getMoment(): uint256</text>
<text text-anchor="start" x="1188.31" y="-321.7" font-family="Times,serif" font-size="14.00"> &#160;&#160;&#160;changeOwner(_newOwner: address) &lt;&lt;onlyOwner&gt;&gt;</text>
<text text-anchor="start" x="1188.31" y="-304.9" font-family="Times,serif" font-size="14.00"> &#160;&#160;&#160;getOwner(): address</text>
<text text-anchor="start" x="1188.31" y="-288.1" font-family="Times,serif" font-size="14.00"> &#160;&#160;&#160;getTimeZone(): int</text>
</g>
<!-- 9&#45;&gt;8 -->
<g id="edge17" class="edge">
<title>9&#45;&gt;8</title>
<path fill="none" stroke="black" d="M1606.55,-831.68C1589.56,-799.73 1567.45,-759.35 1544.27,-717.73"/>
<polygon fill="black" stroke="black" points="1544.2,-717.61 1537.78,-714.32 1538.35,-707.13 1544.77,-710.42 1544.2,-717.61"/>
</g>
<!-- 8&#45;&gt;0 -->
<g id="edge20" class="edge">
<title>8&#45;&gt;0</title>
<path fill="none" stroke="black" d="M1504.86,-707.23C1508.22,-719.4 1511.15,-731.58 1513.49,-743.6 1565.13,-1008.39 1527.52,-1082.29 1497.49,-1350.4 1488.09,-1434.37 1505.13,-1463.18 1465.49,-1537.8 1460.29,-1547.59 1454.2,-1557.12 1447.5,-1566.3"/>
<polygon fill="black" stroke="black" points="1444.71,-1564.19 1441.46,-1574.27 1450.29,-1568.41 1444.71,-1564.19"/>
</g>
<!-- 8&#45;&gt;3 -->
<g id="edge18" class="edge">
<title>8&#45;&gt;3</title>
<path fill="none" stroke="black" d="M1180.02,-701.52C1166.58,-713.48 1153.17,-725.43 1139.98,-737.17"/>
<polygon fill="black" stroke="black" points="1137.38,-734.8 1132.24,-744.07 1142.03,-740.03 1137.38,-734.8"/>
</g>
<!-- 8&#45;&gt;9 -->
<g id="edge21" class="edge">
<title>8&#45;&gt;9</title>
<path fill="none" stroke="black" stroke-dasharray="5,2" d="M1524.87,-707.13C1548.24,-748.73 1571.65,-789.7 1591.12,-822.95"/>
<polygon fill="black" stroke="black" points="1588.16,-824.82 1596.24,-831.68 1594.19,-821.28 1588.16,-824.82"/>
</g>
<!-- 8&#45;&gt;11 -->
<g id="edge19" class="edge">
<title>8&#45;&gt;11</title>
<path fill="none" stroke="black" d="M1179.88,-658.84C1143.31,-678.37 1104.87,-695.59 1066.49,-707.6 926.1,-751.52 529.61,-664.64 405.49,-743.6 328.11,-792.83 219.98,-1044.9 173.36,-1160.83"/>
<polygon fill="black" stroke="black" points="170.05,-1159.69 169.58,-1170.28 176.54,-1162.29 170.05,-1159.69"/>
</g>
<!-- 10 -->
<g id="node11" class="node">
<title>10</title>
<polygon fill="#f2f2f2" stroke="black" points="704.49,-0.5 704.49,-242.9 2120.5,-242.9 2120.5,-0.5 704.49,-0.5"/>
<text text-anchor="middle" x="1412.49" y="-226.3" font-family="Times,serif" font-size="14.00">PontoBlockReports</text>
<text text-anchor="middle" x="1412.49" y="-209.5" font-family="Times,serif" font-size="14.00">contracts/PontoBlockReports.sol</text>
<polyline fill="none" stroke="black" points="704.49,-201.3 2120.5,-201.3 "/>
<text text-anchor="start" x="712.49" y="-184.7" font-family="Times,serif" font-size="14.00">Private:</text>
<text text-anchor="start" x="712.49" y="-167.9" font-family="Times,serif" font-size="14.00"> &#160;&#160;employee: EmployeeContract</text>
<text text-anchor="start" x="712.49" y="-151.1" font-family="Times,serif" font-size="14.00"> &#160;&#160;pontoBlock: PontoBlock</text>
<text text-anchor="start" x="712.49" y="-134.3" font-family="Times,serif" font-size="14.00"> &#160;&#160;util: UtilContract</text>
<text text-anchor="start" x="712.49" y="-117.5" font-family="Times,serif" font-size="14.00"> &#160;&#160;admin: AdministratorContract</text>
<polyline fill="none" stroke="black" points="704.49,-109.3 2120.5,-109.3 "/>
<text text-anchor="start" x="712.49" y="-92.7" font-family="Times,serif" font-size="14.00">Public:</text>
<text text-anchor="start" x="712.49" y="-75.9" font-family="Times,serif" font-size="14.00"> &#160;&#160;&#160;constructor(_emp: address, _ponto: address, _util: address, _adm: address)</text>
<text text-anchor="start" x="712.49" y="-59.1" font-family="Times,serif" font-size="14.00"> &#160;&#160;&#160;getWorkTimesFromEmployeeAtDate(_employee: address, _date: uint256): (_startWork: uint256, _endWork: uint256, _breakStartTime: uint256, _breakEndTime: uint256)</text>
<text text-anchor="start" x="712.49" y="-42.3" font-family="Times,serif" font-size="14.00"> &#160;&#160;&#160;getWorkTimeFromEmployeeBetweenTwoDates(_employee: address, _startDate: uint256, _endDate: uint256): (_date: uint256[], _startWork: uint256[], _endWork: uint256[], _breakStartTime: uint256[], _breakEndTime: uint256[])</text>
<text text-anchor="start" x="712.49" y="-25.5" font-family="Times,serif" font-size="14.00"> &#160;&#160;&#160;getWorkTimesForAllEmployeesAtDate(_date: uint256): (_empAddress: address[], _startWork: uint256[], _endWork: uint256[], _breakStartTime: uint256[], _breakEndTime: uint256[])</text>
<text text-anchor="start" x="712.49" y="-8.7" font-family="Times,serif" font-size="14.00"> &#160;&#160;&#160;getWorkTimesForAllEmployeesBetweenTwoDates(_startDate: uint256, _endDate: uint256): (_date: uint256[], _empAddress: address[][], _startWork: uint256[][], _endWork: uint256[][], _breakStartTime: uint256[][], _breakEndTime: uint256[][])</text>
</g>
<!-- 10&#45;&gt;0 -->
<g id="edge25" class="edge">
<title>10&#45;&gt;0</title>
<path fill="none" stroke="black" d="M1665.2,-243.11C1676.17,-254.26 1686.08,-266.33 1694.49,-279.4 1843.81,-511.27 1744.49,-622.11 1744.49,-897.9 1744.49,-897.9 1744.49,-897.9 1744.49,-1221.3 1744.49,-1367.65 1628.13,-1487.06 1515.91,-1568.19"/>
<polygon fill="black" stroke="black" points="1513.59,-1565.55 1507.49,-1574.21 1517.66,-1571.24 1513.59,-1565.55"/>
</g>
<!-- 10&#45;&gt;3 -->
<g id="edge22" class="edge">
<title>10&#45;&gt;3</title>
<path fill="none" stroke="black" d="M1202.81,-243.02C1191.27,-254.35 1180.66,-266.48 1171.49,-279.4 1058.06,-439.18 1138.51,-525.36 1066.49,-707.6 1062.91,-716.65 1058.98,-725.81 1054.79,-734.95"/>
<polygon fill="black" stroke="black" points="1051.58,-733.54 1050.52,-744.08 1057.92,-736.51 1051.58,-733.54"/>
</g>
<!-- 10&#45;&gt;9 -->
<g id="edge26" class="edge">
<title>10&#45;&gt;9</title>
<path fill="none" stroke="black" stroke-dasharray="5,2" d="M1627.89,-242.96C1637.72,-254.22 1646.41,-266.35 1653.49,-279.4 1748.38,-454.28 1698.1,-699.9 1663.05,-822.33"/>
<polygon fill="black" stroke="black" points="1659.67,-821.42 1660.24,-832 1666.39,-823.38 1659.67,-821.42"/>
</g>
<!-- 10&#45;&gt;8 -->
<g id="edge23" class="edge">
<title>10&#45;&gt;8</title>
<path fill="none" stroke="black" d="M1412.49,-243.02C1412.49,-251.67 1412.49,-260.54 1412.49,-269.54"/>
<polygon fill="black" stroke="black" points="1408.99,-269.75 1412.49,-279.75 1415.99,-269.75 1408.99,-269.75"/>
</g>
<!-- 10&#45;&gt;11 -->
<g id="edge24" class="edge">
<title>10&#45;&gt;11</title>
<path fill="none" stroke="black" d="M924.79,-242.96C666.2,-334.36 371.15,-489.15 218.49,-743.6 139.19,-875.78 138.94,-1064.96 144.94,-1160.01"/>
<polygon fill="black" stroke="black" points="141.45,-1160.27 145.61,-1170.01 148.43,-1159.8 141.45,-1160.27"/>
</g>
</g>
</svg>
