<?xml version="1.0" encoding="UTF-8" standalone="no"?>
<!DOCTYPE svg PUBLIC "-//W3C//DTD SVG 1.1//EN"
 "http://www.w3.org/Graphics/SVG/1.1/DTD/svg11.dtd">
<!-- Generated by graphviz version 5.0.0 (20220707.1540)
 -->
<!-- Title: UmlClassDiagram Pages: 1 -->
<svg width="2909pt" height="2024pt"
 viewBox="0.00 0.00 2909.10 2024.20" xmlns="http://www.w3.org/2000/svg" xmlns:xlink="http://www.w3.org/1999/xlink">
<g id="graph0" class="graph" transform="scale(1 1) rotate(0) translate(4 2020.2)">
<title>UmlClassDiagram</title>
<polygon fill="white" stroke="transparent" points="-4,4 -4,-2020.2 2905.1,-2020.2 2905.1,4 -4,4"/>
<!-- 1 -->
<g id="node1" class="node">
<title>1</title>
<polygon fill="#f2f2f2" stroke="black" points="1153.5,-1422.3 1153.5,-1572.7 1370.51,-1572.7 1370.51,-1422.3 1153.5,-1422.3"/>
<text text-anchor="middle" x="1262" y="-1556.1" font-family="Times,serif" font-size="14.00">&lt;&lt;Struct&gt;&gt;</text>
<text text-anchor="middle" x="1262" y="-1539.3" font-family="Times,serif" font-size="14.00">Administrator</text>
<text text-anchor="middle" x="1262" y="-1522.5" font-family="Times,serif" font-size="14.00">contracts/AdministratorContract.sol</text>
<polyline fill="none" stroke="black" points="1153.5,-1514.3 1370.51,-1514.3 "/>
<text text-anchor="start" x="1161.5" y="-1497.7" font-family="Times,serif" font-size="14.00">idAdministrator: uint256</text>
<text text-anchor="start" x="1161.5" y="-1480.9" font-family="Times,serif" font-size="14.00">administratorAddress: address</text>
<text text-anchor="start" x="1161.5" y="-1464.1" font-family="Times,serif" font-size="14.00">taxId: uint256</text>
<text text-anchor="start" x="1161.5" y="-1447.3" font-family="Times,serif" font-size="14.00">name: string</text>
<text text-anchor="start" x="1161.5" y="-1430.5" font-family="Times,serif" font-size="14.00">stateOf: State</text>
</g>
<!-- 0 -->
<g id="node2" class="node">
<title>0</title>
<polygon fill="#f2f2f2" stroke="black" points="807.79,-1706.1 807.79,-2015.7 1716.22,-2015.7 1716.22,-1706.1 807.79,-1706.1"/>
<text text-anchor="middle" x="1262" y="-1999.1" font-family="Times,serif" font-size="14.00">AdministratorContract</text>
<text text-anchor="middle" x="1262" y="-1982.3" font-family="Times,serif" font-size="14.00">contracts/AdministratorContract.sol</text>
<polyline fill="none" stroke="black" points="807.79,-1974.1 1716.22,-1974.1 "/>
<text text-anchor="start" x="815.79" y="-1957.5" font-family="Times,serif" font-size="14.00">Private:</text>
<text text-anchor="start" x="815.79" y="-1940.7" font-family="Times,serif" font-size="14.00"> &#160;&#160;administrators: mapping(uint256=&gt;Administrator)</text>
<text text-anchor="start" x="815.79" y="-1923.9" font-family="Times,serif" font-size="14.00"> &#160;&#160;addsAdministrators: address[]</text>
<polyline fill="none" stroke="black" points="807.79,-1915.7 1716.22,-1915.7 "/>
<text text-anchor="start" x="815.79" y="-1899.1" font-family="Times,serif" font-size="14.00">Public:</text>
<text text-anchor="start" x="815.79" y="-1882.3" font-family="Times,serif" font-size="14.00"> &#160;&#160;&#160;&lt;&lt;event&gt;&gt; AdminAdded(from_: address, address_: address, name_: string, taxId_: uint256, timestamp_: uint256)</text>
<text text-anchor="start" x="815.79" y="-1865.5" font-family="Times,serif" font-size="14.00"> &#160;&#160;&#160;&lt;&lt;event&gt;&gt; AdminUpdated(from_: address, oldAddress_: address, newAddress_: address, name_: string, taxId_: uint256, state_: State, timestamp_: uint256)</text>
<text text-anchor="start" x="815.79" y="-1848.7" font-family="Times,serif" font-size="14.00"> &#160;&#160;&#160;&lt;&lt;modifier&gt;&gt; onlyAdmin()</text>
<text text-anchor="start" x="815.79" y="-1831.9" font-family="Times,serif" font-size="14.00"> &#160;&#160;&#160;&lt;&lt;modifier&gt;&gt; adminNotAddedYet(_address: address)</text>
<text text-anchor="start" x="815.79" y="-1815.1" font-family="Times,serif" font-size="14.00"> &#160;&#160;&#160;&lt;&lt;modifier&gt;&gt; adminAddedYet(_address: address)</text>
<text text-anchor="start" x="815.79" y="-1798.3" font-family="Times,serif" font-size="14.00"> &#160;&#160;&#160;constructor(_taxId: uint256, _name: string)</text>
<text text-anchor="start" x="815.79" y="-1781.5" font-family="Times,serif" font-size="14.00"> &#160;&#160;&#160;addAdministrator(_address: address, _name: string, _taxId: uint256) &lt;&lt;onlyAdmin, adminNotAddedYet&gt;&gt;</text>
<text text-anchor="start" x="815.79" y="-1764.7" font-family="Times,serif" font-size="14.00"> &#160;&#160;&#160;updateAdministrator(_addressKey: address, _address: address, _taxId: uint256, _name: string, _state: State) &lt;&lt;onlyAdmin, adminAddedYet&gt;&gt;</text>
<text text-anchor="start" x="815.79" y="-1747.9" font-family="Times,serif" font-size="14.00"> &#160;&#160;&#160;getAdministrator(_id: uint256): Administrator &lt;&lt;onlyAdmin&gt;&gt;</text>
<text text-anchor="start" x="815.79" y="-1731.1" font-family="Times,serif" font-size="14.00"> &#160;&#160;&#160;getAllAdministrators(): Administrator[] &lt;&lt;onlyAdmin&gt;&gt;</text>
<text text-anchor="start" x="815.79" y="-1714.3" font-family="Times,serif" font-size="14.00"> &#160;&#160;&#160;checkIfAdministratorExists(_address: address): bool</text>
</g>
<!-- 1&#45;&gt;0 -->
<g id="edge1" class="edge">
<title>1&#45;&gt;0</title>
<path fill="none" stroke="black" d="M1256.42,-1572.94C1255.54,-1608 1255.16,-1651.33 1255.27,-1693.6"/>
<polygon fill="black" stroke="black" points="1255.27,-1693.78 1259.3,-1699.77 1255.32,-1705.78 1251.3,-1699.8 1255.27,-1693.78"/>
</g>
<!-- 0&#45;&gt;1 -->
<g id="edge2" class="edge">
<title>0&#45;&gt;1</title>
<path fill="none" stroke="black" d="M1268.69,-1705.78C1268.9,-1663.71 1268.61,-1619.68 1267.82,-1583.07"/>
<polygon fill="black" stroke="black" points="1271.32,-1582.86 1267.59,-1572.94 1264.32,-1583.02 1271.32,-1582.86"/>
</g>
<!-- 3 -->
<g id="node3" class="node">
<title>3</title>
<polygon fill="#f2f2f2" stroke="black" points="1715.39,-1397.1 1715.39,-1597.9 1910.62,-1597.9 1910.62,-1397.1 1715.39,-1397.1"/>
<text text-anchor="middle" x="1813" y="-1581.3" font-family="Times,serif" font-size="14.00">&lt;&lt;Struct&gt;&gt;</text>
<text text-anchor="middle" x="1813" y="-1564.5" font-family="Times,serif" font-size="14.00">Employee</text>
<text text-anchor="middle" x="1813" y="-1547.7" font-family="Times,serif" font-size="14.00">contracts/EmployeeContract.sol</text>
<polyline fill="none" stroke="black" points="1715.39,-1539.5 1910.62,-1539.5 "/>
<text text-anchor="start" x="1723.39" y="-1522.9" font-family="Times,serif" font-size="14.00">idEmployee: uint256</text>
<text text-anchor="start" x="1723.39" y="-1506.1" font-family="Times,serif" font-size="14.00">employeeAddress: address</text>
<text text-anchor="start" x="1723.39" y="-1489.3" font-family="Times,serif" font-size="14.00">taxId: uint256</text>
<text text-anchor="start" x="1723.39" y="-1472.5" font-family="Times,serif" font-size="14.00">name: string</text>
<text text-anchor="start" x="1723.39" y="-1455.7" font-family="Times,serif" font-size="14.00">begginingWorkDay: uint256</text>
<text text-anchor="start" x="1723.39" y="-1438.9" font-family="Times,serif" font-size="14.00">endWorkDay: uint256</text>
<text text-anchor="start" x="1723.39" y="-1422.1" font-family="Times,serif" font-size="14.00">stateOf: State</text>
<text text-anchor="start" x="1723.39" y="-1405.3" font-family="Times,serif" font-size="14.00">employerAddress: address</text>
</g>
<!-- 2 -->
<g id="node4" class="node">
<title>2</title>
<polygon fill="#f2f2f2" stroke="black" points="1057.3,-861.7 1057.3,-1288.9 2568.7,-1288.9 2568.7,-861.7 1057.3,-861.7"/>
<text text-anchor="middle" x="1813" y="-1272.3" font-family="Times,serif" font-size="14.00">EmployeeContract</text>
<text text-anchor="middle" x="1813" y="-1255.5" font-family="Times,serif" font-size="14.00">contracts/EmployeeContract.sol</text>
<polyline fill="none" stroke="black" points="1057.3,-1247.3 2568.7,-1247.3 "/>
<text text-anchor="start" x="1065.3" y="-1230.7" font-family="Times,serif" font-size="14.00">Private:</text>
<text text-anchor="start" x="1065.3" y="-1213.9" font-family="Times,serif" font-size="14.00"> &#160;&#160;admin: AdministratorContract</text>
<text text-anchor="start" x="1065.3" y="-1197.1" font-family="Times,serif" font-size="14.00"> &#160;&#160;employer: EmployerContract</text>
<text text-anchor="start" x="1065.3" y="-1180.3" font-family="Times,serif" font-size="14.00"> &#160;&#160;util: UtilContract</text>
<text text-anchor="start" x="1065.3" y="-1163.5" font-family="Times,serif" font-size="14.00"> &#160;&#160;employees: mapping(uint256=&gt;Employee)</text>
<text text-anchor="start" x="1065.3" y="-1146.7" font-family="Times,serif" font-size="14.00"> &#160;&#160;addsEmployees: address[]</text>
<polyline fill="none" stroke="black" points="1057.3,-1138.5 2568.7,-1138.5 "/>
<text text-anchor="start" x="1065.3" y="-1121.9" font-family="Times,serif" font-size="14.00">Public:</text>
<text text-anchor="start" x="1065.3" y="-1105.1" font-family="Times,serif" font-size="14.00"> &#160;&#160;&#160;&lt;&lt;event&gt;&gt; EmployeeAdded(from_: address, address_: address, name_: string, taxId_: uint256, begginingWorkDay_: uint256, endWorkDay_: uint256, employerAddress_: address, timestamp_: uint256)</text>
<text text-anchor="start" x="1065.3" y="-1088.3" font-family="Times,serif" font-size="14.00"> &#160;&#160;&#160;&lt;&lt;event&gt;&gt; EmployeeUpdated(from_: address, oldAddress_: address, newAddress_: address, begginingWorkDay_: uint256, endWorkDay_: uint256, employerAddress_: address, state_: State, timestamp_: uint256)</text>
<text text-anchor="start" x="1065.3" y="-1071.5" font-family="Times,serif" font-size="14.00"> &#160;&#160;&#160;&lt;&lt;modifier&gt;&gt; onlyAdmin()</text>
<text text-anchor="start" x="1065.3" y="-1054.7" font-family="Times,serif" font-size="14.00"> &#160;&#160;&#160;&lt;&lt;modifier&gt;&gt; employeeNotAddedYet(_address: address)</text>
<text text-anchor="start" x="1065.3" y="-1037.9" font-family="Times,serif" font-size="14.00"> &#160;&#160;&#160;&lt;&lt;modifier&gt;&gt; employeeAddedYet(_address: address)</text>
<text text-anchor="start" x="1065.3" y="-1021.1" font-family="Times,serif" font-size="14.00"> &#160;&#160;&#160;&lt;&lt;modifier&gt;&gt; employerAddedYet(_address: address)</text>
<text text-anchor="start" x="1065.3" y="-1004.3" font-family="Times,serif" font-size="14.00"> &#160;&#160;&#160;&lt;&lt;modifier&gt;&gt; validWorkday(_beggining: uint256, _end: uint256)</text>
<text text-anchor="start" x="1065.3" y="-987.5" font-family="Times,serif" font-size="14.00"> &#160;&#160;&#160;constructor(_adm: address, _employer: address, _util: address)</text>
<text text-anchor="start" x="1065.3" y="-970.7" font-family="Times,serif" font-size="14.00"> &#160;&#160;&#160;addEmployee(_address: address, _name: string, _taxId: uint256, _begginingWorkDay: uint256, _endWorkDay: uint256, _employerAddress: address) &lt;&lt;onlyAdmin, employerAddedYet, employeeNotAddedYet, validWorkday&gt;&gt;</text>
<text text-anchor="start" x="1065.3" y="-953.9" font-family="Times,serif" font-size="14.00"> &#160;&#160;&#160;updateEmployee(_addressKey: address, _address: address, _taxId: uint256, _name: string, _begginingWorkDay: uint256, _endWorkDay: uint256, _state: State, _employerAddress: address) &lt;&lt;onlyAdmin, employerAddedYet, employeeAddedYet, validWorkday&gt;&gt;</text>
<text text-anchor="start" x="1065.3" y="-937.1" font-family="Times,serif" font-size="14.00"> &#160;&#160;&#160;getEmployeeById(_id: uint256): Employee &lt;&lt;onlyAdmin&gt;&gt;</text>
<text text-anchor="start" x="1065.3" y="-920.3" font-family="Times,serif" font-size="14.00"> &#160;&#160;&#160;getEmployeeByAddress(_address: address): Employee &lt;&lt;onlyAdmin&gt;&gt;</text>
<text text-anchor="start" x="1065.3" y="-903.5" font-family="Times,serif" font-size="14.00"> &#160;&#160;&#160;getAllEmployees(): Employee[] &lt;&lt;onlyAdmin&gt;&gt;</text>
<text text-anchor="start" x="1065.3" y="-886.7" font-family="Times,serif" font-size="14.00"> &#160;&#160;&#160;checkIfEmployeeExists(_address: address): bool &lt;&lt;onlyAdmin&gt;&gt;</text>
<text text-anchor="start" x="1065.3" y="-869.9" font-family="Times,serif" font-size="14.00"> &#160;&#160;&#160;getEmployerContract(): (_empContract: address) &lt;&lt;onlyAdmin&gt;&gt;</text>
</g>
<!-- 3&#45;&gt;2 -->
<g id="edge3" class="edge">
<title>3&#45;&gt;2</title>
<path fill="none" stroke="black" d="M1818.84,-1396.85C1819.37,-1367.85 1819.67,-1334.94 1819.74,-1301.5"/>
<polygon fill="black" stroke="black" points="1819.74,-1301.17 1815.75,-1295.16 1819.75,-1289.17 1823.75,-1295.17 1819.74,-1301.17"/>
</g>
<!-- 2&#45;&gt;0 -->
<g id="edge4" class="edge">
<title>2&#45;&gt;0</title>
<path fill="none" stroke="black" d="M1663.35,-1289.13C1572.86,-1417.81 1459.31,-1579.3 1376.1,-1697.64"/>
<polygon fill="black" stroke="black" points="1373.05,-1695.89 1370.16,-1706.09 1378.78,-1699.92 1373.05,-1695.89"/>
</g>
<!-- 2&#45;&gt;3 -->
<g id="edge7" class="edge">
<title>2&#45;&gt;3</title>
<path fill="none" stroke="black" d="M1806.25,-1289.17C1806.27,-1322.97 1806.51,-1356.67 1806.99,-1386.78"/>
<polygon fill="black" stroke="black" points="1803.49,-1386.91 1807.16,-1396.85 1810.49,-1386.79 1803.49,-1386.91"/>
</g>
<!-- 4 -->
<g id="node6" class="node">
<title>4</title>
<polygon fill="#f2f2f2" stroke="black" points="1928.91,-1325.9 1928.91,-1669.1 2901.1,-1669.1 2901.1,-1325.9 1928.91,-1325.9"/>
<text text-anchor="middle" x="2415" y="-1652.5" font-family="Times,serif" font-size="14.00">EmployerContract</text>
<text text-anchor="middle" x="2415" y="-1635.7" font-family="Times,serif" font-size="14.00">contracts/EmployerContract.sol</text>
<polyline fill="none" stroke="black" points="1928.91,-1627.5 2901.1,-1627.5 "/>
<text text-anchor="start" x="1936.91" y="-1610.9" font-family="Times,serif" font-size="14.00">Private:</text>
<text text-anchor="start" x="1936.91" y="-1594.1" font-family="Times,serif" font-size="14.00"> &#160;&#160;admin: AdministratorContract</text>
<text text-anchor="start" x="1936.91" y="-1577.3" font-family="Times,serif" font-size="14.00"> &#160;&#160;employers: mapping(uint256=&gt;Employer)</text>
<text text-anchor="start" x="1936.91" y="-1560.5" font-family="Times,serif" font-size="14.00"> &#160;&#160;addsEmployers: address[]</text>
<polyline fill="none" stroke="black" points="1928.91,-1552.3 2901.1,-1552.3 "/>
<text text-anchor="start" x="1936.91" y="-1535.7" font-family="Times,serif" font-size="14.00">Public:</text>
<text text-anchor="start" x="1936.91" y="-1518.9" font-family="Times,serif" font-size="14.00"> &#160;&#160;&#160;&lt;&lt;event&gt;&gt; EmployerAdded(from_: address, address_: address, name_: string, taxId_: uint256, legalAddress_: string, timestamp_: uint256)</text>
<text text-anchor="start" x="1936.91" y="-1502.1" font-family="Times,serif" font-size="14.00"> &#160;&#160;&#160;&lt;&lt;event&gt;&gt; EmployerUpdated(from_: address, oldAddress_: address, newAddress_: address, name_: string, taxId_: uint256, legaAddress_: string, timestamp_: uint256)</text>
<text text-anchor="start" x="1936.91" y="-1485.3" font-family="Times,serif" font-size="14.00"> &#160;&#160;&#160;&lt;&lt;modifier&gt;&gt; onlyAdmin()</text>
<text text-anchor="start" x="1936.91" y="-1468.5" font-family="Times,serif" font-size="14.00"> &#160;&#160;&#160;&lt;&lt;modifier&gt;&gt; employerNotAddedYet(_address: address)</text>
<text text-anchor="start" x="1936.91" y="-1451.7" font-family="Times,serif" font-size="14.00"> &#160;&#160;&#160;&lt;&lt;modifier&gt;&gt; employerAddedYet(_address: address)</text>
<text text-anchor="start" x="1936.91" y="-1434.9" font-family="Times,serif" font-size="14.00"> &#160;&#160;&#160;constructor(_adm: address)</text>
<text text-anchor="start" x="1936.91" y="-1418.1" font-family="Times,serif" font-size="14.00"> &#160;&#160;&#160;addEmployer(_address: address, _taxId: uint256, _name: string, _legalAddress: string) &lt;&lt;onlyAdmin, employerNotAddedYet&gt;&gt;</text>
<text text-anchor="start" x="1936.91" y="-1401.3" font-family="Times,serif" font-size="14.00"> &#160;&#160;&#160;updateEmployer(_addressKey: address, _address: address, _taxId: uint256, _name: string, _legalAddress: string) &lt;&lt;onlyAdmin, employerAddedYet&gt;&gt;</text>
<text text-anchor="start" x="1936.91" y="-1384.5" font-family="Times,serif" font-size="14.00"> &#160;&#160;&#160;getEmployerById(_id: uint256): Employer &lt;&lt;onlyAdmin&gt;&gt;</text>
<text text-anchor="start" x="1936.91" y="-1367.7" font-family="Times,serif" font-size="14.00"> &#160;&#160;&#160;getEmployerByAddress(_address: address): Employer &lt;&lt;onlyAdmin&gt;&gt;</text>
<text text-anchor="start" x="1936.91" y="-1350.9" font-family="Times,serif" font-size="14.00"> &#160;&#160;&#160;getAllEmployers(): Employer[] &lt;&lt;onlyAdmin&gt;&gt;</text>
<text text-anchor="start" x="1936.91" y="-1334.1" font-family="Times,serif" font-size="14.00"> &#160;&#160;&#160;checkIfEmployerExists(_address: address): bool &lt;&lt;onlyAdmin&gt;&gt;</text>
</g>
<!-- 2&#45;&gt;4 -->
<g id="edge5" class="edge">
<title>2&#45;&gt;4</title>
<path fill="none" stroke="black" d="M2117.97,-1289.17C2132.71,-1299.45 2147.43,-1309.73 2162,-1319.9"/>
<polygon fill="black" stroke="black" points="2160.35,-1323.02 2170.55,-1325.87 2164.36,-1317.28 2160.35,-1323.02"/>
</g>
<!-- 9 -->
<g id="node10" class="node">
<title>9</title>
<polygon fill="#f2f2f2" stroke="black" points="700.51,-1447.5 700.51,-1547.5 1001.5,-1547.5 1001.5,-1447.5 700.51,-1447.5"/>
<text text-anchor="middle" x="851" y="-1530.9" font-family="Times,serif" font-size="14.00">UtilContract</text>
<text text-anchor="middle" x="851" y="-1514.1" font-family="Times,serif" font-size="14.00">contracts/UtilContract.sol</text>
<polyline fill="none" stroke="black" points="700.51,-1505.9 1001.5,-1505.9 "/>
<text text-anchor="start" x="708.51" y="-1489.3" font-family="Times,serif" font-size="14.00">Public:</text>
<text text-anchor="start" x="708.51" y="-1472.5" font-family="Times,serif" font-size="14.00"> &#160;&#160;&#160;getDate(timestamp: uint): (yearMonthDay: uint)</text>
<text text-anchor="start" x="708.51" y="-1455.7" font-family="Times,serif" font-size="14.00"> &#160;&#160;&#160;validateTime(_time: uint256): bool</text>
</g>
<!-- 2&#45;&gt;9 -->
<g id="edge6" class="edge">
<title>2&#45;&gt;9</title>
<path fill="none" stroke="black" d="M1224.13,-1289.01C1196.87,-1300.91 1170.04,-1313.06 1144,-1325.4 1071.34,-1359.83 992.87,-1406.18 935.44,-1441.96"/>
<polygon fill="black" stroke="black" points="933.39,-1439.11 926.77,-1447.38 937.1,-1445.05 933.39,-1439.11"/>
</g>
<!-- 5 -->
<g id="node5" class="node">
<title>5</title>
<polygon fill="#f2f2f2" stroke="black" points="2318.17,-1785.7 2318.17,-1936.1 2511.84,-1936.1 2511.84,-1785.7 2318.17,-1785.7"/>
<text text-anchor="middle" x="2415" y="-1919.5" font-family="Times,serif" font-size="14.00">&lt;&lt;Struct&gt;&gt;</text>
<text text-anchor="middle" x="2415" y="-1902.7" font-family="Times,serif" font-size="14.00">Employer</text>
<text text-anchor="middle" x="2415" y="-1885.9" font-family="Times,serif" font-size="14.00">contracts/EmployerContract.sol</text>
<polyline fill="none" stroke="black" points="2318.17,-1877.7 2511.84,-1877.7 "/>
<text text-anchor="start" x="2326.17" y="-1861.1" font-family="Times,serif" font-size="14.00">idEmployer: uint256</text>
<text text-anchor="start" x="2326.17" y="-1844.3" font-family="Times,serif" font-size="14.00">employerAddress: address</text>
<text text-anchor="start" x="2326.17" y="-1827.5" font-family="Times,serif" font-size="14.00">taxId: uint256</text>
<text text-anchor="start" x="2326.17" y="-1810.7" font-family="Times,serif" font-size="14.00">name: string</text>
<text text-anchor="start" x="2326.17" y="-1793.9" font-family="Times,serif" font-size="14.00">legalAddress: string</text>
</g>
<!-- 5&#45;&gt;4 -->
<g id="edge8" class="edge">
<title>5&#45;&gt;4</title>
<path fill="none" stroke="black" d="M2420.58,-1785.59C2421.35,-1755.02 2421.74,-1718.14 2421.75,-1681.15"/>
<polygon fill="black" stroke="black" points="2421.75,-1681.15 2417.75,-1675.15 2421.74,-1669.15 2425.75,-1675.14 2421.75,-1681.15"/>
</g>
<!-- 4&#45;&gt;0 -->
<g id="edge9" class="edge">
<title>4&#45;&gt;0</title>
<path fill="none" stroke="black" d="M1928.8,-1666.8C1925.86,-1667.74 1922.93,-1668.67 1920,-1669.6 1857.48,-1689.43 1791.34,-1709.56 1726.06,-1728.92"/>
<polygon fill="black" stroke="black" points="1725.03,-1725.58 1716.44,-1731.77 1727.02,-1732.29 1725.03,-1725.58"/>
</g>
<!-- 4&#45;&gt;5 -->
<g id="edge10" class="edge">
<title>4&#45;&gt;5</title>
<path fill="none" stroke="black" d="M2408.26,-1669.15C2408.19,-1706.09 2408.5,-1743.59 2409.19,-1775.45"/>
<polygon fill="black" stroke="black" points="2405.69,-1775.68 2409.43,-1785.59 2412.69,-1775.51 2405.69,-1775.68"/>
</g>
<!-- 7 -->
<g id="node7" class="node">
<title>7</title>
<polygon fill="#f2f2f2" stroke="black" points="806.82,-1008.5 806.82,-1142.1 963.19,-1142.1 963.19,-1008.5 806.82,-1008.5"/>
<text text-anchor="middle" x="885" y="-1125.5" font-family="Times,serif" font-size="14.00">&lt;&lt;Struct&gt;&gt;</text>
<text text-anchor="middle" x="885" y="-1108.7" font-family="Times,serif" font-size="14.00">EmployeeRecord</text>
<text text-anchor="middle" x="885" y="-1091.9" font-family="Times,serif" font-size="14.00">contracts/PontoBlock.sol</text>
<polyline fill="none" stroke="black" points="806.82,-1083.7 963.19,-1083.7 "/>
<text text-anchor="start" x="814.82" y="-1067.1" font-family="Times,serif" font-size="14.00">startWork: uint256</text>
<text text-anchor="start" x="814.82" y="-1050.3" font-family="Times,serif" font-size="14.00">endWork: uint256</text>
<text text-anchor="start" x="814.82" y="-1033.5" font-family="Times,serif" font-size="14.00">breakStartTime: uint256</text>
<text text-anchor="start" x="814.82" y="-1016.7" font-family="Times,serif" font-size="14.00">breakEndTime: uint256</text>
</g>
<!-- 6 -->
<g id="node8" class="node">
<title>6</title>
<polygon fill="#f2f2f2" stroke="black" points="736.35,-279.9 736.35,-824.7 1403.66,-824.7 1403.66,-279.9 736.35,-279.9"/>
<text text-anchor="middle" x="1070" y="-808.1" font-family="Times,serif" font-size="14.00">PontoBlock</text>
<text text-anchor="middle" x="1070" y="-791.3" font-family="Times,serif" font-size="14.00">contracts/PontoBlock.sol</text>
<polyline fill="none" stroke="black" points="736.35,-783.1 1403.66,-783.1 "/>
<text text-anchor="start" x="744.35" y="-766.5" font-family="Times,serif" font-size="14.00">Private:</text>
<text text-anchor="start" x="744.35" y="-749.7" font-family="Times,serif" font-size="14.00"> &#160;&#160;employee: EmployeeContract</text>
<text text-anchor="start" x="744.35" y="-732.9" font-family="Times,serif" font-size="14.00"> &#160;&#160;util: UtilContract</text>
<text text-anchor="start" x="744.35" y="-716.1" font-family="Times,serif" font-size="14.00"> &#160;&#160;admin: AdministratorContract</text>
<text text-anchor="start" x="744.35" y="-699.3" font-family="Times,serif" font-size="14.00"> &#160;&#160;timeZone: int</text>
<text text-anchor="start" x="744.35" y="-682.5" font-family="Times,serif" font-size="14.00"> &#160;&#160;oneHour: int</text>
<text text-anchor="start" x="744.35" y="-665.7" font-family="Times,serif" font-size="14.00"> &#160;&#160;owner: address</text>
<text text-anchor="start" x="744.35" y="-648.9" font-family="Times,serif" font-size="14.00"> &#160;&#160;creationDate: uint</text>
<text text-anchor="start" x="744.35" y="-632.1" font-family="Times,serif" font-size="14.00"> &#160;&#160;employeeRecords: mapping(address=&gt;mapping(uint256=&gt;EmployeeRecord))</text>
<polyline fill="none" stroke="black" points="736.35,-623.9 1403.66,-623.9 "/>
<text text-anchor="start" x="744.35" y="-607.3" font-family="Times,serif" font-size="14.00">Public:</text>
<text text-anchor="start" x="744.35" y="-590.5" font-family="Times,serif" font-size="14.00"> &#160;&#160;&#160;&lt;&lt;event&gt;&gt; StartWorkRegistered(address_: address, startWork_: uint256, timestamp_: uint256)</text>
<text text-anchor="start" x="744.35" y="-573.7" font-family="Times,serif" font-size="14.00"> &#160;&#160;&#160;&lt;&lt;event&gt;&gt; EndWorkRegistered(address_: address, endWork_: uint256, timestamp_: uint256)</text>
<text text-anchor="start" x="744.35" y="-556.9" font-family="Times,serif" font-size="14.00"> &#160;&#160;&#160;&lt;&lt;event&gt;&gt; BreakStartWorkRegistered(address_: address, breakStartWork_: uint256, timestamp_: uint256)</text>
<text text-anchor="start" x="744.35" y="-540.1" font-family="Times,serif" font-size="14.00"> &#160;&#160;&#160;&lt;&lt;event&gt;&gt; BreakEndWorkRegistered(address_: address, breakEndtWork_: uint256, timestamp_: uint256)</text>
<text text-anchor="start" x="744.35" y="-523.3" font-family="Times,serif" font-size="14.00"> &#160;&#160;&#160;&lt;&lt;modifier&gt;&gt; onlyOwner()</text>
<text text-anchor="start" x="744.35" y="-506.5" font-family="Times,serif" font-size="14.00"> &#160;&#160;&#160;&lt;&lt;modifier&gt;&gt; onlyAdmin()</text>
<text text-anchor="start" x="744.35" y="-489.7" font-family="Times,serif" font-size="14.00"> &#160;&#160;&#160;&lt;&lt;modifier&gt;&gt; employeeAddedYet(_address: address)</text>
<text text-anchor="start" x="744.35" y="-472.9" font-family="Times,serif" font-size="14.00"> &#160;&#160;&#160;&lt;&lt;modifier&gt;&gt; activeEmployee()</text>
<text text-anchor="start" x="744.35" y="-456.1" font-family="Times,serif" font-size="14.00"> &#160;&#160;&#160;constructor(_emp: address, _util: address, _adm: address, _timeZone: int)</text>
<text text-anchor="start" x="744.35" y="-439.3" font-family="Times,serif" font-size="14.00"> &#160;&#160;&#160;startWork() &lt;&lt;employeeAddedYet, activeEmployee&gt;&gt;</text>
<text text-anchor="start" x="744.35" y="-422.5" font-family="Times,serif" font-size="14.00"> &#160;&#160;&#160;endWork() &lt;&lt;employeeAddedYet, activeEmployee&gt;&gt;</text>
<text text-anchor="start" x="744.35" y="-405.7" font-family="Times,serif" font-size="14.00"> &#160;&#160;&#160;breakStartTime() &lt;&lt;employeeAddedYet, activeEmployee&gt;&gt;</text>
<text text-anchor="start" x="744.35" y="-388.9" font-family="Times,serif" font-size="14.00"> &#160;&#160;&#160;breakEndTime() &lt;&lt;employeeAddedYet, activeEmployee&gt;&gt;</text>
<text text-anchor="start" x="744.35" y="-372.1" font-family="Times,serif" font-size="14.00"> &#160;&#160;&#160;getCreationDateContract(): uint &lt;&lt;onlyAdmin&gt;&gt;</text>
<text text-anchor="start" x="744.35" y="-355.3" font-family="Times,serif" font-size="14.00"> &#160;&#160;&#160;getEmployeeRecords(_address: address, _date: uint256): EmployeeRecord &lt;&lt;onlyAdmin, employeeAddedYet&gt;&gt;</text>
<text text-anchor="start" x="744.35" y="-338.5" font-family="Times,serif" font-size="14.00"> &#160;&#160;&#160;getMoment(): uint256</text>
<text text-anchor="start" x="744.35" y="-321.7" font-family="Times,serif" font-size="14.00"> &#160;&#160;&#160;changeOwner(_newOwner: address) &lt;&lt;onlyOwner&gt;&gt;</text>
<text text-anchor="start" x="744.35" y="-304.9" font-family="Times,serif" font-size="14.00"> &#160;&#160;&#160;getOwner(): address &lt;&lt;onlyAdmin&gt;&gt;</text>
<text text-anchor="start" x="744.35" y="-288.1" font-family="Times,serif" font-size="14.00"> &#160;&#160;&#160;getTimeZone(): int</text>
</g>
<!-- 7&#45;&gt;6 -->
<g id="edge11" class="edge">
<title>7&#45;&gt;6</title>
<path fill="none" stroke="black" d="M913.08,-1008.39C930.22,-963.61 953.14,-900.99 976.17,-836.5"/>
<polygon fill="black" stroke="black" points="976.29,-836.17 974.54,-829.17 980.32,-824.86 982.07,-831.86 976.29,-836.17"/>
</g>
<!-- 6&#45;&gt;0 -->
<g id="edge14" class="edge">
<title>6&#45;&gt;0</title>
<path fill="none" stroke="black" d="M1049.54,-824.82C1048.95,-837.11 1048.43,-849.28 1048,-861.2 1035.1,-1222.78 1002.71,-1336.52 1144,-1669.6 1147.85,-1678.66 1152.08,-1687.79 1156.6,-1696.88"/>
<polygon fill="black" stroke="black" points="1153.56,-1698.62 1161.2,-1705.96 1159.8,-1695.46 1153.56,-1698.62"/>
</g>
<!-- 6&#45;&gt;2 -->
<g id="edge12" class="edge">
<title>6&#45;&gt;2</title>
<path fill="none" stroke="black" d="M1403.74,-787.32C1436.27,-810.13 1469.19,-833.21 1501.49,-855.86"/>
<polygon fill="black" stroke="black" points="1499.49,-858.73 1509.68,-861.61 1503.5,-853 1499.49,-858.73"/>
</g>
<!-- 6&#45;&gt;7 -->
<g id="edge15" class="edge">
<title>6&#45;&gt;7</title>
<path fill="none" stroke="black" stroke-dasharray="5,2" d="M966.83,-824.86C944.17,-888.85 922.37,-951.95 906.93,-998.67"/>
<polygon fill="black" stroke="black" points="903.54,-997.8 903.74,-1008.39 910.19,-999.98 903.54,-997.8"/>
</g>
<!-- 6&#45;&gt;9 -->
<g id="edge13" class="edge">
<title>6&#45;&gt;9</title>
<path fill="none" stroke="black" d="M1020.28,-825.11C1018.42,-837.3 1016.65,-849.37 1015,-861.2 988.61,-1050.64 1031.16,-1107.51 972,-1289.4 954.33,-1343.75 920.83,-1399.34 893.55,-1439.23"/>
<polygon fill="black" stroke="black" points="890.65,-1437.28 887.84,-1447.5 896.4,-1441.26 890.65,-1437.28"/>
</g>
<!-- 8 -->
<g id="node9" class="node">
<title>8</title>
<polygon fill="#f2f2f2" stroke="black" points="0,-0.5 0,-242.9 1416.01,-242.9 1416.01,-0.5 0,-0.5"/>
<text text-anchor="middle" x="708" y="-226.3" font-family="Times,serif" font-size="14.00">PontoBlockReports</text>
<text text-anchor="middle" x="708" y="-209.5" font-family="Times,serif" font-size="14.00">contracts/PontoBlockReports.sol</text>
<polyline fill="none" stroke="black" points="0,-201.3 1416.01,-201.3 "/>
<text text-anchor="start" x="8" y="-184.7" font-family="Times,serif" font-size="14.00">Private:</text>
<text text-anchor="start" x="8" y="-167.9" font-family="Times,serif" font-size="14.00"> &#160;&#160;employee: EmployeeContract</text>
<text text-anchor="start" x="8" y="-151.1" font-family="Times,serif" font-size="14.00"> &#160;&#160;pontoBlock: PontoBlock</text>
<text text-anchor="start" x="8" y="-134.3" font-family="Times,serif" font-size="14.00"> &#160;&#160;util: UtilContract</text>
<text text-anchor="start" x="8" y="-117.5" font-family="Times,serif" font-size="14.00"> &#160;&#160;admin: AdministratorContract</text>
<polyline fill="none" stroke="black" points="0,-109.3 1416.01,-109.3 "/>
<text text-anchor="start" x="8" y="-92.7" font-family="Times,serif" font-size="14.00">Public:</text>
<text text-anchor="start" x="8" y="-75.9" font-family="Times,serif" font-size="14.00"> &#160;&#160;&#160;constructor(_emp: address, _ponto: address, _util: address, _adm: address)</text>
<text text-anchor="start" x="8" y="-59.1" font-family="Times,serif" font-size="14.00"> &#160;&#160;&#160;getWorkTimesFromEmployeeAtDate(_employee: address, _date: uint256): (_startWork: uint256, _endWork: uint256, _breakStartTime: uint256, _breakEndTime: uint256)</text>
<text text-anchor="start" x="8" y="-42.3" font-family="Times,serif" font-size="14.00"> &#160;&#160;&#160;getWorkTimeFromEmployeeBetweenTwoDates(_employee: address, _startDate: uint256, _endDate: uint256): (_date: uint256[], _startWork: uint256[], _endWork: uint256[], _breakStartTime: uint256[], _breakEndTime: uint256[])</text>
<text text-anchor="start" x="8" y="-25.5" font-family="Times,serif" font-size="14.00"> &#160;&#160;&#160;getWorkTimesForAllEmployeesAtDate(_date: uint256): (_empAddress: address[], _startWork: uint256[], _endWork: uint256[], _breakStartTime: uint256[], _breakEndTime: uint256[])</text>
<text text-anchor="start" x="8" y="-8.7" font-family="Times,serif" font-size="14.00"> &#160;&#160;&#160;getWorkTimesForAllEmployeesBetweenTwoDates(_startDate: uint256, _endDate: uint256): (_date: uint256[], _empAddress: address[][], _startWork: uint256[][], _endWork: uint256[][], _breakStartTime: uint256[][], _breakEndTime: uint256[][])</text>
</g>
<!-- 8&#45;&gt;0 -->
<g id="edge19" class="edge">
<title>8&#45;&gt;0</title>
<path fill="none" stroke="black" d="M662.97,-243C566.27,-523.92 372.27,-1232.35 692,-1669.6 720.53,-1708.62 757.41,-1739.74 798.67,-1764.56"/>
<polygon fill="black" stroke="black" points="797.14,-1767.72 807.54,-1769.76 800.68,-1761.68 797.14,-1767.72"/>
</g>
<!-- 8&#45;&gt;2 -->
<g id="edge16" class="edge">
<title>8&#45;&gt;2</title>
<path fill="none" stroke="black" d="M1342.73,-242.94C1372.31,-254.38 1396.5,-266.54 1413,-279.4 1595.92,-421.85 1701.83,-670.43 1758.17,-851.78"/>
<polygon fill="black" stroke="black" points="1754.86,-852.92 1761.15,-861.45 1761.55,-850.86 1754.86,-852.92"/>
</g>
<!-- 8&#45;&gt;7 -->
<g id="edge20" class="edge">
<title>8&#45;&gt;7</title>
<path fill="none" stroke="black" stroke-dasharray="5,2" d="M703.58,-243.2C698.59,-414.69 694.91,-720.03 727,-825.2 746.64,-889.56 787.75,-953.48 823.11,-1000.45"/>
<polygon fill="black" stroke="black" points="820.34,-1002.59 829.18,-1008.43 825.91,-998.35 820.34,-1002.59"/>
</g>
<!-- 8&#45;&gt;6 -->
<g id="edge17" class="edge">
<title>8&#45;&gt;6</title>
<path fill="none" stroke="black" d="M809.56,-242.94C817.56,-252.42 825.82,-262.19 834.25,-272.18"/>
<polygon fill="black" stroke="black" points="831.61,-274.47 840.74,-279.85 836.96,-269.95 831.61,-274.47"/>
</g>
<!-- 8&#45;&gt;9 -->
<g id="edge18" class="edge">
<title>8&#45;&gt;9</title>
<path fill="none" stroke="black" d="M698.68,-243.28C698,-255.48 697.41,-267.68 697,-279.4 688.5,-521.83 671.07,-584.01 697,-825.2 719.58,-1035.13 749.38,-1083.94 798,-1289.4 809.85,-1339.45 824.4,-1396 835.26,-1437.34"/>
<polygon fill="black" stroke="black" points="831.93,-1438.47 837.86,-1447.25 838.7,-1436.69 831.93,-1438.47"/>
</g>
</g>
</svg>
